<svg width="994" height="742" viewBox="0 0 994 742" fill="none" xmlns="http://www.w3.org/2000/svg">
<rect x="249" y="398" width="340" height="340" fill="#376092"/>
<circle cx="661" cy="568" r="121" fill="white"/>
<circle cx="670" cy="568" r="77" fill="#558ED5"/>
<rect x="654" y="398" width="340" height="340" fill="#558ED5"/>
<circle cx="824" cy="379" r="121" fill="white"/>
<circle cx="824" cy="379" r="77" fill="#8EB4E3"/>
<rect x="654" y="5" width="340" height="340" fill="#8EB4E3"/>
<circle cx="580" cy="177" r="121" fill="white"/>
<circle cx="580" cy="177" r="77" fill="#DCE6F2"/>
<rect x="249" y="5" width="340" height="340" fill="#DCE6F2"/>
<circle cx="419" cy="370" r="121" fill="white"/>
<circle cx="419" cy="370" r="77" fill="#376092"/>
<rect x="249" y="398" width="331" height="49" fill="#376092"/>
<rect x="249" y="447" width="269" height="49" fill="#376092"/>
<path d="M306.874 135.872H308.386C310.162 135.872 311.482 135.464 312.346 134.648C313.234 133.832 313.678 132.848 313.678 131.696C313.678 130.544 313.306 129.596 312.562 128.852C311.842 128.084 310.942 127.7 309.862 127.7C308.662 127.7 307.726 128.012 307.054 128.636C306.382 129.236 305.95 130.112 305.758 131.264H300.754C301.018 128.888 301.93 127.016 303.49 125.648C305.05 124.28 307.138 123.596 309.754 123.596C311.194 123.596 312.466 123.8 313.57 124.208C314.674 124.616 315.598 125.168 316.342 125.864C317.11 126.56 317.686 127.388 318.07 128.348C318.478 129.308 318.682 130.34 318.682 131.444C318.682 132.116 318.574 132.788 318.358 133.46C318.142 134.108 317.83 134.72 317.422 135.296C317.014 135.872 316.51 136.388 315.91 136.844C315.31 137.276 314.638 137.612 313.894 137.852C314.782 138.068 315.538 138.416 316.162 138.896C316.81 139.376 317.338 139.94 317.746 140.588C318.178 141.212 318.49 141.896 318.682 142.64C318.898 143.36 319.006 144.068 319.006 144.764C319.006 145.988 318.802 147.104 318.394 148.112C317.986 149.096 317.374 149.948 316.558 150.668C315.766 151.388 314.782 151.94 313.606 152.324C312.43 152.732 311.086 152.936 309.574 152.936C308.254 152.936 307.03 152.744 305.902 152.36C304.798 151.976 303.826 151.436 302.986 150.74C302.17 150.044 301.51 149.216 301.006 148.256C300.526 147.272 300.25 146.18 300.178 144.98H305.218C305.41 146.132 305.866 147.056 306.586 147.752C307.33 148.424 308.398 148.76 309.79 148.76C310.39 148.76 310.942 148.652 311.446 148.436C311.974 148.196 312.418 147.884 312.778 147.5C313.162 147.092 313.462 146.636 313.678 146.132C313.894 145.628 314.014 145.088 314.038 144.512C314.086 143.168 313.606 142.088 312.598 141.272C311.59 140.456 310.186 140.048 308.386 140.048H306.874V135.872ZM324.625 147.572H329.089V152.36H324.625V147.572ZM360.518 123.308V131.192H364.694V135.152H360.518V146.168H355.874V123.308H360.518ZM360.95 150.596V154.592H341.87C341.15 154.592 340.61 154.508 340.25 154.34C339.89 154.196 339.53 153.92 339.17 153.512L338.126 152.432C337.934 152.216 337.766 152.024 337.622 151.856C337.502 151.664 337.406 151.46 337.334 151.244C337.262 151.028 337.202 150.788 337.154 150.524C337.13 150.236 337.118 149.888 337.118 149.48V143.432H341.726V148.868C341.726 149.228 341.798 149.492 341.942 149.66L342.626 150.38C342.722 150.524 342.95 150.596 343.31 150.596H360.95ZM346.91 131.66C347.918 132.812 348.95 133.916 350.006 134.972C351.086 136.004 352.202 137.048 353.354 138.104L350.51 141.2C349.31 140.144 348.194 139.1 347.162 138.068C346.154 137.036 345.182 135.944 344.246 134.792C344.078 134.6 343.946 134.456 343.85 134.36C343.754 134.24 343.67 134.084 343.598 133.892C343.574 134.06 343.514 134.204 343.418 134.324C343.322 134.444 343.19 134.6 343.022 134.792C342.038 135.968 341.042 137.084 340.034 138.14C339.05 139.196 337.946 140.276 336.722 141.38L333.734 138.32C335.006 137.168 336.17 136.052 337.226 134.972C338.306 133.892 339.314 132.776 340.25 131.624C340.442 131.384 340.598 131.168 340.718 130.976C340.862 130.784 340.97 130.592 341.042 130.4C341.114 130.184 341.162 129.968 341.186 129.752C341.21 129.536 341.222 129.272 341.222 128.96V123.92H345.938V128.96C345.938 129.584 345.998 130.088 346.118 130.472C346.238 130.832 346.502 131.228 346.91 131.66ZM394.58 123.308V139.328H390.044V133.208H384.5C384.332 134.072 384.02 134.876 383.564 135.62C383.132 136.364 382.568 137.024 381.872 137.6C381.176 138.152 380.36 138.584 379.424 138.896C378.512 139.208 377.492 139.364 376.364 139.364C375.044 139.364 373.868 139.16 372.836 138.752C371.804 138.344 370.928 137.792 370.208 137.096C369.488 136.376 368.936 135.56 368.552 134.648C368.192 133.712 368.012 132.728 368.012 131.696V130.688C368.012 129.656 368.192 128.672 368.552 127.736C368.936 126.8 369.488 125.984 370.208 125.288C370.928 124.568 371.804 124.004 372.836 123.596C373.868 123.188 375.044 122.984 376.364 122.984C377.492 122.984 378.524 123.152 379.46 123.488C380.396 123.8 381.2 124.232 381.872 124.784C382.568 125.336 383.132 125.996 383.564 126.764C384.02 127.532 384.332 128.348 384.5 129.212H390.044V123.308H394.58ZM375.248 143.936H390.044V140.984H394.58V153.296C394.58 154.136 394.136 154.556 393.248 154.556H375.32C374.6 154.556 374.06 154.484 373.7 154.34C373.364 154.22 372.98 153.944 372.548 153.512L371.648 152.612C371.456 152.42 371.288 152.24 371.144 152.072C371.024 151.904 370.928 151.736 370.856 151.568C370.784 151.376 370.724 151.16 370.676 150.92C370.652 150.68 370.64 150.392 370.64 150.056V140.984H375.248V143.936ZM380.108 130.688C380.108 129.656 379.784 128.768 379.136 128.024C378.512 127.256 377.588 126.872 376.364 126.872C375.116 126.872 374.168 127.256 373.52 128.024C372.896 128.768 372.584 129.656 372.584 130.688V131.696C372.584 132.704 372.896 133.592 373.52 134.36C374.168 135.104 375.116 135.476 376.364 135.476C377.588 135.476 378.512 135.104 379.136 134.36C379.784 133.592 380.108 132.704 380.108 131.696V130.688ZM390.044 150.632V147.824H375.248V149.444C375.248 149.66 375.332 149.852 375.5 150.02L375.86 150.416C376.028 150.56 376.208 150.632 376.4 150.632H390.044ZM435.107 141.812H424.955V149.264H436.439V153.296H408.755V149.264H420.311V141.812H415.559C415.223 141.812 414.935 141.8 414.695 141.776C414.455 141.728 414.227 141.656 414.011 141.56C413.795 141.44 413.579 141.296 413.363 141.128C413.147 140.96 412.907 140.732 412.643 140.444L411.023 138.608C410.543 138.128 410.219 137.696 410.051 137.312C409.907 136.904 409.835 136.316 409.835 135.548V125.432C409.835 124.544 410.279 124.1 411.167 124.1H435.035V128.132H414.515V135.008C414.515 135.224 414.539 135.416 414.587 135.584C414.635 135.728 414.731 135.872 414.875 136.016L416.063 137.348C416.207 137.468 416.327 137.564 416.423 137.636C416.519 137.684 416.663 137.708 416.855 137.708H435.107V141.812ZM462.257 123.524V153.944H457.829V138.86H454.481V150.38C454.481 151.292 454.061 151.748 453.221 151.748H446.921C446.513 151.748 446.165 151.736 445.877 151.712C445.613 151.664 445.361 151.592 445.121 151.496C444.905 151.4 444.689 151.268 444.473 151.1C444.257 150.932 444.017 150.704 443.753 150.416L442.457 148.94C442.217 148.676 442.025 148.448 441.881 148.256C441.737 148.04 441.617 147.812 441.521 147.572C441.449 147.332 441.389 147.068 441.341 146.78C441.317 146.468 441.305 146.084 441.305 145.628V125.72C441.305 124.832 441.725 124.388 442.565 124.388H453.221C454.061 124.388 454.481 124.832 454.481 125.72V134.9H457.829V123.524H462.257ZM464.525 123.308H469.025V154.16H464.525V123.308ZM449.981 147.68V128.42H445.805V145.34C445.805 145.58 445.829 145.772 445.877 145.916C445.925 146.036 446.033 146.192 446.201 146.384L446.957 147.284C447.101 147.452 447.233 147.56 447.353 147.608C447.497 147.656 447.665 147.68 447.857 147.68H449.981ZM500.962 123.308V146.168H496.354V123.308H500.962ZM501.646 150.596V154.592H481.702C480.958 154.592 480.406 154.508 480.046 154.34C479.686 154.196 479.326 153.92 478.966 153.512L478.03 152.54C477.838 152.324 477.67 152.132 477.526 151.964C477.406 151.772 477.31 151.568 477.238 151.352C477.166 151.136 477.106 150.896 477.058 150.632C477.034 150.344 477.022 149.996 477.022 149.588V143.432H481.63V148.976C481.63 149.336 481.714 149.6 481.882 149.768L482.422 150.38C482.518 150.452 482.602 150.512 482.674 150.56C482.77 150.584 482.914 150.596 483.106 150.596H501.646ZM482.782 123.704C484.126 123.704 485.314 123.92 486.346 124.352C487.402 124.784 488.29 125.36 489.01 126.08C489.73 126.8 490.282 127.64 490.666 128.6C491.05 129.56 491.242 130.568 491.242 131.624V133.136C491.242 134.192 491.05 135.2 490.666 136.16C490.282 137.096 489.73 137.924 489.01 138.644C488.29 139.364 487.402 139.94 486.346 140.372C485.314 140.804 484.126 141.02 482.782 141.02C481.438 141.02 480.25 140.804 479.218 140.372C478.186 139.94 477.31 139.364 476.59 138.644C475.87 137.924 475.318 137.096 474.934 136.16C474.574 135.2 474.394 134.192 474.394 133.136V131.624C474.394 130.568 474.574 129.56 474.934 128.6C475.318 127.64 475.87 126.8 476.59 126.08C477.31 125.36 478.186 124.784 479.218 124.352C480.25 123.92 481.438 123.704 482.782 123.704ZM486.778 131.624C486.778 130.52 486.43 129.572 485.734 128.78C485.062 127.988 484.078 127.592 482.782 127.592C481.51 127.592 480.538 127.988 479.866 128.78C479.218 129.572 478.894 130.52 478.894 131.624V133.136C478.894 133.664 478.978 134.168 479.146 134.648C479.314 135.128 479.554 135.56 479.866 135.944C480.202 136.304 480.61 136.592 481.09 136.808C481.57 137.024 482.134 137.132 482.782 137.132C483.43 137.132 483.994 137.024 484.474 136.808C484.978 136.592 485.398 136.304 485.734 135.944C486.094 135.56 486.358 135.128 486.526 134.648C486.694 134.168 486.778 133.664 486.778 133.136V131.624ZM514.396 149.12V150.128C514.396 150.296 514.444 150.416 514.54 150.488L514.648 150.632C514.696 150.704 514.792 150.74 514.936 150.74H534.34V154.592H513.424C512.8 154.592 512.356 154.52 512.092 154.376C511.828 154.232 511.528 153.992 511.192 153.656L510.652 153.08C510.316 152.696 510.088 152.36 509.968 152.072C509.848 151.784 509.788 151.304 509.788 150.632V146.816C509.788 146.432 509.92 146.144 510.184 145.952C510.448 145.76 510.784 145.664 511.192 145.664H528.76C529.048 145.664 529.192 145.532 529.192 145.268V144.188H509.788V140.3H532.396C533.284 140.3 533.728 140.732 533.728 141.596V146.168C533.728 147.032 533.5 147.74 533.044 148.292C532.588 148.844 531.928 149.12 531.064 149.12H514.396ZM511.948 138.32C511.276 138.32 510.748 138.248 510.364 138.104C509.98 137.936 509.608 137.66 509.248 137.276L508.276 136.196C507.94 135.836 507.688 135.476 507.52 135.116C507.376 134.756 507.304 134.228 507.304 133.532V123.56H511.948V127.16H518.32V123.56H522.964V136.916C522.964 137.852 522.52 138.32 521.632 138.32H511.948ZM533.728 123.308V138.716H529.192V135.944H524.656V132.092H529.192V129.716H524.656V125.864H529.192V123.308H533.728ZM518.32 134.432V130.976H511.948V133.136C511.948 133.256 511.96 133.352 511.984 133.424C512.032 133.496 512.08 133.58 512.128 133.676L512.668 134.252C512.836 134.372 513.004 134.432 513.172 134.432H518.32ZM397.832 175.308V193.416H393.224V175.308H397.832ZM393.296 202.632V199.032H378.5V202.632H393.296ZM396.14 195.144C396.668 195.144 397.076 195.3 397.364 195.612C397.676 195.9 397.832 196.32 397.832 196.872V204.828C397.832 205.38 397.676 205.8 397.364 206.088C397.076 206.4 396.668 206.556 396.14 206.556H375.62C375.092 206.556 374.672 206.4 374.36 206.088C374.048 205.8 373.892 205.38 373.892 204.828V196.872C373.892 196.32 374.048 195.9 374.36 195.612C374.672 195.3 375.092 195.144 375.62 195.144H396.14ZM387.14 186.072H376.088V187.8C376.088 188.04 376.148 188.244 376.268 188.412L376.664 188.772C376.832 188.916 377 188.988 377.168 188.988H389.12V192.912H375.944C375.296 192.912 374.78 192.828 374.396 192.66C374.036 192.492 373.652 192.204 373.244 191.796L372.416 190.932C372.032 190.548 371.78 190.176 371.66 189.816C371.54 189.456 371.48 188.928 371.48 188.232V177.072C371.48 176.16 371.912 175.704 372.776 175.704H388.184V179.592H376.088V182.4H387.14V186.072ZM415.477 206.7V195.18H403.885V191.148H423.541C423.925 190.476 424.225 189.912 424.441 189.456C424.681 189 424.861 188.604 424.981 188.268C425.125 187.908 425.209 187.572 425.233 187.26C425.281 186.948 425.305 186.612 425.305 186.252V179.88H405.577V175.848H428.653C429.493 175.848 429.913 176.304 429.913 177.216V185.82C429.913 186.348 429.901 186.804 429.877 187.188C429.853 187.572 429.781 187.956 429.661 188.34C429.565 188.724 429.421 189.144 429.229 189.6C429.037 190.032 428.761 190.548 428.401 191.148H431.569V195.18H420.121V206.7H415.477ZM455.551 193.704C457.015 193.704 458.275 193.86 459.331 194.172C460.411 194.484 461.299 194.928 461.995 195.504C462.715 196.08 463.243 196.764 463.579 197.556C463.915 198.348 464.083 199.224 464.083 200.184C464.083 201.144 463.915 202.02 463.579 202.812C463.243 203.604 462.715 204.288 461.995 204.864C461.299 205.44 460.411 205.884 459.331 206.196C458.275 206.508 457.015 206.664 455.551 206.664H447.451C445.987 206.664 444.715 206.508 443.635 206.196C442.579 205.884 441.703 205.44 441.007 204.864C440.311 204.288 439.795 203.604 439.459 202.812C439.123 202.02 438.955 201.144 438.955 200.184C438.955 199.224 439.123 198.348 439.459 197.556C439.795 196.764 440.311 196.08 441.007 195.504C441.703 194.928 442.579 194.484 443.635 194.172C444.715 193.86 445.987 193.704 447.451 193.704H455.551ZM455.947 202.74C457.243 202.74 458.155 202.5 458.683 202.02C459.235 201.516 459.511 200.904 459.511 200.184C459.511 199.464 459.235 198.852 458.683 198.348C458.155 197.844 457.243 197.592 455.947 197.592H447.019C445.723 197.592 444.799 197.844 444.247 198.348C443.719 198.852 443.455 199.464 443.455 200.184C443.455 200.904 443.719 201.516 444.247 202.02C444.799 202.5 445.723 202.74 447.019 202.74H455.947ZM448.891 182.328C449.923 183.48 450.943 184.548 451.951 185.532C452.959 186.492 454.063 187.488 455.263 188.52L452.455 191.616C451.231 190.56 450.139 189.552 449.179 188.592C448.219 187.608 447.235 186.552 446.227 185.424C446.107 185.256 445.987 185.112 445.867 184.992C445.771 184.872 445.699 184.716 445.651 184.524C445.603 184.716 445.519 184.872 445.399 184.992C445.303 185.112 445.195 185.256 445.075 185.424C444.115 186.624 443.119 187.728 442.087 188.736C441.055 189.72 439.939 190.776 438.739 191.904L435.787 188.808C437.059 187.656 438.211 186.564 439.243 185.532C440.275 184.5 441.283 183.42 442.267 182.292C442.651 181.836 442.915 181.44 443.059 181.104C443.203 180.768 443.275 180.288 443.275 179.664V175.524H447.919V179.664C447.919 180.288 447.979 180.792 448.099 181.176C448.243 181.536 448.507 181.92 448.891 182.328ZM463.363 175.308V192.552H458.827V183.552H452.959V179.592H458.827V175.308H463.363Z" fill="black"/>
<path d="M724.734 148.22H730.134V152.36H713.754V148.22H719.766V129.644L713.538 134.684V129.14L719.766 124.1H723.546C724.338 124.1 724.734 124.508 724.734 125.324V148.22ZM736.084 147.572H740.548V152.36H736.084V147.572ZM771.977 123.308V134.864H776.153V138.896H771.977V154.16H767.333V123.308H771.977ZM754.769 123.236C756.089 123.236 757.253 123.452 758.261 123.884C759.293 124.316 760.145 124.94 760.817 125.756C761.513 126.548 762.029 127.508 762.365 128.636C762.725 129.74 762.905 130.976 762.905 132.344V142.856C762.905 144.224 762.725 145.46 762.365 146.564C762.029 147.668 761.513 148.616 760.817 149.408C760.145 150.2 759.293 150.812 758.261 151.244C757.253 151.676 756.089 151.892 754.769 151.892C753.425 151.892 752.249 151.676 751.241 151.244C750.233 150.812 749.393 150.2 748.721 149.408C748.049 148.616 747.533 147.668 747.173 146.564C746.837 145.46 746.669 144.224 746.669 142.856V132.344C746.669 130.976 746.837 129.74 747.173 128.636C747.533 127.508 748.049 126.548 748.721 125.756C749.417 124.94 750.269 124.316 751.277 123.884C752.285 123.452 753.449 123.236 754.769 123.236ZM758.333 132.344C758.333 130.568 757.985 129.284 757.289 128.492C756.617 127.7 755.777 127.304 754.769 127.304C753.761 127.304 752.921 127.7 752.249 128.492C751.601 129.284 751.277 130.568 751.277 132.344V142.856C751.277 144.632 751.601 145.916 752.249 146.708C752.897 147.5 753.737 147.896 754.769 147.896C755.777 147.896 756.617 147.5 757.289 146.708C757.985 145.916 758.333 144.632 758.333 142.856V132.344ZM806.039 123.308V154.16H801.431V123.308H806.039ZM788.003 123.236C789.347 123.236 790.523 123.452 791.531 123.884C792.563 124.316 793.415 124.94 794.087 125.756C794.759 126.548 795.263 127.508 795.599 128.636C795.935 129.74 796.103 130.976 796.103 132.344V142.856C796.103 144.224 795.935 145.46 795.599 146.564C795.263 147.668 794.759 148.616 794.087 149.408C793.415 150.2 792.563 150.812 791.531 151.244C790.523 151.676 789.347 151.892 788.003 151.892C786.659 151.892 785.483 151.676 784.475 151.244C783.491 150.812 782.663 150.2 781.991 149.408C781.319 148.616 780.815 147.668 780.479 146.564C780.167 145.46 780.011 144.224 780.011 142.856V132.344C780.011 130.976 780.179 129.74 780.515 128.636C780.851 127.508 781.343 126.548 781.991 125.756C782.663 124.94 783.491 124.316 784.475 123.884C785.483 123.452 786.659 123.236 788.003 123.236ZM791.459 132.344C791.459 130.568 791.147 129.284 790.523 128.492C789.899 127.7 789.059 127.304 788.003 127.304C786.995 127.304 786.179 127.7 785.555 128.492C784.931 129.284 784.619 130.568 784.619 132.344V142.856C784.619 144.632 784.931 145.916 785.555 146.708C786.179 147.5 786.995 147.896 788.003 147.896C789.059 147.896 789.899 147.5 790.523 146.708C791.147 145.916 791.459 144.632 791.459 142.856V132.344ZM838.804 123.308V154.16H834.196V123.308H838.804ZM830.308 147.716V151.712H818.86C818.452 151.712 818.104 151.7 817.816 151.676C817.528 151.628 817.264 151.556 817.024 151.46C816.784 151.364 816.556 151.232 816.34 151.064C816.124 150.896 815.884 150.668 815.62 150.38L813.856 148.436C813.616 148.172 813.424 147.932 813.28 147.716C813.136 147.5 813.016 147.284 812.92 147.068C812.848 146.828 812.788 146.552 812.74 146.24C812.716 145.928 812.704 145.556 812.704 145.124V125.504C812.704 124.616 813.124 124.172 813.964 124.172H829.084V128.096H817.384V145.124C817.384 145.484 817.528 145.82 817.816 146.132L818.86 147.32C818.98 147.488 819.112 147.596 819.256 147.644C819.4 147.692 819.556 147.716 819.724 147.716H830.308ZM871.57 123.308V154.16H867.07V139.436H861.526V142.856C861.526 144.224 861.358 145.46 861.022 146.564C860.686 147.668 860.17 148.616 859.474 149.408C858.802 150.2 857.962 150.812 856.954 151.244C855.946 151.676 854.782 151.892 853.462 151.892C852.142 151.892 850.978 151.676 849.97 151.244C848.986 150.812 848.158 150.2 847.486 149.408C846.838 148.616 846.346 147.668 846.01 146.564C845.698 145.46 845.542 144.224 845.542 142.856V132.344C845.542 130.976 845.71 129.74 846.046 128.636C846.382 127.508 846.874 126.548 847.522 125.756C848.194 124.94 849.022 124.316 850.006 123.884C850.99 123.452 852.142 123.236 853.462 123.236C854.782 123.236 855.946 123.452 856.954 123.884C857.962 124.316 858.802 124.94 859.474 125.756C860.17 126.548 860.686 127.508 861.022 128.636C861.358 129.74 861.526 130.976 861.526 132.344V135.476H867.07V123.308H871.57ZM856.882 132.344C856.882 130.568 856.57 129.284 855.946 128.492C855.322 127.7 854.494 127.304 853.462 127.304C852.478 127.304 851.674 127.7 851.05 128.492C850.426 129.284 850.114 130.568 850.114 132.344V142.856C850.114 144.632 850.414 145.916 851.014 146.708C851.638 147.5 852.454 147.896 853.462 147.896C854.494 147.896 855.322 147.5 855.946 146.708C856.57 145.916 856.882 144.632 856.882 142.856V132.344ZM893.715 138.32V140.192H905.307V144.008H877.623V140.192H889.071V138.32H882.915C882.339 138.32 881.907 138.248 881.619 138.104C881.331 137.96 881.031 137.72 880.719 137.384L880.179 136.808C879.987 136.616 879.831 136.448 879.711 136.304C879.615 136.16 879.531 136.004 879.459 135.836C879.411 135.644 879.375 135.44 879.351 135.224C879.327 134.984 879.315 134.696 879.315 134.36V124.784C879.315 123.896 879.747 123.452 880.611 123.452H903.219V127.232H883.887V128.96H902.535V132.632H883.887V133.82C883.887 133.964 883.935 134.072 884.031 134.144L884.283 134.36C884.355 134.432 884.439 134.468 884.535 134.468H903.291V138.32H893.715ZM904.119 150.38V154.232H883.671C882.975 154.232 882.447 154.148 882.087 153.98C881.751 153.836 881.391 153.56 881.007 153.152L880.215 152.36C879.999 152.144 879.819 151.952 879.675 151.784C879.555 151.616 879.459 151.424 879.387 151.208C879.315 150.992 879.267 150.752 879.243 150.488C879.219 150.224 879.207 149.888 879.207 149.48V145.304H883.851V149.048C883.851 149.312 883.935 149.516 884.103 149.66L884.499 150.128C884.667 150.296 884.859 150.38 885.075 150.38H904.119ZM918.619 148.22C920.587 146.684 922.243 145.34 923.587 144.188C924.955 143.036 926.071 142.016 926.935 141.128C927.727 140.336 928.351 139.64 928.807 139.04C929.263 138.416 929.599 137.852 929.815 137.348C930.031 136.844 930.163 136.388 930.211 135.98C930.283 135.548 930.319 135.116 930.319 134.684V128.312H919.555V124.28H933.667C934.531 124.28 934.963 124.724 934.963 125.612V134.324C934.963 135.236 934.903 136.064 934.783 136.808C934.687 137.552 934.471 138.284 934.135 139.004C933.823 139.7 933.367 140.432 932.767 141.2C932.191 141.944 931.411 142.784 930.427 143.72C929.395 144.776 928.135 145.94 926.647 147.212C925.183 148.46 923.395 149.876 921.283 151.46L918.619 148.22ZM945.187 123.308V154.16H940.579V123.308H945.187ZM956.317 141.236C955.621 141.236 955.069 141.164 954.661 141.02C954.277 140.852 953.905 140.564 953.545 140.156L952.213 138.752C951.829 138.368 951.565 137.996 951.421 137.636C951.277 137.252 951.205 136.7 951.205 135.98V124.136H955.849V128.852H962.689V124.136H967.333V139.904C967.333 140.792 966.901 141.236 966.037 141.236H956.317ZM976.657 123.308V131.48H980.833V135.44H976.657V146.168H972.013V123.308H976.657ZM977.089 150.596V154.592H958.009C957.289 154.592 956.749 154.508 956.389 154.34C956.029 154.196 955.669 153.92 955.309 153.512L954.265 152.432C954.073 152.216 953.905 152.024 953.761 151.856C953.641 151.664 953.545 151.46 953.473 151.244C953.401 151.028 953.341 150.788 953.293 150.524C953.269 150.236 953.257 149.888 953.257 149.48V143.864H957.793V148.868C957.793 149.228 957.877 149.492 958.045 149.66L958.693 150.38C958.789 150.452 958.873 150.512 958.945 150.56C959.041 150.584 959.185 150.596 959.377 150.596H977.089ZM962.689 137.204V132.812H955.849V135.548C955.849 135.812 955.945 136.04 956.137 136.232L956.749 136.916C956.941 137.108 957.169 137.204 957.433 137.204H962.689ZM780.35 175.596H804.758V179.628H795.074V180.78C795.074 181.068 795.086 181.32 795.11 181.536C795.134 181.728 795.194 181.908 795.29 182.076C795.386 182.22 795.506 182.364 795.65 182.508C795.818 182.652 796.034 182.808 796.298 182.976C797.81 183.912 799.358 184.788 800.942 185.604C802.55 186.42 804.182 187.212 805.838 187.98L803.93 191.616C802.106 190.776 800.318 189.888 798.566 188.952C796.838 188.016 795.17 187.044 793.562 186.036C793.298 185.844 793.082 185.7 792.914 185.604C792.746 185.484 792.638 185.34 792.59 185.172C792.542 185.34 792.434 185.484 792.266 185.604C792.122 185.724 791.93 185.868 791.69 186.036C788.378 188.148 784.922 190.068 781.322 191.796L779.342 188.16C781.142 187.32 782.81 186.48 784.346 185.64C785.906 184.776 787.406 183.888 788.846 182.976C789.086 182.808 789.278 182.652 789.422 182.508C789.59 182.364 789.722 182.22 789.818 182.076C789.914 181.908 789.974 181.728 789.998 181.536C790.022 181.32 790.034 181.068 790.034 180.78V179.628H780.35V175.596ZM790.286 206.7V197.448H778.694V193.416H806.378V197.448H794.93V206.7H790.286ZM820.963 191.256C821.731 192.768 822.583 194.34 823.519 195.972C824.455 197.604 825.391 199.14 826.327 200.58L823.195 202.956C822.355 201.636 821.503 200.256 820.639 198.816C819.799 197.376 818.995 195.984 818.227 194.64C818.155 194.52 818.083 194.4 818.011 194.28C817.963 194.136 817.915 193.968 817.867 193.776C817.819 193.968 817.771 194.136 817.723 194.28C817.675 194.4 817.615 194.52 817.543 194.64C816.847 196.08 816.127 197.52 815.383 198.96C814.663 200.4 813.883 201.84 813.043 203.28L809.587 201.12C810.499 199.608 811.387 198.012 812.251 196.332C813.139 194.628 813.931 192.984 814.627 191.4C814.939 190.704 815.167 190.044 815.311 189.42C815.479 188.796 815.563 188.088 815.563 187.296V180.348H810.199V176.388H825.139V180.348H820.027V187.296C820.027 188.088 820.099 188.772 820.243 189.348C820.387 189.924 820.627 190.56 820.963 191.256ZM832.231 175.524V205.944H827.803V190.248H823.591V186.252H827.803V175.524H832.231ZM834.499 175.308H838.999V206.16H834.499V175.308ZM878.699 193.812H868.547V201.264H880.031V205.296H852.347V201.264H863.903V193.812H859.151C858.815 193.812 858.527 193.8 858.287 193.776C858.047 193.728 857.819 193.656 857.603 193.56C857.387 193.44 857.171 193.296 856.955 193.128C856.739 192.96 856.499 192.732 856.235 192.444L854.615 190.608C854.135 190.128 853.811 189.696 853.643 189.312C853.499 188.904 853.427 188.316 853.427 187.548V177.432C853.427 176.544 853.871 176.1 854.759 176.1H878.627V180.132H858.107V187.008C858.107 187.224 858.131 187.416 858.179 187.584C858.227 187.728 858.323 187.872 858.467 188.016L859.655 189.348C859.799 189.468 859.919 189.564 860.015 189.636C860.111 189.684 860.255 189.708 860.447 189.708H878.699V193.812ZM909.989 193.992C910.853 193.992 911.285 194.424 911.285 195.288V199.14C911.285 199.86 911.057 200.472 910.601 200.976C910.145 201.48 909.497 201.732 908.657 201.732H890.981V202.632C890.981 202.776 891.017 202.884 891.089 202.956L891.197 203.064C891.269 203.136 891.377 203.172 891.521 203.172H912.077V206.556H889.721C889.193 206.556 888.809 206.484 888.569 206.34C888.329 206.22 888.053 206.028 887.741 205.764L887.309 205.26C886.997 204.948 886.793 204.66 886.697 204.396C886.601 204.132 886.553 203.712 886.553 203.136V199.824C886.553 199.416 886.673 199.14 886.913 198.996C887.153 198.828 887.477 198.744 887.885 198.744H906.497C906.713 198.744 906.821 198.588 906.821 198.276V197.376H886.589V193.992H896.669V191.724H885.077V188.232H912.761V191.724H901.313V193.992H909.989ZM887.201 175.992H896.597V173.76H901.313V175.992H910.709V179.592H901.421C901.421 179.928 901.517 180.18 901.709 180.348C901.901 180.516 902.225 180.696 902.681 180.888C904.193 181.416 905.681 181.884 907.145 182.292C908.633 182.7 910.157 183.096 911.717 183.48L910.529 186.828C908.729 186.396 906.977 185.94 905.273 185.46C903.569 184.956 901.889 184.416 900.233 183.84C899.849 183.72 899.561 183.612 899.369 183.516C899.201 183.42 899.069 183.276 898.973 183.084C898.877 183.276 898.745 183.42 898.577 183.516C898.433 183.612 898.181 183.72 897.821 183.84C896.093 184.392 894.377 184.932 892.673 185.46C890.969 185.964 889.217 186.444 887.417 186.9L886.229 183.48C887.789 183.096 889.301 182.7 890.765 182.292C892.253 181.86 893.765 181.38 895.301 180.852C895.709 180.684 895.997 180.516 896.165 180.348C896.357 180.18 896.465 179.928 896.489 179.592H887.201V175.992Z" fill="black"/>
<path d="M740.317 589.58L748.561 580.94C749.185 580.268 749.797 579.596 750.397 578.924C751.021 578.228 751.573 577.532 752.053 576.836C752.533 576.14 752.917 575.432 753.205 574.712C753.517 573.992 753.673 573.248 753.673 572.48C753.673 571.952 753.565 571.46 753.349 571.004C753.157 570.548 752.893 570.152 752.557 569.816C752.221 569.48 751.813 569.216 751.333 569.024C750.853 568.832 750.349 568.736 749.821 568.736C748.669 568.736 747.721 569.096 746.977 569.816C746.233 570.536 745.753 571.46 745.537 572.588H740.569C740.689 571.412 740.989 570.332 741.469 569.348C741.949 568.364 742.573 567.524 743.341 566.828C744.133 566.132 745.057 565.592 746.113 565.208C747.193 564.8 748.381 564.596 749.677 564.596C751.141 564.596 752.425 564.788 753.529 565.172C754.657 565.556 755.593 566.096 756.337 566.792C757.105 567.488 757.681 568.316 758.065 569.276C758.449 570.236 758.641 571.292 758.641 572.444C758.641 573.356 758.473 574.256 758.137 575.144C757.825 576.008 757.405 576.86 756.877 577.7C756.373 578.54 755.797 579.356 755.149 580.148C754.501 580.94 753.841 581.696 753.169 582.416L746.509 589.22H758.965V593.36H741.505C740.713 593.36 740.317 592.952 740.317 592.136V589.58ZM764.26 588.572H768.724V593.36H764.26V588.572ZM792.497 578.924V569.348H787.781V565.388H813.449V569.348H808.805V578.924H813.449V582.884H787.781V578.924H792.497ZM814.493 589.652V593.684H786.665V589.652H814.493ZM797.105 578.924H804.161V569.348H797.105V578.924ZM825.478 576.872V579.86C825.478 579.98 825.478 580.076 825.478 580.148C825.502 580.22 825.562 580.28 825.658 580.328L825.982 580.688C826.078 580.784 826.15 580.844 826.198 580.868C826.27 580.868 826.342 580.868 826.414 580.868H846.43V584.828H835.738V590.264H847.222V594.296H819.538V590.264H831.094V584.828H824.614C824.014 584.828 823.57 584.756 823.282 584.612C823.018 584.468 822.718 584.228 822.382 583.892L821.77 583.28C821.434 582.92 821.206 582.596 821.086 582.308C820.966 581.996 820.906 581.516 820.906 580.868V574.208C820.906 573.416 821.35 573.02 822.238 573.02H840.562C840.922 573.02 841.102 572.84 841.102 572.48V569.096H820.942V565.136H844.378C845.242 565.136 845.674 565.556 845.674 566.396V574.28C845.674 576.008 844.798 576.872 843.046 576.872H825.478ZM861.916 573.632C862.612 574.472 863.38 575.288 864.22 576.08C865.06 576.848 865.936 577.688 866.848 578.6L864.076 581.444C863.164 580.556 862.276 579.68 861.412 578.816C860.548 577.952 859.756 577.1 859.036 576.26C858.94 576.164 858.868 576.08 858.82 576.008C858.772 575.936 858.736 575.828 858.712 575.684C858.664 575.876 858.544 576.068 858.352 576.26C857.68 577.1 856.876 578.048 855.94 579.104C855.004 580.136 854.092 581.132 853.204 582.092L850.144 579.464C851.032 578.552 851.944 577.58 852.88 576.548C853.84 575.492 854.704 574.508 855.472 573.596C855.88 573.092 856.144 572.636 856.264 572.228C856.384 571.796 856.444 571.232 856.444 570.536V568.844H851.224V564.848H866.236V568.808L860.908 568.844V570.536C860.908 571.232 860.956 571.796 861.052 572.228C861.172 572.636 861.46 573.104 861.916 573.632ZM879.808 595.808H875.164V587.708H854.932V583.712H878.512C879.376 583.712 879.808 584.168 879.808 585.08V595.808ZM873.184 564.524V582.236H868.792V574.208H864.22V570.356H868.792V564.524H873.184ZM879.808 564.308V582.452H875.38V564.308H879.808ZM911.494 580.868V584.828H891.082C890.746 584.828 890.446 584.816 890.182 584.792C889.942 584.744 889.714 584.672 889.498 584.576C889.282 584.48 889.066 584.348 888.85 584.18C888.658 584.012 888.43 583.796 888.166 583.532L887.482 582.812C887.242 582.548 887.038 582.308 886.87 582.092C886.726 581.876 886.606 581.66 886.51 581.444C886.438 581.204 886.378 580.952 886.33 580.688C886.306 580.4 886.294 580.064 886.294 579.68V566.468C886.294 565.58 886.726 565.136 887.59 565.136H911.206V569.096H890.938V573.02H910.27V576.872H890.938V579.32C890.938 579.56 891.01 579.764 891.154 579.932L891.802 580.58C891.922 580.772 892.126 580.868 892.414 580.868H911.494ZM912.79 589.652V593.684H884.962V589.652H912.79ZM782.406 647.808H777.798V639.492H758.214V635.532H781.146C781.986 635.532 782.406 635.976 782.406 636.864V647.808ZM763.866 616.488C765.138 616.488 766.266 616.692 767.25 617.1C768.258 617.484 769.11 618.024 769.806 618.72C770.502 619.392 771.03 620.196 771.39 621.132C771.774 622.068 771.966 623.076 771.966 624.156V625.524C771.966 626.604 771.774 627.612 771.39 628.548C771.03 629.46 770.502 630.264 769.806 630.96C769.11 631.656 768.258 632.208 767.25 632.616C766.266 633 765.138 633.192 763.866 633.192C762.594 633.192 761.442 633 760.41 632.616C759.402 632.208 758.55 631.656 757.854 630.96C757.158 630.264 756.618 629.46 756.234 628.548C755.874 627.612 755.694 626.604 755.694 625.524V624.156C755.694 623.076 755.874 622.068 756.234 621.132C756.618 620.196 757.158 619.392 757.854 618.72C758.55 618.024 759.402 617.484 760.41 617.1C761.442 616.692 762.594 616.488 763.866 616.488ZM767.502 624.228C767.502 623.124 767.178 622.2 766.53 621.456C765.882 620.712 764.994 620.34 763.866 620.34C762.714 620.34 761.826 620.712 761.202 621.456C760.578 622.2 760.266 623.124 760.266 624.228V625.452C760.266 626.532 760.578 627.444 761.202 628.188C761.826 628.932 762.714 629.304 763.866 629.304C764.994 629.304 765.882 628.932 766.53 628.188C767.178 627.444 767.502 626.532 767.502 625.452V624.228ZM782.406 616.308V633.732H777.87V630.384H773.334V626.46H777.87V623.652H773.334V619.764H777.87V616.308H782.406ZM813.875 639.42C813.875 640.26 813.635 640.956 813.155 641.508C812.675 642.06 812.015 642.336 811.175 642.336H795.875V643.344C795.875 643.488 795.923 643.608 796.019 643.704L796.091 643.848C796.163 643.896 796.271 643.92 796.415 643.92H814.415V647.592H794.975C794.351 647.592 793.907 647.52 793.643 647.376C793.379 647.232 793.079 646.992 792.743 646.656L792.203 646.08C791.867 645.696 791.639 645.36 791.519 645.072C791.399 644.784 791.339 644.304 791.339 643.632V640.248C791.339 639.864 791.471 639.576 791.735 639.384C791.999 639.192 792.335 639.096 792.743 639.096H808.979C809.243 639.096 809.375 638.964 809.375 638.7V637.548H791.339V633.948H812.507C813.419 633.948 813.875 634.356 813.875 635.172V639.42ZM805.271 627.324C805.271 628.02 805.139 628.668 804.875 629.268C804.611 629.868 804.203 630.396 803.651 630.852C803.123 631.284 802.451 631.632 801.635 631.896C800.819 632.16 799.859 632.292 798.755 632.292H795.911C794.807 632.292 793.847 632.172 793.031 631.932C792.215 631.668 791.531 631.32 790.979 630.888C790.451 630.432 790.055 629.904 789.791 629.304C789.527 628.704 789.395 628.056 789.395 627.36C789.395 625.992 789.923 624.84 790.979 623.904C792.059 622.968 793.703 622.5 795.911 622.5H798.755C799.859 622.5 800.819 622.632 801.635 622.896C802.451 623.136 803.123 623.472 803.651 623.904C804.203 624.336 804.611 624.852 804.875 625.452C805.139 626.028 805.271 626.652 805.271 627.324ZM813.875 616.308V622.356H818.051V626.28H813.875V632.436H809.231V616.308H813.875ZM787.775 621.24V617.676H795.011V615.192H799.619V617.676H806.711V621.24H787.775ZM798.683 628.836C799.451 628.836 799.991 628.704 800.303 628.44C800.615 628.176 800.771 627.816 800.771 627.36C800.771 626.928 800.615 626.592 800.303 626.352C799.991 626.088 799.451 625.956 798.683 625.956H795.983C795.215 625.956 794.675 626.088 794.363 626.352C794.051 626.592 793.895 626.928 793.895 627.36C793.895 627.816 794.051 628.176 794.363 628.44C794.675 628.704 795.215 628.836 795.983 628.836H798.683ZM855.195 616.452V628.008C855.195 628.92 854.763 629.376 853.899 629.376H834.783C834.303 629.376 833.895 629.304 833.559 629.16C833.247 629.016 832.863 628.68 832.407 628.152L831.867 627.576C831.651 627.336 831.471 627.132 831.327 626.964C831.207 626.772 831.099 626.592 831.003 626.424C830.931 626.232 830.883 626.04 830.859 625.848C830.835 625.632 830.823 625.368 830.823 625.056V616.452H835.431V619.044H850.551V616.452H855.195ZM841.371 640.608V635.532H829.311V631.5H856.995V635.532H846.051V640.608H841.371ZM855.807 643.236V647.232H835.359C834.663 647.232 834.135 647.148 833.775 646.98C833.439 646.836 833.079 646.56 832.695 646.152L831.903 645.36C831.687 645.144 831.507 644.952 831.363 644.784C831.243 644.616 831.147 644.424 831.075 644.208C831.003 643.992 830.955 643.752 830.931 643.488C830.907 643.224 830.895 642.888 830.895 642.48V637.584H835.539V641.904C835.539 642.168 835.623 642.384 835.791 642.552L836.187 643.02C836.355 643.164 836.547 643.236 836.763 643.236H855.807ZM850.551 625.416V622.896H835.431V624.264C835.431 624.48 835.503 624.66 835.647 624.804L836.043 625.2C836.115 625.344 836.283 625.416 836.547 625.416H850.551ZM887.493 616.308V622.356H891.669V626.28H887.493V633.048H882.885V616.308H887.493ZM879.357 632.112H867.369C866.625 632.112 866.049 632.028 865.641 631.86C865.257 631.692 864.873 631.404 864.489 630.996L863.193 629.664C862.809 629.256 862.545 628.86 862.401 628.476C862.257 628.068 862.185 627.516 862.185 626.82V618.072C862.185 617.16 862.617 616.704 863.481 616.704H878.097V620.628H866.865V626.388C866.865 626.58 866.877 626.724 866.901 626.82C866.949 626.892 867.021 626.988 867.117 627.108L867.873 627.936C868.017 628.08 868.233 628.152 868.521 628.152H879.357V632.112ZM882.921 643.56V638.736H868.521V643.56H882.921ZM885.765 634.776C886.317 634.776 886.737 634.932 887.025 635.244C887.337 635.532 887.493 635.94 887.493 636.468V645.648C887.493 646.2 887.337 646.656 887.025 647.016C886.737 647.376 886.317 647.556 885.765 647.556H865.641C865.113 647.556 864.693 647.376 864.381 647.016C864.069 646.656 863.913 646.2 863.913 645.648V636.468C863.913 635.94 864.069 635.532 864.381 635.244C864.693 634.932 865.113 634.776 865.641 634.776H885.765Z" fill="white"/>
<path d="M290.667 584.792L301.935 565.136H305.607C306.495 565.136 306.939 565.58 306.939 566.468V584.108H310.575V588.212H306.939V593.36H301.935V588.212H291.999C291.111 588.212 290.667 587.768 290.667 586.88V584.792ZM295.815 584.108H301.935V572.948L295.815 584.108ZM315.578 588.572H320.042V593.36H315.578V588.572ZM346.179 564.524V575.936H349.095V564.308H353.595V595.16H349.095V579.752H346.179V594.944H341.787V564.524H346.179ZM332.751 574.028C334.839 574.028 336.411 574.688 337.467 576.008C338.547 577.328 339.087 579.14 339.087 581.444V585.728C339.087 588.032 338.547 589.856 337.467 591.2C336.411 592.52 334.839 593.18 332.751 593.18C330.639 593.18 329.043 592.52 327.963 591.2C326.883 589.856 326.343 588.032 326.343 585.728V581.444C326.343 579.14 326.883 577.328 327.963 576.008C329.043 574.688 330.639 574.028 332.751 574.028ZM325.227 572.408V568.34H330.447V564.56H335.091V568.34H340.095V572.408H325.227ZM334.623 581.444C334.623 580.22 334.443 579.344 334.083 578.816C333.747 578.264 333.303 577.988 332.751 577.988C332.151 577.988 331.683 578.264 331.347 578.816C331.035 579.344 330.879 580.22 330.879 581.444V585.728C330.879 586.952 331.035 587.84 331.347 588.392C331.683 588.92 332.151 589.184 332.751 589.184C333.303 589.184 333.747 588.92 334.083 588.392C334.443 587.84 334.623 586.952 334.623 585.728V581.444ZM358.893 589.22C360.861 587.684 362.529 586.34 363.897 585.188C365.265 584.036 366.369 583.004 367.209 582.092C368.145 581.084 368.853 580.232 369.333 579.536C369.813 578.816 370.149 578.18 370.341 577.628C370.005 577.892 369.549 578.108 368.973 578.276C368.397 578.444 367.689 578.528 366.849 578.528H359.325V574.604H368.361C368.913 574.604 369.369 574.592 369.729 574.568C370.113 574.544 370.413 574.472 370.629 574.352V569.312H359.829V565.28H373.941C374.805 565.28 375.237 565.724 375.237 566.612V575.792H380.925V564.308H385.533V595.16H380.925V579.824H374.301C373.941 580.616 373.461 581.42 372.861 582.236C372.285 583.028 371.565 583.856 370.701 584.72C369.621 585.8 368.313 587 366.777 588.32C365.241 589.616 363.501 590.996 361.557 592.46L358.893 589.22ZM407.678 579.32V581.192H419.27V585.008H391.586V581.192H403.034V579.32H396.878C396.302 579.32 395.87 579.248 395.582 579.104C395.294 578.96 394.994 578.72 394.682 578.384L394.142 577.808C393.95 577.616 393.794 577.448 393.674 577.304C393.578 577.16 393.494 577.004 393.422 576.836C393.374 576.644 393.338 576.44 393.314 576.224C393.29 575.984 393.278 575.696 393.278 575.36V565.784C393.278 564.896 393.71 564.452 394.574 564.452H417.182V568.232H397.85V569.96H416.498V573.632H397.85V574.82C397.85 574.964 397.898 575.072 397.994 575.144L398.246 575.36C398.318 575.432 398.402 575.468 398.498 575.468H417.254V579.32H407.678ZM418.082 591.38V595.232H397.634C396.938 595.232 396.41 595.148 396.05 594.98C395.714 594.836 395.354 594.56 394.97 594.152L394.178 593.36C393.962 593.144 393.782 592.952 393.638 592.784C393.518 592.616 393.422 592.424 393.35 592.208C393.278 591.992 393.23 591.752 393.206 591.488C393.182 591.224 393.17 590.888 393.17 590.48V586.304H397.814V590.048C397.814 590.312 397.898 590.516 398.066 590.66L398.462 591.128C398.63 591.296 398.822 591.38 399.038 591.38H418.082ZM443.814 569.024V571.184C443.814 571.808 443.874 572.336 443.994 572.768C444.114 573.176 444.342 573.548 444.678 573.884C445.062 574.268 445.506 574.7 446.01 575.18C446.538 575.66 447.09 576.152 447.666 576.656C448.242 577.16 448.83 577.664 449.43 578.168C450.03 578.648 450.594 579.092 451.122 579.5L448.602 582.704C448.026 582.296 447.426 581.84 446.802 581.336C446.202 580.808 445.602 580.28 445.002 579.752C444.426 579.224 443.874 578.708 443.346 578.204C442.818 577.676 442.374 577.208 442.014 576.8C441.894 576.656 441.774 576.512 441.654 576.368C441.558 576.224 441.486 576.068 441.438 575.9C441.39 576.068 441.306 576.224 441.186 576.368C441.066 576.512 440.958 576.656 440.862 576.8C440.478 577.208 440.022 577.676 439.494 578.204C438.966 578.732 438.402 579.272 437.802 579.824C437.202 580.352 436.59 580.88 435.966 581.408C435.366 581.936 434.79 582.416 434.238 582.848L431.574 579.716C432.126 579.26 432.702 578.78 433.302 578.276C433.902 577.772 434.478 577.268 435.03 576.764C435.606 576.236 436.146 575.732 436.65 575.252C437.178 574.748 437.646 574.28 438.054 573.848C438.414 573.464 438.654 573.08 438.774 572.696C438.894 572.312 438.954 571.808 438.954 571.184V569.024H432.438V565.136H450.258V569.024H443.814ZM459.834 591.596V595.592H439.89C439.146 595.592 438.594 595.508 438.234 595.34C437.874 595.196 437.514 594.92 437.154 594.512L436.218 593.54C436.026 593.324 435.858 593.132 435.714 592.964C435.594 592.772 435.498 592.568 435.426 592.352C435.354 592.136 435.294 591.896 435.246 591.632C435.222 591.344 435.21 590.996 435.21 590.588V584.432H439.818V589.976C439.818 590.336 439.902 590.6 440.07 590.768L440.61 591.38C440.706 591.452 440.79 591.512 440.862 591.56C440.958 591.584 441.102 591.596 441.294 591.596H459.834ZM459.15 564.308V587.168H454.542V564.308H459.15ZM475.428 595.664C472.932 595.664 471.096 595.136 469.92 594.08C468.744 593.048 468.156 591.728 468.156 590.12C468.156 589.304 468.3 588.56 468.588 587.888C468.876 587.192 469.32 586.604 469.92 586.124C470.52 585.62 471.276 585.236 472.188 584.972C473.1 584.684 474.18 584.54 475.428 584.54H486.048C487.272 584.54 488.34 584.684 489.252 584.972C490.164 585.236 490.92 585.62 491.52 586.124C492.12 586.604 492.564 587.192 492.852 587.888C493.164 588.56 493.32 589.304 493.32 590.12C493.32 591.728 492.72 593.048 491.52 594.08C490.344 595.136 488.52 595.664 486.048 595.664H475.428ZM485.616 564.524V571.616H488.316V564.308H492.744V583.496H488.316V575.468H485.616V582.776H481.224V564.524H485.616ZM478.956 577.268C478.956 577.988 478.824 578.696 478.56 579.392C478.296 580.064 477.9 580.664 477.372 581.192C476.844 581.696 476.172 582.116 475.356 582.452C474.564 582.764 473.616 582.92 472.512 582.92H471.72C470.616 582.92 469.656 582.764 468.84 582.452C468.024 582.14 467.352 581.732 466.824 581.228C466.296 580.7 465.9 580.1 465.636 579.428C465.372 578.732 465.24 578.024 465.24 577.304C465.24 576.584 465.372 575.888 465.636 575.216C465.9 574.52 466.296 573.92 466.824 573.416C467.352 572.888 468.024 572.468 468.84 572.156C469.656 571.82 470.616 571.652 471.72 571.652H472.512C473.616 571.652 474.564 571.82 475.356 572.156C476.172 572.468 476.844 572.888 477.372 573.416C477.9 573.92 478.296 574.508 478.56 575.18C478.824 575.852 478.956 576.548 478.956 577.268ZM464.016 570.356V566.648H469.632V563.696H474.24V566.648H479.712V570.356H464.016ZM486.12 591.92C486.96 591.92 487.608 591.764 488.064 591.452C488.52 591.14 488.748 590.696 488.748 590.12C488.748 589.52 488.52 589.064 488.064 588.752C487.608 588.44 486.96 588.284 486.12 588.284H475.356C474.516 588.284 473.868 588.44 473.412 588.752C472.956 589.064 472.728 589.52 472.728 590.12C472.728 590.696 472.956 591.14 473.412 591.452C473.868 591.764 474.516 591.92 475.356 591.92H486.12ZM472.548 579.464C473.172 579.464 473.7 579.272 474.132 578.888C474.564 578.504 474.78 577.976 474.78 577.304C474.78 576.632 474.564 576.104 474.132 575.72C473.7 575.312 473.172 575.108 472.548 575.108H471.684C471.012 575.108 470.472 575.312 470.064 575.72C469.656 576.104 469.452 576.632 469.452 577.304C469.452 577.976 469.656 578.504 470.064 578.888C470.472 579.272 471.012 579.464 471.684 579.464H472.548Z" fill="white"/>
<rect y="7.25195" width="163.074" height="97.4964" fill="#FFE697"/>
<path d="M226 56L162.853 104.497L162.853 7.50258L226 56Z" fill="#FFE697"/>
<path d="M74.1111 49.367H58.1901V46.235H76.8081C77.4848 46.235 77.8231 46.612 77.8231 47.366V50.817C77.8231 51.3777 77.8038 51.8417 77.7651 52.209C77.7458 52.5763 77.6878 52.9243 77.5911 53.253C77.5138 53.5623 77.3881 53.9007 77.2141 54.268C77.0595 54.616 76.8468 55.0607 76.5761 55.602L73.1541 54.819C73.3668 54.3743 73.5311 53.9973 73.6471 53.688C73.7825 53.3593 73.8791 53.0597 73.9371 52.789C74.0145 52.499 74.0628 52.209 74.0821 51.919C74.1015 51.629 74.1111 51.281 74.1111 50.875V49.367ZM68.8911 52.18V56.646H79.1281V59.778H56.8271V56.646H65.1211V52.18H68.8911ZM71.7331 61.373C72.8931 61.373 73.8791 61.4987 74.6911 61.75C75.5225 61.982 76.2088 62.3203 76.7501 62.765C77.2915 63.1903 77.6878 63.7027 77.9391 64.302C78.1905 64.882 78.3161 65.5103 78.3161 66.187C78.3161 66.883 78.1905 67.521 77.9391 68.101C77.6878 68.681 77.2915 69.1837 76.7501 69.609C76.2088 70.0537 75.5225 70.392 74.6911 70.624C73.8791 70.8753 72.8931 71.001 71.7331 71.001H64.2221C63.0621 71.001 62.0665 70.8753 61.2351 70.624C60.4231 70.392 59.7465 70.0537 59.2051 69.609C58.6831 69.1837 58.2965 68.681 58.0451 68.101C57.7938 67.521 57.6681 66.883 57.6681 66.187C57.6681 65.5103 57.7938 64.882 58.0451 64.302C58.2965 63.7027 58.6831 63.1903 59.2051 62.765C59.7465 62.3203 60.4231 61.982 61.2351 61.75C62.0665 61.4987 63.0621 61.373 64.2221 61.373H71.7331ZM71.8781 67.898C72.8448 67.898 73.5118 67.724 73.8791 67.376C74.2465 67.028 74.4301 66.6317 74.4301 66.187C74.4301 65.7423 74.2465 65.346 73.8791 64.998C73.5118 64.65 72.8448 64.476 71.8781 64.476H64.0481C63.5648 64.476 63.1588 64.5243 62.8301 64.621C62.5208 64.7177 62.2695 64.8433 62.0761 64.998C61.9021 65.1527 61.7765 65.3363 61.6991 65.549C61.6218 65.7423 61.5831 65.955 61.5831 66.187C61.5831 66.419 61.6218 66.6413 61.6991 66.854C61.7765 67.0473 61.9021 67.2213 62.0761 67.376C62.2695 67.5307 62.5208 67.6563 62.8301 67.753C63.1588 67.8497 63.5648 67.898 64.0481 67.898H71.8781ZM100.506 49.367H84.5846V46.235H103.203C103.879 46.235 104.218 46.612 104.218 47.366V50.817C104.218 51.3777 104.198 51.8417 104.16 52.209C104.14 52.5763 104.082 52.9243 103.986 53.253C103.908 53.5623 103.783 53.9007 103.609 54.268C103.454 54.616 103.241 55.0607 102.971 55.602L99.5487 54.819C99.7613 54.3743 99.9257 53.9973 100.042 53.688C100.177 53.3593 100.274 53.0597 100.332 52.789C100.409 52.499 100.457 52.209 100.477 51.919C100.496 51.629 100.506 51.281 100.506 50.875V49.367ZM95.2857 52.18V56.646H105.523V59.778H83.2216V56.646H91.5156V52.18H95.2857ZM98.1277 61.373C99.2877 61.373 100.274 61.4987 101.086 61.75C101.917 61.982 102.603 62.3203 103.145 62.765C103.686 63.1903 104.082 63.7027 104.334 64.302C104.585 64.882 104.711 65.5103 104.711 66.187C104.711 66.883 104.585 67.521 104.334 68.101C104.082 68.681 103.686 69.1837 103.145 69.609C102.603 70.0537 101.917 70.392 101.086 70.624C100.274 70.8753 99.2877 71.001 98.1277 71.001H90.6167C89.4566 71.001 88.461 70.8753 87.6296 70.624C86.8176 70.392 86.141 70.0537 85.5996 69.609C85.0776 69.1837 84.691 68.681 84.4396 68.101C84.1883 67.521 84.0626 66.883 84.0626 66.187C84.0626 65.5103 84.1883 64.882 84.4396 64.302C84.691 63.7027 85.0776 63.1903 85.5996 62.765C86.141 62.3203 86.8176 61.982 87.6296 61.75C88.461 61.4987 89.4566 61.373 90.6167 61.373H98.1277ZM98.2727 67.898C99.2393 67.898 99.9063 67.724 100.274 67.376C100.641 67.028 100.825 66.6317 100.825 66.187C100.825 65.7423 100.641 65.346 100.274 64.998C99.9063 64.65 99.2393 64.476 98.2727 64.476H90.4426C89.9593 64.476 89.5533 64.5243 89.2246 64.621C88.9153 64.7177 88.664 64.8433 88.4707 64.998C88.2966 65.1527 88.171 65.3363 88.0936 65.549C88.0163 65.7423 87.9776 65.955 87.9776 66.187C87.9776 66.419 88.0163 66.6413 88.0936 66.854C88.171 67.0473 88.2966 67.2213 88.4707 67.376C88.664 67.5307 88.9153 67.6563 89.2246 67.753C89.5533 67.8497 89.9593 67.898 90.4426 67.898H98.2727Z" fill="black"/>
<rect y="133.252" width="163.074" height="97.4964" fill="#FFE697"/>
<path d="M226 182L162.853 230.497L162.853 133.503L226 182Z" fill="#FFE697"/>
<path d="M47.8058 184.966V189.461C47.8058 189.732 47.9121 189.973 48.1248 190.186L48.9658 191.259C49.1398 191.452 49.3524 191.549 49.6038 191.549H58.1588V194.768H48.7048C48.1248 194.768 47.6704 194.71 47.3418 194.594C47.0324 194.478 46.6844 194.207 46.2978 193.782L44.9348 192.129C44.7608 191.936 44.6158 191.762 44.4998 191.607C44.4031 191.452 44.3161 191.288 44.2388 191.114C44.1808 190.94 44.1421 190.737 44.1228 190.505C44.1034 190.273 44.0938 189.983 44.0938 189.635V182.82C44.0938 182.163 44.4321 181.834 45.1088 181.834H52.7068C52.9968 181.834 53.1418 181.689 53.1418 181.399V175.773H44.1518V172.583H55.8388C56.5348 172.583 56.8828 172.941 56.8828 173.656V182.878C56.8828 184.27 56.1771 184.966 54.7658 184.966H47.8058ZM65.1478 171.887V196.74H61.4358V171.887H65.1478ZM74.5483 194.768C73.9683 194.768 73.514 194.71 73.1853 194.594C72.8566 194.478 72.5086 194.207 72.1413 193.782L70.7783 192.274C70.6043 192.081 70.4593 191.907 70.3433 191.752C70.2273 191.597 70.1403 191.433 70.0823 191.259C70.0243 191.066 69.976 190.863 69.9373 190.65C69.918 190.418 69.9083 190.128 69.9083 189.78V173.83C69.9083 173.115 70.2563 172.757 70.9523 172.757H80.3483V175.889H73.6493V181.718H78.8693V184.792H73.6493V189.548C73.6493 189.819 73.7556 190.06 73.9683 190.273L74.8673 191.317C75.08 191.51 75.2926 191.607 75.5053 191.607H81.0443V194.768H74.5483ZM86.7573 172.061V196.566H83.1903V184.589H80.3193V181.37H83.1903V172.061H86.7573ZM88.5843 171.887H92.2093V196.74H88.5843V171.887ZM117.937 171.887V183.951H114.225V171.887H117.937ZM102.364 192.535V193.492C102.364 193.627 102.402 193.724 102.48 193.782L102.567 193.898C102.605 193.956 102.683 193.985 102.799 193.985H118.43V197.088H101.581C101.078 197.088 100.72 197.03 100.508 196.914C100.295 196.798 100.053 196.605 99.7828 196.334L99.3478 195.87C99.0771 195.561 98.8935 195.29 98.7968 195.058C98.7001 194.826 98.6518 194.439 98.6518 193.898V190.708C98.6518 190.399 98.7581 190.167 98.9708 190.012C99.1835 189.838 99.4541 189.751 99.7828 189.751H113.935C114.167 189.751 114.283 189.654 114.283 189.461V188.417H98.6518V185.343H116.864C117.579 185.343 117.937 185.672 117.937 186.329V190.186C117.937 190.863 117.753 191.423 117.386 191.868C117.018 192.313 116.487 192.535 115.791 192.535H102.364ZM103.234 171.597C104.297 171.597 105.244 171.761 106.076 172.09C106.907 172.399 107.603 172.825 108.164 173.366C108.724 173.907 109.15 174.536 109.44 175.251C109.749 175.947 109.904 176.682 109.904 177.455V178.006C109.904 178.76 109.749 179.495 109.44 180.21C109.15 180.906 108.724 181.525 108.164 182.066C107.603 182.607 106.907 183.042 106.076 183.371C105.244 183.7 104.297 183.864 103.234 183.864C102.132 183.864 101.165 183.7 100.334 183.371C99.5025 183.042 98.8065 182.607 98.2458 182.066C97.6851 181.525 97.2598 180.906 96.9698 180.21C96.6991 179.495 96.5638 178.76 96.5638 178.006V177.455C96.5638 176.682 96.6991 175.947 96.9698 175.251C97.2598 174.536 97.6851 173.907 98.2458 173.366C98.8065 172.825 99.5025 172.399 100.334 172.09C101.165 171.761 102.132 171.597 103.234 171.597ZM106.279 177.455C106.279 177.126 106.211 176.798 106.076 176.469C105.96 176.14 105.766 175.85 105.496 175.599C105.244 175.328 104.925 175.116 104.539 174.961C104.171 174.806 103.736 174.729 103.234 174.729C102.731 174.729 102.286 174.806 101.9 174.961C101.513 175.116 101.194 175.328 100.943 175.599C100.691 175.85 100.498 176.14 100.363 176.469C100.247 176.798 100.189 177.126 100.189 177.455V178.006C100.189 178.335 100.247 178.663 100.363 178.992C100.498 179.321 100.691 179.62 100.943 179.891C101.194 180.142 101.513 180.345 101.9 180.5C102.286 180.655 102.731 180.732 103.234 180.732C103.736 180.732 104.171 180.655 104.539 180.5C104.925 180.345 105.244 180.142 105.496 179.891C105.766 179.62 105.96 179.321 106.076 178.992C106.211 178.663 106.279 178.335 106.279 178.006V177.455Z" fill="black"/>
<rect y="259.252" width="163.074" height="97.4964" fill="#FFE697"/>
<path d="M226 308L162.853 356.497L162.853 259.503L226 308Z" fill="#FFE697"/>
<path d="M76.5761 313.46C77.0208 313.46 77.3591 313.586 77.5911 313.837C77.8425 314.069 77.9681 314.398 77.9681 314.823V321.406C77.9681 321.831 77.8425 322.17 77.5911 322.421C77.3591 322.672 77.0208 322.798 76.5761 322.798H59.4081C58.9635 322.798 58.6155 322.672 58.3641 322.421C58.1321 322.17 58.0161 321.831 58.0161 321.406V314.823C58.0161 314.398 58.1321 314.069 58.3641 313.837C58.6155 313.586 58.9635 313.46 59.4081 313.46H76.5761ZM56.8271 310.966V307.834H72.9511C73.2025 307.409 73.3958 307.051 73.5311 306.761C73.6858 306.471 73.8018 306.21 73.8791 305.978C73.9565 305.746 74.0048 305.524 74.0241 305.311C74.0435 305.098 74.0531 304.857 74.0531 304.586V301.57H58.2481V298.409H76.7501C77.4268 298.409 77.7651 298.776 77.7651 299.511V304.238C77.7651 304.663 77.7555 305.021 77.7361 305.311C77.7168 305.601 77.6781 305.872 77.6201 306.123C77.5621 306.355 77.4655 306.606 77.3301 306.877C77.1948 307.128 77.0111 307.447 76.7791 307.834H79.1281V310.966H56.8271ZM74.3431 319.666V316.563H61.6411V319.666H74.3431ZM84.0626 318.448C84.0626 317.327 84.3913 316.389 85.0486 315.635C85.7253 314.881 86.808 314.369 88.2966 314.098V312.039H83.2216V308.878H105.523V312.039H100.506V314.098C101.956 314.369 103.019 314.891 103.696 315.664C104.372 316.418 104.711 317.346 104.711 318.448C104.711 319.821 104.189 320.923 103.145 321.754C102.101 322.585 100.428 323.001 98.1277 323.001H90.6167C88.316 323.001 86.6436 322.585 85.5996 321.754C84.575 320.923 84.0626 319.821 84.0626 318.448ZM97.8667 297.829C100.167 297.829 101.859 298.283 102.942 299.192C104.024 300.081 104.566 301.232 104.566 302.643C104.566 303.339 104.43 303.987 104.16 304.586C103.908 305.166 103.502 305.669 102.942 306.094C102.4 306.5 101.704 306.829 100.854 307.08C100.022 307.312 99.0267 307.428 97.8667 307.428H90.9066C89.766 307.428 88.7703 307.312 87.9196 307.08C87.0883 306.829 86.3923 306.5 85.8316 306.094C85.2903 305.669 84.8843 305.166 84.6136 304.586C84.3623 303.987 84.2366 303.339 84.2366 302.643C84.2366 301.947 84.3623 301.309 84.6136 300.729C84.8843 300.13 85.2903 299.617 85.8316 299.192C86.3923 298.767 87.0883 298.438 87.9196 298.206C88.7703 297.955 89.766 297.829 90.9066 297.829H97.8667ZM98.0116 304.267C98.9976 304.267 99.684 304.122 100.071 303.832C100.477 303.523 100.68 303.126 100.68 302.643C100.68 302.16 100.477 301.763 100.071 301.454C99.684 301.145 98.9976 300.99 98.0116 300.99H90.7616C89.7756 300.99 89.0796 301.145 88.6736 301.454C88.287 301.763 88.0936 302.16 88.0936 302.643C88.0936 303.126 88.287 303.523 88.6736 303.832C89.0796 304.122 89.7756 304.267 90.7616 304.267H98.0116ZM98.2727 319.898C99.2393 319.898 99.9063 319.772 100.274 319.521C100.641 319.27 100.825 318.912 100.825 318.448C100.825 318.003 100.641 317.655 100.274 317.404C99.9063 317.133 99.2393 316.998 98.2727 316.998H90.4426C89.476 316.998 88.8187 317.133 88.4707 317.404C88.142 317.655 87.9776 318.003 87.9776 318.448C87.9776 318.912 88.142 319.27 88.4707 319.521C88.8187 319.772 89.476 319.898 90.4426 319.898H98.2727ZM92.0087 313.895H96.7937V312.039H92.0087V313.895Z" fill="black"/>
<rect y="385.252" width="163.074" height="97.4964" fill="#FFE697"/>
<path d="M226 434L162.853 482.497L162.853 385.503L226 434Z" fill="#FFE697"/>
<path d="M65.1376 433.805V444.622H67.4866V433.805H71.2276V444.622H79.2316V447.87H56.9306V444.622H61.3966V433.805H65.1376ZM78.1876 435.835C78.1876 436.473 78.178 437.005 78.1586 437.43C78.1393 437.836 78.0813 438.242 77.9846 438.648C77.9073 439.035 77.7816 439.46 77.6076 439.924C77.453 440.388 77.221 440.978 76.9116 441.693L73.4896 440.997C73.7023 440.456 73.8666 439.982 73.9826 439.576C74.118 439.17 74.2146 438.783 74.2726 438.416C74.35 438.049 74.3983 437.672 74.4176 437.285C74.437 436.879 74.4466 436.415 74.4466 435.893V428.092H58.0616V424.786H77.1146C77.83 424.786 78.1876 425.153 78.1876 425.888V435.835ZM104.379 449.262H100.696V443.694H84.3692V440.562H88.4002V438.242H83.3252V435.11H105.626V438.242H100.609V440.562H103.364C104.041 440.562 104.379 440.92 104.379 441.635V449.262ZM97.9702 423.858C99.1495 423.858 100.155 423.984 100.986 424.235C101.837 424.486 102.533 424.834 103.074 425.279C103.615 425.704 104.012 426.217 104.263 426.816C104.534 427.415 104.669 428.063 104.669 428.759C104.669 429.455 104.534 430.103 104.263 430.702C104.012 431.301 103.615 431.823 103.074 432.268C102.533 432.693 101.837 433.032 100.986 433.283C100.155 433.534 99.1495 433.66 97.9702 433.66H91.0102C89.8502 433.66 88.8448 433.534 87.9942 433.283C87.1628 433.032 86.4765 432.693 85.9352 432.268C85.3938 431.823 84.9878 431.301 84.7172 430.702C84.4658 430.103 84.3402 429.455 84.3402 428.759C84.3402 428.063 84.4658 427.415 84.7172 426.816C84.9878 426.217 85.3938 425.704 85.9352 425.279C86.4765 424.834 87.1628 424.486 87.9942 424.235C88.8448 423.984 89.8502 423.858 91.0102 423.858H97.9702ZM98.1152 430.499C99.1012 430.499 99.7875 430.335 100.174 430.006C100.58 429.677 100.783 429.262 100.783 428.759C100.783 428.276 100.58 427.87 100.174 427.541C99.7875 427.193 99.1012 427.019 98.1152 427.019H90.8652C89.8792 427.019 89.1832 427.193 88.7772 427.541C88.3905 427.87 88.1972 428.276 88.1972 428.759C88.1972 429.262 88.3905 429.677 88.7772 430.006C89.1832 430.335 89.8792 430.499 90.8652 430.499H98.1152ZM92.1122 440.562H96.8972V438.242H92.1122V440.562Z" fill="black"/>
<rect y="511.252" width="163.074" height="97.4964" fill="#FFE697"/>
<path d="M226 560L162.853 608.497L162.853 511.503L226 560Z" fill="#FFE697"/>
<path d="M35.397 570.303V573.551H12.98V570.303H35.397ZM27.074 556.818C28.3693 557.978 29.7323 559.119 31.163 560.24C32.613 561.361 34.034 562.425 35.426 563.43L33.251 566.214C31.743 565.073 30.264 563.913 28.814 562.734C27.364 561.535 26.001 560.356 24.725 559.196C24.609 559.08 24.5026 558.974 24.406 558.877C24.3286 558.78 24.261 558.664 24.203 558.529C24.145 558.664 24.0773 558.78 24 558.877C23.942 558.974 23.855 559.08 23.739 559.196C22.405 560.395 21.0323 561.584 19.621 562.763C18.229 563.942 16.7983 565.083 15.329 566.185L13.096 563.43C14.488 562.405 15.88 561.342 17.272 560.24C18.664 559.119 19.998 557.968 21.274 556.789C21.68 556.441 21.9603 556.083 22.115 555.716C22.2696 555.349 22.347 554.885 22.347 554.324V550.467H26.088V554.324C26.088 554.885 26.1363 555.349 26.233 555.716C26.349 556.083 26.6293 556.451 27.074 556.818ZM59.9065 549.887V559.196H63.2705V562.444H59.9065V574.74H56.1655V549.887H59.9065ZM44.4495 572.739C44.1208 572.739 43.8405 572.729 43.6085 572.71C43.3958 572.671 43.1928 572.613 42.9995 572.536C42.8255 572.459 42.6515 572.352 42.4775 572.217C42.3035 572.082 42.1102 571.898 41.8975 571.666L40.4475 570.1C40.2542 569.887 40.0995 569.694 39.9835 569.52C39.8675 569.346 39.7708 569.172 39.6935 568.998C39.6355 568.805 39.5872 568.582 39.5485 568.331C39.5292 568.08 39.5195 567.78 39.5195 567.432V551.656C39.5195 550.941 39.8675 550.583 40.5635 550.583H51.4385C52.1345 550.583 52.4825 550.941 52.4825 551.656V571.637C52.4825 572.372 52.1345 572.739 51.4385 572.739H44.4495ZM48.7415 569.462V553.831H43.2605V567.2C43.2605 567.374 43.2798 567.519 43.3185 567.635C43.3572 567.751 43.4442 567.886 43.5795 568.041L44.5945 569.143C44.7298 569.278 44.8458 569.365 44.9425 569.404C45.0392 569.443 45.1648 569.462 45.3195 569.462H48.7415ZM87.142 563.227V566.417H70.699C70.4284 566.417 70.1867 566.407 69.974 566.388C69.7807 566.349 69.597 566.291 69.423 566.214C69.249 566.137 69.075 566.03 68.901 565.895C68.7464 565.76 68.5627 565.586 68.35 565.373L67.799 564.793C67.6057 564.58 67.4414 564.387 67.306 564.213C67.19 564.039 67.0934 563.865 67.016 563.691C66.958 563.498 66.9097 563.295 66.871 563.082C66.8517 562.85 66.842 562.579 66.842 562.27V551.627C66.842 550.912 67.19 550.554 67.886 550.554H86.91V553.744H70.583V556.905H86.156V560.008H70.583V561.98C70.583 562.173 70.641 562.338 70.757 562.473L71.279 562.995C71.3757 563.15 71.54 563.227 71.772 563.227H87.142ZM88.186 570.303V573.551H65.769V570.303H88.186ZM102.198 553.541V560.733H103.851V563.836H91.5836V560.733H93.0626V553.541H91.6416V550.438H103.648V553.541H102.198ZM108.491 550.061V555.426H110.84V549.887H114.407V564.503H110.84V558.529H108.491V564.329H104.982V550.061H108.491ZM114.407 575.262H110.666V569.085H94.3676V565.895H113.363C114.059 565.895 114.407 566.253 114.407 566.968V575.262ZM96.6006 560.733H98.6886V553.541H96.6006V560.733ZM139.931 563.053V566.243H131.695V570.796H140.946V574.044H118.645V570.796H127.954V566.243H123.488C123.217 566.243 122.976 566.233 122.763 566.214C122.57 566.195 122.386 566.146 122.212 566.069C122.038 565.992 121.864 565.885 121.69 565.75C121.535 565.615 121.352 565.431 121.139 565.199L120.588 564.619C120.395 564.406 120.23 564.223 120.095 564.068C119.979 563.894 119.882 563.72 119.805 563.546C119.747 563.353 119.699 563.15 119.66 562.937C119.641 562.705 119.631 562.425 119.631 562.096V551.627C119.631 550.912 119.979 550.554 120.675 550.554H139.699V553.744H123.372V556.818H138.945V559.95H123.372V561.806C123.372 561.999 123.43 562.164 123.546 562.299L124.068 562.821C124.165 562.976 124.329 563.053 124.561 563.053H139.931ZM149.187 562.966V567.461C149.187 567.732 149.293 567.973 149.506 568.186L150.347 569.259C150.521 569.452 150.733 569.549 150.985 569.549H159.54V572.768H150.086C149.506 572.768 149.051 572.71 148.723 572.594C148.413 572.478 148.065 572.207 147.679 571.782L146.316 570.129C146.142 569.936 145.997 569.762 145.881 569.607C145.784 569.452 145.697 569.288 145.62 569.114C145.562 568.94 145.523 568.737 145.504 568.505C145.484 568.273 145.475 567.983 145.475 567.635V560.82C145.475 560.163 145.813 559.834 146.49 559.834H154.088C154.378 559.834 154.523 559.689 154.523 559.399V553.773H145.533V550.583H157.22C157.916 550.583 158.264 550.941 158.264 551.656V560.878C158.264 562.27 157.558 562.966 156.147 562.966H149.187ZM166.529 549.887V574.74H162.817V549.887H166.529Z" fill="black"/>
<rect y="637.252" width="163.074" height="97.4964" fill="#FFE697"/>
<path d="M226 686L162.853 734.497L162.853 637.503L226 686Z" fill="#FFE697"/>
<path d="M73.4151 690.8C75.0984 690.8 76.3651 691.142 77.2151 691.825C78.0818 692.492 78.5151 693.467 78.5151 694.75C78.5151 696.05 78.0818 697.033 77.2151 697.7C76.3651 698.367 75.0984 698.7 73.4151 698.7H66.5401C64.8734 698.7 63.5984 698.367 62.7151 697.7C61.8318 697.033 61.3901 696.05 61.3901 694.75C61.3901 693.45 61.8318 692.467 62.7151 691.8C63.5984 691.133 64.8734 690.8 66.5401 690.8H73.4151ZM73.4151 696.95C74.4151 696.95 75.1818 696.767 75.7151 696.4C76.2484 696.017 76.5151 695.467 76.5151 694.75C76.5151 694.05 76.2484 693.517 75.7151 693.15C75.1818 692.767 74.4151 692.575 73.4151 692.575H66.5401C65.5234 692.575 64.7401 692.758 64.1901 693.125C63.6401 693.492 63.3651 694.033 63.3651 694.75C63.3651 695.467 63.6401 696.017 64.1901 696.4C64.7401 696.767 65.5234 696.95 66.5401 696.95H73.4151ZM70.1901 682.575V686.95H79.6901V688.675H60.2651V686.95H68.1401V682.575H70.1901ZM76.0901 679.525H61.7151V677.75H77.4151C77.8984 677.75 78.1401 677.992 78.1401 678.475V681.75C78.1401 682.2 78.1318 682.583 78.1151 682.9C78.0984 683.2 78.0568 683.483 77.9901 683.75C77.9401 684 77.8568 684.267 77.7401 684.55C77.6401 684.833 77.4901 685.175 77.2901 685.575C76.9734 685.475 76.6568 685.383 76.3401 685.3C76.0401 685.217 75.7318 685.133 75.4151 685.05C75.5484 684.717 75.6568 684.425 75.7401 684.175C75.8401 683.925 75.9151 683.683 75.9651 683.45C76.0151 683.217 76.0484 682.975 76.0651 682.725C76.0818 682.458 76.0901 682.15 76.0901 681.8V679.525ZM96.169 690.8C97.8523 690.8 99.119 691.142 99.969 691.825C100.836 692.492 101.269 693.467 101.269 694.75C101.269 696.05 100.836 697.033 99.969 697.7C99.119 698.367 97.8523 698.7 96.169 698.7H89.294C87.6273 698.7 86.3523 698.367 85.469 697.7C84.5857 697.033 84.144 696.05 84.144 694.75C84.144 693.45 84.5857 692.467 85.469 691.8C86.3523 691.133 87.6273 690.8 89.294 690.8H96.169ZM96.169 696.95C97.169 696.95 97.9357 696.767 98.469 696.4C99.0023 696.017 99.269 695.467 99.269 694.75C99.269 694.05 99.0023 693.517 98.469 693.15C97.9357 692.767 97.169 692.575 96.169 692.575H89.294C88.2773 692.575 87.494 692.758 86.944 693.125C86.394 693.492 86.119 694.033 86.119 694.75C86.119 695.467 86.394 696.017 86.944 696.4C87.494 696.767 88.2773 696.95 89.294 696.95H96.169ZM92.944 682.575V686.95H102.444V688.675H83.019V686.95H90.894V682.575H92.944ZM98.844 679.525H84.469V677.75H100.169C100.652 677.75 100.894 677.992 100.894 678.475V681.75C100.894 682.2 100.886 682.583 100.869 682.9C100.852 683.2 100.811 683.483 100.744 683.75C100.694 684 100.611 684.267 100.494 684.55C100.394 684.833 100.244 685.175 100.044 685.575C99.7273 685.475 99.4107 685.383 99.094 685.3C98.794 685.217 98.4857 685.133 98.169 685.05C98.3023 684.717 98.4107 684.425 98.494 684.175C98.594 683.925 98.669 683.683 98.719 683.45C98.769 683.217 98.8023 682.975 98.819 682.725C98.8357 682.458 98.844 682.15 98.844 681.8V679.525Z" fill="black"/>
<rect y="637.252" width="163.074" height="97.4964" fill="#FFE697"/>
<path d="M226 686L162.853 734.497L162.853 637.503L226 686Z" fill="#FFE697"/>
<path d="M35.9488 696.303V699.551H13.5318V696.303H35.9488ZM27.6258 682.818C28.9211 683.978 30.2841 685.119 31.7148 686.24C33.1648 687.361 34.5858 688.425 35.9778 689.43L33.8028 692.214C32.2948 691.073 30.8158 689.913 29.3658 688.734C27.9158 687.535 26.5528 686.356 25.2768 685.196C25.1608 685.08 25.0545 684.974 24.9578 684.877C24.8805 684.78 24.8128 684.664 24.7548 684.529C24.6968 684.664 24.6291 684.78 24.5518 684.877C24.4938 684.974 24.4068 685.08 24.2908 685.196C22.9568 686.395 21.5841 687.584 20.1728 688.763C18.7808 689.942 17.3501 691.083 15.8808 692.185L13.6478 689.43C15.0398 688.405 16.4318 687.342 17.8238 686.24C19.2158 685.119 20.5498 683.968 21.8258 682.789C22.2318 682.441 22.5121 682.083 22.6668 681.716C22.8215 681.349 22.8988 680.885 22.8988 680.324V676.467H26.6398V680.324C26.6398 680.885 26.6881 681.349 26.7848 681.716C26.9008 682.083 27.1811 682.451 27.6258 682.818ZM60.4583 675.887V685.196H63.8223V688.444H60.4583V700.74H56.7173V675.887H60.4583ZM45.0013 698.739C44.6727 698.739 44.3923 698.729 44.1603 698.71C43.9477 698.671 43.7447 698.613 43.5513 698.536C43.3773 698.459 43.2033 698.352 43.0293 698.217C42.8553 698.082 42.662 697.898 42.4493 697.666L40.9993 696.1C40.806 695.887 40.6513 695.694 40.5353 695.52C40.4193 695.346 40.3227 695.172 40.2453 694.998C40.1873 694.805 40.139 694.582 40.1003 694.331C40.081 694.08 40.0713 693.78 40.0713 693.432V677.656C40.0713 676.941 40.4193 676.583 41.1153 676.583H51.9903C52.6863 676.583 53.0343 676.941 53.0343 677.656V697.637C53.0343 698.372 52.6863 698.739 51.9903 698.739H45.0013ZM49.2933 695.462V679.831H43.8123V693.2C43.8123 693.374 43.8317 693.519 43.8703 693.635C43.909 693.751 43.996 693.886 44.1313 694.041L45.1463 695.143C45.2817 695.278 45.3977 695.365 45.4943 695.404C45.591 695.443 45.7167 695.462 45.8713 695.462H49.2933ZM87.6939 689.227V692.417H71.2508C70.9802 692.417 70.7385 692.407 70.5258 692.388C70.3325 692.349 70.1488 692.291 69.9748 692.214C69.8008 692.137 69.6268 692.03 69.4528 691.895C69.2982 691.76 69.1145 691.586 68.9018 691.373L68.3508 690.793C68.1575 690.58 67.9932 690.387 67.8578 690.213C67.7418 690.039 67.6452 689.865 67.5678 689.691C67.5098 689.498 67.4615 689.295 67.4228 689.082C67.4035 688.85 67.3938 688.579 67.3938 688.27V677.627C67.3938 676.912 67.7418 676.554 68.4378 676.554H87.4618V679.744H71.1348V682.905H86.7079V686.008H71.1348V687.98C71.1348 688.173 71.1928 688.338 71.3088 688.473L71.8308 688.995C71.9275 689.15 72.0918 689.227 72.3238 689.227H87.6939ZM88.7379 696.303V699.551H66.3208V696.303H88.7379ZM105.852 690.793V696.796H115.103V700.044H92.8024V696.796H102.111V690.793H98.2834C98.0127 690.793 97.7807 690.783 97.5874 690.764C97.394 690.725 97.2104 690.667 97.0364 690.59C96.8624 690.493 96.6884 690.377 96.5144 690.242C96.3404 690.107 96.147 689.923 95.9344 689.691L94.6294 688.299C94.436 688.106 94.2717 687.922 94.1364 687.748C94.0204 687.574 93.9237 687.4 93.8464 687.226C93.7884 687.052 93.74 686.859 93.7014 686.646C93.682 686.414 93.6724 686.143 93.6724 685.834V677.598C93.6724 676.883 94.03 676.525 94.7454 676.525H112.957C113.673 676.525 114.03 676.883 114.03 677.598V689.662C114.03 690.416 113.673 690.793 112.957 690.793H105.852ZM110.289 687.487V679.773H97.4424V685.399C97.4424 685.573 97.4617 685.718 97.5004 685.834C97.539 685.95 97.6164 686.076 97.7324 686.211L98.6894 687.197C98.8054 687.294 98.902 687.371 98.9794 687.429C99.0567 687.468 99.1727 687.487 99.3274 687.487H110.289ZM125.113 696.68V697.492C125.113 697.627 125.152 697.724 125.229 697.782L125.316 697.898C125.355 697.956 125.432 697.985 125.548 697.985H141.179V701.088H124.33C123.827 701.088 123.47 701.03 123.257 700.914C123.044 700.798 122.803 700.605 122.532 700.334L122.097 699.87C121.826 699.561 121.643 699.29 121.546 699.058C121.449 698.826 121.401 698.439 121.401 697.898V694.824C121.401 694.515 121.507 694.283 121.72 694.128C121.933 693.973 122.203 693.896 122.532 693.896H136.684C136.916 693.896 137.032 693.79 137.032 693.577V692.707H121.401V689.575H139.613C140.328 689.575 140.686 689.923 140.686 690.619V694.302C140.686 694.998 140.502 695.568 140.135 696.013C139.768 696.458 139.236 696.68 138.54 696.68H125.113ZM123.141 687.893C122.6 687.893 122.174 687.835 121.865 687.719C121.556 687.584 121.256 687.361 120.966 687.052L120.183 686.182C119.912 685.892 119.709 685.602 119.574 685.312C119.458 685.022 119.4 684.606 119.4 684.065V676.09H123.141V678.932H128.883V676.09H132.624V686.762C132.624 687.516 132.276 687.893 131.58 687.893H123.141ZM140.686 675.887V688.299H136.974V675.887H140.686ZM128.883 684.761V681.977H123.141V683.717C123.141 683.872 123.189 684.017 123.286 684.152L123.721 684.616C123.818 684.713 123.953 684.761 124.127 684.761H128.883ZM149.738 688.966V693.461C149.738 693.732 149.845 693.973 150.057 694.186L150.898 695.259C151.072 695.452 151.285 695.549 151.536 695.549H160.091V698.768H150.637C150.057 698.768 149.603 698.71 149.274 698.594C148.965 698.478 148.617 698.207 148.23 697.782L146.867 696.129C146.693 695.936 146.548 695.762 146.432 695.607C146.336 695.452 146.249 695.288 146.171 695.114C146.113 694.94 146.075 694.737 146.055 694.505C146.036 694.273 146.026 693.983 146.026 693.635V686.82C146.026 686.163 146.365 685.834 147.041 685.834H154.639C154.929 685.834 155.074 685.689 155.074 685.399V679.773H146.084V676.583H157.771C158.467 676.583 158.815 676.941 158.815 677.656V686.878C158.815 688.27 158.11 688.966 156.698 688.966H149.738ZM167.08 675.887V700.74H163.368V675.887H167.08ZM177.061 698.768C176.481 698.768 176.027 698.71 175.698 698.594C175.389 698.478 175.041 698.207 174.654 697.782L173.291 696.274C173.117 696.081 172.972 695.907 172.856 695.752C172.759 695.597 172.672 695.433 172.595 695.259C172.537 695.066 172.498 694.863 172.479 694.65C172.46 694.418 172.45 694.128 172.45 693.78V677.627C172.45 676.912 172.788 676.554 173.465 676.554H185.645V679.744H176.22V685.602H184.63V688.763H176.22V693.49C176.22 693.761 176.326 694.002 176.539 694.215L177.438 695.259C177.651 695.452 177.873 695.549 178.105 695.549H186.486V698.768H177.061ZM193.475 675.887V700.74H189.763V675.887H193.475Z" fill="black"/>
</svg>
