<svg width="994" height="742" viewBox="0 0 994 742" fill="none" xmlns="http://www.w3.org/2000/svg">
<rect x="249" y="398" width="340" height="340" fill="#376092"/>
<circle cx="622" cy="568" r="121" fill="white"/>
<circle cx="622" cy="568" r="77" fill="#558ED5"/>
<rect x="654" y="398" width="340" height="340" fill="#558ED5"/>
<circle cx="824" cy="379" r="121" fill="white"/>
<circle cx="824" cy="379" r="77" fill="#8EB4E3"/>
<rect x="654" y="5" width="340" height="340" fill="#8EB4E3"/>
<circle cx="622" cy="175" r="121" fill="white"/>
<circle cx="622" cy="175" r="77" fill="#DCE6F2"/>
<rect x="249" y="5" width="340" height="340" fill="#DCE6F2"/>
<circle cx="419" cy="370" r="121" fill="white"/>
<circle cx="419" cy="370" r="77" fill="#376092"/>
<rect x="249" y="398" width="331" height="49" fill="#376092"/>
<rect x="249" y="447" width="269" height="49" fill="#376092"/>
<path d="M354.804 119.075V127.5H358.404V129.275H354.804V140.5H352.729V119.075H354.804ZM348.479 132.675C348.479 133.608 348.354 134.458 348.104 135.225C347.854 135.992 347.495 136.65 347.029 137.2C346.579 137.733 346.029 138.15 345.379 138.45C344.729 138.733 343.995 138.875 343.179 138.875C342.379 138.875 341.654 138.733 341.004 138.45C340.354 138.15 339.795 137.733 339.329 137.2C338.879 136.65 338.529 135.992 338.279 135.225C338.029 134.458 337.904 133.608 337.904 132.675V125.45C337.904 124.517 338.029 123.675 338.279 122.925C338.529 122.158 338.879 121.508 339.329 120.975C339.795 120.425 340.354 120 341.004 119.7C341.654 119.4 342.379 119.25 343.179 119.25C343.995 119.25 344.729 119.4 345.379 119.7C346.029 120 346.579 120.425 347.029 120.975C347.495 121.508 347.854 122.158 348.104 122.925C348.354 123.675 348.479 124.517 348.479 125.45V132.675ZM346.429 125.45C346.429 124 346.112 122.9 345.479 122.15C344.862 121.4 344.095 121.025 343.179 121.025C342.245 121.025 341.47 121.4 340.854 122.15C340.254 122.883 339.954 123.983 339.954 125.45V132.675C339.954 134.142 340.254 135.25 340.854 136C341.47 136.733 342.245 137.1 343.179 137.1C344.095 137.1 344.862 136.725 345.479 135.975C346.112 135.225 346.429 134.125 346.429 132.675V125.45ZM378.783 119.075V140.5H376.758V119.075H378.783ZM371.683 132.675C371.683 133.608 371.549 134.458 371.283 135.225C371.033 135.992 370.674 136.65 370.208 137.2C369.741 137.733 369.174 138.15 368.508 138.45C367.841 138.733 367.099 138.875 366.283 138.875C365.483 138.875 364.749 138.733 364.083 138.45C363.433 138.15 362.874 137.733 362.408 137.2C361.941 136.65 361.574 135.992 361.308 135.225C361.058 134.458 360.933 133.608 360.933 132.675V125.45C360.933 124.517 361.058 123.675 361.308 122.925C361.574 122.158 361.941 121.508 362.408 120.975C362.874 120.425 363.433 120 364.083 119.7C364.749 119.4 365.483 119.25 366.283 119.25C367.099 119.25 367.841 119.4 368.508 119.7C369.174 120 369.741 120.425 370.208 120.975C370.674 121.508 371.033 122.158 371.283 122.925C371.549 123.675 371.683 124.517 371.683 125.45V132.675ZM369.658 125.45C369.658 124.733 369.566 124.1 369.383 123.55C369.199 122.983 368.949 122.517 368.633 122.15C368.333 121.783 367.974 121.508 367.558 121.325C367.158 121.125 366.733 121.025 366.283 121.025C365.833 121.025 365.408 121.125 365.008 121.325C364.608 121.508 364.258 121.783 363.958 122.15C363.658 122.517 363.416 122.983 363.233 123.55C363.066 124.1 362.983 124.733 362.983 125.45V132.675C362.983 133.408 363.066 134.05 363.233 134.6C363.416 135.15 363.658 135.608 363.958 135.975C364.258 136.342 364.608 136.625 365.008 136.825C365.408 137.008 365.833 137.1 366.283 137.1C366.733 137.1 367.158 137.008 367.558 136.825C367.974 136.625 368.333 136.342 368.633 135.975C368.949 135.608 369.199 135.15 369.383 134.6C369.566 134.05 369.658 133.408 369.658 132.675V125.45ZM401.537 119.075V140.5H399.512V119.075H401.537ZM383.612 120.875C383.612 120.325 383.895 120.05 384.462 120.05H394.962V121.775H385.662V134.225C385.662 134.492 385.762 134.725 385.962 134.925L387.287 136.35C387.387 136.433 387.495 136.508 387.612 136.575C387.728 136.625 387.862 136.65 388.012 136.65H395.662V138.375H387.712C387.462 138.375 387.245 138.367 387.062 138.35C386.895 138.333 386.745 138.3 386.612 138.25C386.478 138.183 386.345 138.1 386.212 138C386.078 137.9 385.937 137.767 385.787 137.6L384.337 136.025C384.203 135.875 384.087 135.742 383.987 135.625C383.903 135.492 383.828 135.35 383.762 135.2C383.712 135.05 383.67 134.883 383.637 134.7C383.62 134.5 383.612 134.25 383.612 133.95V120.875ZM424.29 119.075V140.5H422.265V129.75H416.965V132.425C416.965 133.375 416.84 134.233 416.59 135C416.34 135.75 415.982 136.392 415.515 136.925C415.065 137.442 414.515 137.842 413.865 138.125C413.215 138.408 412.49 138.55 411.69 138.55C410.874 138.55 410.14 138.408 409.49 138.125C408.84 137.842 408.29 137.442 407.84 136.925C407.39 136.392 407.04 135.75 406.79 135C406.557 134.233 406.44 133.375 406.44 132.425V125.4C406.44 123.483 406.907 121.983 407.84 120.9C408.774 119.817 410.057 119.275 411.69 119.275C413.307 119.275 414.59 119.817 415.54 120.9C416.49 121.983 416.965 123.483 416.965 125.4V127.975H422.265V119.075H424.29ZM414.915 125.4C414.915 123.933 414.615 122.833 414.015 122.1C413.415 121.367 412.64 121 411.69 121C410.74 121 409.965 121.367 409.365 122.1C408.782 122.833 408.49 123.933 408.49 125.4V132.425C408.49 133.892 408.782 134.992 409.365 135.725C409.949 136.442 410.724 136.8 411.69 136.8C412.657 136.8 413.432 136.442 414.015 135.725C414.615 134.992 414.915 133.892 414.915 132.425V125.4ZM430.244 120.2C430.244 119.667 430.528 119.4 431.094 119.4H446.219V121.175H432.269V123.3H446.044V125.025H432.269V125.95C432.269 126.283 432.378 126.525 432.594 126.675L433.094 127.1C433.294 127.233 433.561 127.3 433.894 127.3H446.394V129.1H439.294V131.35H448.094V133.075H428.669V131.35H437.269V129.1H433.494C432.794 129.1 432.236 128.917 431.819 128.55L430.944 127.825C430.711 127.625 430.536 127.417 430.419 127.2C430.303 126.967 430.244 126.658 430.244 126.275V120.2ZM433.269 140.6C432.936 140.6 432.636 140.558 432.369 140.475C432.119 140.408 431.886 140.267 431.669 140.05L430.694 139.1C430.461 138.867 430.294 138.642 430.194 138.425C430.111 138.192 430.069 137.908 430.069 137.575V134.225H432.119V137.3C432.119 137.483 432.153 137.633 432.219 137.75C432.286 137.85 432.369 137.95 432.469 138.05L432.919 138.55C433.103 138.733 433.361 138.825 433.694 138.825H446.969V140.6H433.269ZM457.463 136.875C458.747 135.892 459.913 134.95 460.963 134.05C462.03 133.133 462.863 132.367 463.463 131.75C464.047 131.15 464.513 130.625 464.863 130.175C465.23 129.708 465.513 129.292 465.713 128.925C465.913 128.542 466.047 128.183 466.113 127.85C466.18 127.517 466.213 127.183 466.213 126.85V121.825H457.963V120.025H467.313C467.613 120.025 467.838 120.117 467.988 120.3C468.138 120.467 468.213 120.7 468.213 121V126.6C468.213 127.2 468.188 127.742 468.138 128.225C468.088 128.692 467.963 129.158 467.763 129.625C467.563 130.092 467.255 130.592 466.838 131.125C466.438 131.642 465.872 132.25 465.138 132.95C464.472 133.583 463.605 134.35 462.538 135.25C461.488 136.15 460.222 137.2 458.738 138.4L457.463 136.875ZM475.413 119.075V140.5H473.388V119.075H475.413ZM481.842 123.775H488.517V119.575H490.542V130.75C490.542 131.05 490.442 131.2 490.242 131.2H482.767C482.434 131.2 482.142 131.175 481.892 131.125C481.642 131.058 481.426 130.933 481.242 130.75L480.317 129.8C480.134 129.617 480.001 129.417 479.917 129.2C479.834 128.983 479.792 128.667 479.792 128.25V119.575H481.842V123.775ZM488.517 129.475V125.475H481.842V127.9C481.842 128.167 481.859 128.358 481.892 128.475C481.942 128.575 482.026 128.692 482.142 128.825L482.492 129.175C482.592 129.308 482.701 129.392 482.817 129.425C482.951 129.458 483.142 129.475 483.392 129.475H488.517ZM496.942 134.975H494.867V119.075H496.942V125.35H500.542V127.15H496.942V134.975ZM484.392 140.6C484.109 140.6 483.851 140.567 483.617 140.5C483.384 140.45 483.192 140.342 483.042 140.175L481.842 138.975C481.492 138.642 481.317 138.208 481.317 137.675V133.35H483.342V137.35C483.342 137.6 483.434 137.8 483.617 137.95L484.292 138.625C484.409 138.758 484.601 138.825 484.867 138.825H497.392V140.6H484.392ZM373.16 155.6H389.86V157.375H382.51V159.525C382.51 159.708 382.543 159.85 382.61 159.95C382.693 160.033 382.81 160.125 382.96 160.225C384.11 160.925 385.318 161.625 386.585 162.325C387.868 163.025 389.16 163.725 390.46 164.425L389.51 166.075C388.21 165.375 386.901 164.65 385.585 163.9C384.268 163.15 383.01 162.4 381.81 161.65C381.76 161.617 381.701 161.575 381.635 161.525C381.585 161.458 381.543 161.383 381.51 161.3C381.443 161.45 381.326 161.567 381.16 161.65C379.943 162.483 378.685 163.283 377.385 164.05C376.085 164.8 374.801 165.508 373.535 166.175L372.61 164.525C373.876 163.875 375.126 163.2 376.36 162.5C377.593 161.783 378.785 161.025 379.935 160.225C380.068 160.142 380.176 160.05 380.26 159.95C380.343 159.85 380.385 159.708 380.385 159.525V157.375H373.16V155.6ZM380.485 176.875V169.825H371.835V168.025H391.185V169.825H382.51V176.875H380.485ZM400.388 166.4C400.988 167.55 401.63 168.692 402.313 169.825C402.997 170.942 403.722 172.075 404.488 173.225L402.963 174.15C402.247 173.05 401.563 171.958 400.913 170.875C400.28 169.792 399.688 168.7 399.138 167.6C399.105 167.567 399.063 167.525 399.013 167.475C398.98 167.425 398.955 167.358 398.938 167.275C398.922 167.358 398.888 167.425 398.838 167.475C398.805 167.525 398.772 167.567 398.738 167.6C398.205 168.717 397.613 169.833 396.963 170.95C396.33 172.05 395.647 173.15 394.913 174.25L393.388 173.35C394.138 172.217 394.847 171.075 395.513 169.925C396.18 168.775 396.822 167.6 397.438 166.4C397.522 166.233 397.588 166.083 397.638 165.95C397.705 165.8 397.755 165.658 397.788 165.525C397.838 165.392 397.872 165.25 397.888 165.1C397.905 164.95 397.913 164.767 397.913 164.55V157.85H393.713V156.125H404.038V157.85H399.938V164.55C399.938 164.767 399.938 164.95 399.938 165.1C399.955 165.25 399.98 165.392 400.013 165.525C400.047 165.658 400.088 165.8 400.138 165.95C400.205 166.083 400.288 166.233 400.388 166.4ZM408.863 155.225V176.35H406.863V164.875H403.038V163.15H406.863V155.225H408.863ZM411.663 155.075H413.688V176.5H411.663V155.075ZM424.108 156.5C424.108 155.983 424.391 155.725 424.958 155.725H440.908V157.5H426.158V163.525C426.158 163.958 426.308 164.283 426.608 164.5L427.458 165.375C427.591 165.475 427.749 165.567 427.933 165.65C428.116 165.717 428.349 165.75 428.633 165.75H441.083V167.575H433.608V173.675H442.408V175.475H422.908V173.675H431.583V167.575H428.158C427.391 167.575 426.749 167.35 426.233 166.9L424.908 165.6C424.658 165.4 424.458 165.167 424.308 164.9C424.174 164.633 424.108 164.283 424.108 163.85V156.5ZM454.362 168.125V166.175H445.712V164.475H465.062V166.175H456.387V168.125H463.112C463.562 168.125 463.787 168.342 463.787 168.775V172.425C463.787 172.808 463.545 173 463.062 173H449.012V173.925C449.012 174.075 449.053 174.183 449.137 174.25L449.512 174.575C449.595 174.658 449.695 174.7 449.812 174.7H464.337V176.4H449.637C449.07 176.4 448.612 176.233 448.262 175.9L447.462 175.2C447.112 174.9 446.937 174.475 446.937 173.925V171.95C446.937 171.533 447.162 171.325 447.612 171.325H461.737V169.825H446.937V168.125H454.362ZM447.037 156.275H454.312V154.525H456.337V156.275H463.737V158.05H456.387V159.025C456.387 159.392 456.545 159.633 456.862 159.75C458.062 160.117 459.262 160.458 460.462 160.775C461.662 161.092 462.87 161.392 464.087 161.675L463.612 163.3C462.262 163.017 460.937 162.692 459.637 162.325C458.353 161.958 457.062 161.575 455.762 161.175C455.578 161.108 455.453 160.983 455.387 160.8C455.32 160.967 455.187 161.092 454.987 161.175C453.687 161.575 452.387 161.967 451.087 162.35C449.803 162.717 448.52 163.075 447.237 163.425L446.687 161.8C447.887 161.517 449.07 161.217 450.237 160.9C451.42 160.567 452.603 160.183 453.787 159.75C454.103 159.617 454.262 159.375 454.262 159.025V158.05H447.037V156.275Z" fill="black"/>
<path d="M778.988 146.125V144.375H798.513V146.125H778.988ZM785.913 136.975H791.763V128.525H785.913V136.975ZM793.788 136.975H797.613V138.675H779.913V136.975H783.838V128.525H779.913V126.825H797.613V128.525H793.788V136.975ZM817.491 128.05H803.291V126.35H818.891C819.341 126.35 819.566 126.558 819.566 126.975V130.85C819.566 131.233 819.425 131.525 819.141 131.725C818.875 131.925 818.525 132.025 818.091 132.025H805.341V133.275C805.341 133.408 805.35 133.525 805.366 133.625C805.383 133.708 805.458 133.808 805.591 133.925L806.016 134.325C806.116 134.442 806.216 134.517 806.316 134.55C806.433 134.567 806.558 134.575 806.691 134.575H820.091V136.275H812.416V138.35H821.216V140.075H801.791V138.35H810.391V136.275H806.041C805.758 136.275 805.508 136.233 805.291 136.15C805.091 136.067 804.9 135.933 804.716 135.75L803.791 134.85C803.608 134.667 803.475 134.475 803.391 134.275C803.325 134.075 803.291 133.833 803.291 133.55V130.975C803.291 130.558 803.516 130.35 803.966 130.35H817.341C817.441 130.35 817.491 130.3 817.491 130.2V128.05ZM806.391 147.6C806.058 147.6 805.758 147.558 805.491 147.475C805.241 147.408 805.008 147.267 804.791 147.05L803.816 146.1C803.583 145.867 803.416 145.642 803.316 145.425C803.233 145.192 803.191 144.908 803.191 144.575V141.225H805.241V144.3C805.241 144.483 805.275 144.633 805.341 144.75C805.408 144.85 805.491 144.95 805.591 145.05L806.041 145.55C806.225 145.733 806.483 145.825 806.816 145.825H820.091V147.6H806.391ZM826.07 127.9C826.07 127.367 826.362 127.1 826.945 127.1H842.37V128.875H828.095V132.525H841.92V134.25H828.095V136.125C828.095 136.358 828.112 136.533 828.145 136.65C828.195 136.767 828.287 136.892 828.42 137.025L829.12 137.625C829.237 137.742 829.37 137.825 829.52 137.875C829.67 137.925 829.879 137.95 830.145 137.95H842.595V139.775H829.82C829.054 139.775 828.42 139.55 827.92 139.1L826.895 138.2C826.612 137.95 826.404 137.692 826.27 137.425C826.137 137.142 826.07 136.808 826.07 136.425V127.9ZM824.495 146.125V144.375H844.02V146.125H824.495ZM861.699 126.225V141.825H859.749V132.975H856.399V133.625C856.399 134.258 856.291 134.858 856.074 135.425C855.858 135.975 855.549 136.458 855.149 136.875C854.749 137.292 854.258 137.625 853.674 137.875C853.108 138.108 852.474 138.225 851.774 138.225C851.074 138.225 850.433 138.108 849.849 137.875C849.283 137.625 848.791 137.292 848.374 136.875C847.974 136.458 847.666 135.975 847.449 135.425C847.233 134.858 847.124 134.258 847.124 133.625V131.225C847.124 130.592 847.233 130 847.449 129.45C847.666 128.883 847.974 128.4 848.374 128C848.791 127.583 849.283 127.258 849.849 127.025C850.433 126.775 851.074 126.65 851.774 126.65C852.474 126.65 853.108 126.775 853.674 127.025C854.258 127.258 854.749 127.583 855.149 128C855.549 128.4 855.858 128.883 856.074 129.45C856.291 130 856.399 130.592 856.399 131.225V131.25H859.749V126.225H861.699ZM852.524 147.525C852.258 147.525 851.999 147.492 851.749 147.425C851.516 147.358 851.324 147.242 851.174 147.075L849.874 145.8C849.524 145.45 849.349 145.017 849.349 144.5V140.15H851.399V144.275C851.399 144.508 851.474 144.683 851.624 144.8L852.449 145.6C852.549 145.733 852.716 145.8 852.949 145.8H866.924V147.525H852.524ZM854.399 131.225C854.399 130.425 854.166 129.75 853.699 129.2C853.233 128.65 852.591 128.375 851.774 128.375C850.924 128.375 850.266 128.65 849.799 129.2C849.333 129.75 849.099 130.425 849.099 131.225V133.625C849.099 134.442 849.333 135.125 849.799 135.675C850.266 136.225 850.924 136.5 851.774 136.5C852.591 136.5 853.233 136.225 853.699 135.675C854.166 135.125 854.399 134.442 854.399 133.625V131.225ZM864.474 126.075H866.449V141.95H864.474V126.075ZM871.253 127.5C871.253 126.983 871.536 126.725 872.103 126.725H887.878V128.5H873.303V134.575C873.303 135.008 873.453 135.333 873.753 135.55L874.603 136.425C874.736 136.508 874.895 136.592 875.078 136.675C875.261 136.758 875.495 136.8 875.778 136.8H888.028V138.625H875.303C874.903 138.625 874.545 138.567 874.228 138.45C873.928 138.317 873.645 138.15 873.378 137.95L872.053 136.65C871.803 136.45 871.603 136.217 871.453 135.95C871.32 135.683 871.253 135.325 871.253 134.875V127.5ZM870.003 146.125V144.375H889.528V146.125H870.003ZM901.682 125.925L903.457 126.625L895.057 148.85L893.282 148.15L901.682 125.925ZM785.308 166.6H790.408V162.625H792.458V173.475C792.458 173.742 792.349 173.875 792.133 173.875H786.033C785.483 173.875 785.041 173.733 784.708 173.45L783.783 172.55C783.599 172.367 783.466 172.192 783.383 172.025C783.299 171.842 783.258 171.583 783.258 171.25V162.625H785.308V166.6ZM790.408 172.15V168.325H785.308V170.875C785.308 171.058 785.324 171.192 785.358 171.275C785.391 171.342 785.449 171.408 785.533 171.475L785.958 171.95C786.041 172.017 786.124 172.067 786.208 172.1C786.291 172.133 786.416 172.15 786.583 172.15H790.408ZM797.508 162.225V167H800.558V162.075H802.558V174.775H800.558V168.775H797.508V174.6H795.508V162.225H797.508ZM801.808 176.025C802.308 176.025 802.558 176.258 802.558 176.725V183.9H800.558V177.775H785.233V176.025H801.808ZM820.562 162.225V177.825H818.612V168.975H815.262V169.625C815.262 170.258 815.153 170.858 814.937 171.425C814.72 171.975 814.412 172.458 814.012 172.875C813.612 173.292 813.12 173.625 812.537 173.875C811.97 174.108 811.337 174.225 810.637 174.225C809.937 174.225 809.295 174.108 808.712 173.875C808.145 173.625 807.653 173.292 807.237 172.875C806.837 172.458 806.528 171.975 806.312 171.425C806.095 170.858 805.987 170.258 805.987 169.625V167.225C805.987 166.592 806.095 166 806.312 165.45C806.528 164.883 806.837 164.4 807.237 164C807.653 163.583 808.145 163.258 808.712 163.025C809.295 162.775 809.937 162.65 810.637 162.65C811.337 162.65 811.97 162.775 812.537 163.025C813.12 163.258 813.612 163.583 814.012 164C814.412 164.4 814.72 164.883 814.937 165.45C815.153 166 815.262 166.592 815.262 167.225V167.25H818.612V162.225H820.562ZM811.387 183.525C811.12 183.525 810.862 183.492 810.612 183.425C810.378 183.358 810.187 183.242 810.037 183.075L808.737 181.8C808.387 181.45 808.212 181.017 808.212 180.5V176.15H810.262V180.275C810.262 180.508 810.337 180.683 810.487 180.8L811.312 181.6C811.412 181.733 811.578 181.8 811.812 181.8H825.787V183.525H811.387ZM813.262 167.225C813.262 166.425 813.028 165.75 812.562 165.2C812.095 164.65 811.453 164.375 810.637 164.375C809.787 164.375 809.128 164.65 808.662 165.2C808.195 165.75 807.962 166.425 807.962 167.225V169.625C807.962 170.442 808.195 171.125 808.662 171.675C809.128 172.225 809.787 172.5 810.637 172.5C811.453 172.5 812.095 172.225 812.562 171.675C813.028 171.125 813.262 170.442 813.262 169.625V167.225ZM823.337 162.075H825.312V177.95H823.337V162.075ZM830.115 163.5C830.115 162.983 830.399 162.725 830.965 162.725H846.74V164.5H832.165V170.575C832.165 171.008 832.315 171.333 832.615 171.55L833.465 172.425C833.599 172.508 833.757 172.592 833.94 172.675C834.124 172.758 834.357 172.8 834.64 172.8H846.89V174.625H834.165C833.765 174.625 833.407 174.567 833.09 174.45C832.79 174.317 832.507 174.15 832.24 173.95L830.915 172.65C830.665 172.45 830.465 172.217 830.315 171.95C830.182 171.683 830.115 171.325 830.115 170.875V163.5ZM828.865 182.125V180.375H848.39V182.125H828.865ZM859.16 170.25H863.81V162.825H865.86V180.9C865.86 181.167 865.743 181.3 865.51 181.3H859.56C859.01 181.3 858.61 181.142 858.36 180.825L857.585 179.875C857.401 179.675 857.276 179.483 857.21 179.3C857.143 179.1 857.11 178.808 857.11 178.425V162.825H859.16V170.25ZM863.81 179.575V171.95H859.16V178.25C859.16 178.433 859.176 178.575 859.21 178.675C859.243 178.758 859.31 178.85 859.41 178.95L859.685 179.325C859.835 179.492 860.051 179.575 860.335 179.575H863.81ZM871.185 162.225V170.275H874.435V162.075H876.435V183.475H874.435V172.025H871.185V183.275H869.16V162.225H871.185ZM894.013 175.65C894.713 175.65 895.363 175.733 895.963 175.9C896.58 176.067 897.105 176.317 897.538 176.65C897.972 176.967 898.313 177.375 898.563 177.875C898.813 178.358 898.938 178.925 898.938 179.575C898.938 180.225 898.813 180.8 898.563 181.3C898.313 181.783 897.972 182.192 897.538 182.525C897.105 182.858 896.588 183.108 895.988 183.275C895.388 183.442 894.73 183.525 894.013 183.525H886.938C886.205 183.525 885.538 183.442 884.938 183.275C884.338 183.108 883.813 182.858 883.363 182.525C882.93 182.192 882.588 181.783 882.338 181.3C882.105 180.8 881.988 180.225 881.988 179.575C881.988 178.925 882.113 178.358 882.363 177.875C882.613 177.375 882.955 176.967 883.388 176.65C883.822 176.317 884.338 176.067 884.938 175.9C885.555 175.733 886.222 175.65 886.938 175.65H894.013ZM886.938 177.425C886.105 177.425 885.405 177.608 884.838 177.975C884.288 178.325 884.013 178.858 884.013 179.575C884.013 180.292 884.288 180.833 884.838 181.2C885.405 181.567 886.105 181.75 886.938 181.75H894.013C894.83 181.75 895.513 181.567 896.063 181.2C896.613 180.833 896.888 180.292 896.888 179.575C896.888 178.858 896.613 178.325 896.063 177.975C895.513 177.608 894.83 177.425 894.013 177.425H886.938ZM880.113 162.6H892.438V164.3H887.363V167.825C887.363 168.008 887.405 168.158 887.488 168.275C887.588 168.375 887.688 168.492 887.788 168.625C888.605 169.342 889.43 170.042 890.263 170.725C891.113 171.408 892.005 172.092 892.938 172.775L891.788 174.275C890.838 173.558 889.922 172.858 889.038 172.175C888.155 171.492 887.338 170.8 886.588 170.1C886.405 169.933 886.297 169.783 886.263 169.65C886.23 169.733 886.18 169.808 886.113 169.875C886.063 169.942 885.997 170.017 885.913 170.1C885.113 170.833 884.297 171.55 883.463 172.25C882.647 172.933 881.788 173.625 880.888 174.325L879.663 172.85C880.53 172.167 881.372 171.483 882.188 170.8C883.022 170.1 883.838 169.375 884.638 168.625C884.772 168.508 884.88 168.392 884.963 168.275C885.047 168.158 885.088 168.008 885.088 167.825V164.3H880.113V162.6ZM896.388 162.075H898.413V174.525H896.388V168.675H891.988V166.9H896.388V162.075Z" fill="black"/>
<path d="M771.181 593.025H769.106V577.075H771.181V583.05H774.781V584.825H771.181V593.025ZM758.606 598.6C758.322 598.6 758.064 598.567 757.831 598.5C757.597 598.45 757.397 598.342 757.231 598.175L756.081 597.025C755.731 596.692 755.556 596.258 755.556 595.725V591.125H757.581V595.45C757.581 595.667 757.664 595.842 757.831 595.975L758.506 596.65C758.606 596.767 758.772 596.825 759.006 596.825H771.631V598.6H758.606ZM761.181 582.875C761.981 583.725 762.806 584.567 763.656 585.4C764.506 586.233 765.389 587.042 766.306 587.825L764.981 589.225C764.131 588.442 763.289 587.675 762.456 586.925C761.639 586.158 760.847 585.358 760.081 584.525C759.997 584.442 759.931 584.375 759.881 584.325C759.831 584.258 759.797 584.183 759.781 584.1C759.747 584.183 759.697 584.258 759.631 584.325C759.581 584.375 759.514 584.442 759.431 584.525C758.697 585.358 757.922 586.183 757.106 587C756.289 587.8 755.422 588.617 754.506 589.45L753.156 588.15C754.089 587.3 754.972 586.442 755.806 585.575C756.656 584.708 757.464 583.808 758.231 582.875C758.364 582.742 758.472 582.625 758.556 582.525C758.656 582.408 758.706 582.258 758.706 582.075V577.35H760.756V582.075C760.756 582.258 760.797 582.408 760.881 582.525C760.981 582.642 761.081 582.758 761.181 582.875ZM782.51 577.025C783.31 577.025 784.035 577.158 784.685 577.425C785.335 577.675 785.893 578.017 786.36 578.45C786.843 578.883 787.226 579.383 787.51 579.95C787.81 580.517 787.993 581.117 788.06 581.75H793.135V577.075H795.16V588.575H793.135V583.525H788.035C787.951 584.158 787.76 584.758 787.46 585.325C787.16 585.875 786.768 586.358 786.285 586.775C785.801 587.192 785.235 587.525 784.585 587.775C783.951 588.025 783.26 588.15 782.51 588.15C781.66 588.15 780.885 588.008 780.185 587.725C779.485 587.425 778.893 587.033 778.41 586.55C777.926 586.067 777.551 585.508 777.285 584.875C777.018 584.242 776.885 583.583 776.885 582.9V582.275C776.885 581.592 777.018 580.933 777.285 580.3C777.551 579.667 777.926 579.108 778.41 578.625C778.893 578.142 779.485 577.758 780.185 577.475C780.885 577.175 781.66 577.025 782.51 577.025ZM781.235 592.525H793.135V589.8H795.16V597.7C795.16 598.233 794.885 598.5 794.335 598.5H782.135C781.868 598.5 781.618 598.467 781.385 598.4C781.151 598.333 780.951 598.217 780.785 598.05L779.71 597.025C779.36 596.692 779.185 596.258 779.185 595.725V589.8H781.235V592.525ZM786.06 582.275C786.06 581.808 785.976 581.367 785.81 580.95C785.643 580.517 785.401 580.142 785.085 579.825C784.785 579.508 784.418 579.258 783.985 579.075C783.551 578.892 783.06 578.8 782.51 578.8C781.976 578.8 781.493 578.892 781.06 579.075C780.626 579.258 780.251 579.508 779.935 579.825C779.618 580.142 779.376 580.517 779.21 580.95C779.043 581.367 778.96 581.808 778.96 582.275V582.9C778.96 583.367 779.043 583.808 779.21 584.225C779.376 584.642 779.61 585.008 779.91 585.325C780.226 585.642 780.601 585.9 781.035 586.1C781.468 586.283 781.96 586.375 782.51 586.375C783.026 586.375 783.501 586.283 783.935 586.1C784.385 585.9 784.76 585.642 785.06 585.325C785.376 585.008 785.618 584.642 785.785 584.225C785.968 583.792 786.06 583.35 786.06 582.9V582.275ZM781.235 595.6C781.235 595.717 781.26 595.817 781.31 595.9C781.36 595.967 781.418 596.042 781.485 596.125L782.01 596.625C782.11 596.758 782.285 596.825 782.535 596.825H793.135V594.2H781.235V595.6ZM806.354 578.5C806.354 577.983 806.637 577.725 807.204 577.725H823.154V579.5H808.404V585.525C808.404 585.958 808.554 586.283 808.854 586.5L809.704 587.375C809.837 587.475 809.995 587.567 810.179 587.65C810.362 587.717 810.595 587.75 810.879 587.75H823.329V589.575H815.854V595.675H824.654V597.475H805.154V595.675H813.829V589.575H810.404C809.637 589.575 808.995 589.35 808.479 588.9L807.154 587.6C806.904 587.4 806.704 587.167 806.554 586.9C806.42 586.633 806.354 586.283 806.354 585.85V578.5ZM842.233 577.225V598.35H840.233V587.525H836.658V595.75C836.658 596.283 836.366 596.55 835.783 596.55H831.708C831.124 596.55 830.666 596.492 830.333 596.375C829.999 596.242 829.666 595.967 829.333 595.55L828.758 594.8C828.608 594.6 828.466 594.425 828.333 594.275C828.216 594.125 828.116 593.958 828.033 593.775C827.966 593.592 827.908 593.383 827.858 593.15C827.824 592.917 827.808 592.625 827.808 592.275V578.6C827.808 578.133 828.058 577.9 828.558 577.9H835.883C836.399 577.9 836.658 578.133 836.658 578.6V585.75H840.233V577.225H842.233ZM829.858 592.425C829.858 592.708 829.908 592.933 830.008 593.1C830.108 593.267 830.233 593.433 830.383 593.6L830.883 594.2C831.033 594.367 831.199 594.5 831.383 594.6C831.566 594.7 831.799 594.75 832.083 594.75H834.583V579.675H829.858V592.425ZM845.033 577.075H847.058V598.5H845.033V577.075ZM869.037 577.075V592.975H867.012V577.075H869.037ZM856.087 598.6C855.72 598.6 855.403 598.558 855.137 598.475C854.887 598.392 854.662 598.242 854.462 598.025L853.487 597.1C853.253 596.867 853.087 596.633 852.987 596.4C852.887 596.167 852.837 595.867 852.837 595.5V591.175H854.862V595.3C854.862 595.483 854.887 595.625 854.937 595.725C855.003 595.825 855.095 595.933 855.212 596.05L855.662 596.55C855.745 596.633 855.837 596.7 855.937 596.75C856.053 596.8 856.203 596.825 856.387 596.825H869.512V598.6H856.087ZM856.487 577.35C857.387 577.35 858.187 577.5 858.887 577.8C859.603 578.1 860.203 578.5 860.687 579C861.187 579.5 861.562 580.083 861.812 580.75C862.062 581.4 862.187 582.083 862.187 582.8V584C862.187 584.717 862.062 585.4 861.812 586.05C861.562 586.7 861.187 587.275 860.687 587.775C860.203 588.275 859.603 588.675 858.887 588.975C858.187 589.258 857.387 589.4 856.487 589.4C855.57 589.4 854.753 589.258 854.037 588.975C853.337 588.675 852.745 588.275 852.262 587.775C851.778 587.275 851.412 586.7 851.162 586.05C850.912 585.4 850.787 584.717 850.787 584V582.8C850.787 582.083 850.912 581.4 851.162 580.75C851.412 580.083 851.778 579.5 852.262 579C852.745 578.5 853.337 578.1 854.037 577.8C854.753 577.5 855.57 577.35 856.487 577.35ZM860.112 582.8C860.112 582.3 860.028 581.833 859.862 581.4C859.712 580.95 859.478 580.558 859.162 580.225C858.862 579.892 858.487 579.633 858.037 579.45C857.587 579.25 857.07 579.15 856.487 579.15C855.903 579.15 855.387 579.25 854.937 579.45C854.487 579.633 854.103 579.892 853.787 580.225C853.47 580.558 853.228 580.95 853.062 581.4C852.912 581.833 852.837 582.3 852.837 582.8V584C852.837 584.5 852.912 584.967 853.062 585.4C853.228 585.833 853.462 586.217 853.762 586.55C854.078 586.883 854.462 587.15 854.912 587.35C855.362 587.533 855.887 587.625 856.487 587.625C857.07 587.625 857.587 587.533 858.037 587.35C858.487 587.15 858.862 586.883 859.162 586.55C859.478 586.217 859.712 585.833 859.862 585.4C860.028 584.95 860.112 584.483 860.112 584V582.8ZM892.39 598.625H878.44C878.207 598.625 877.99 598.6 877.79 598.55C877.607 598.517 877.449 598.433 877.315 598.3L876.24 597.3C875.957 597.033 875.815 596.683 875.815 596.25V593.675C875.815 593.258 876.04 593.05 876.49 593.05H890.015V591.05H875.815V589.325H891.14C891.574 589.325 891.79 589.533 891.79 589.95V594.15C891.79 594.55 891.557 594.75 891.09 594.75H877.84V595.95C877.84 596.05 877.857 596.133 877.89 596.2C877.94 596.267 877.99 596.325 878.04 596.375L878.465 596.75C878.532 596.783 878.59 596.817 878.64 596.85C878.707 596.883 878.782 596.9 878.865 596.9H892.39V598.625ZM875.74 580.625H882.115V577.2H884.14V586.95C884.14 587.217 884.04 587.35 883.84 587.35H876.415C875.865 587.35 875.415 587.2 875.065 586.9L874.19 586C874.007 585.833 873.874 585.658 873.79 585.475C873.724 585.275 873.69 585.033 873.69 584.75V577.2H875.74V580.625ZM882.115 585.625V582.325H875.74V584.175C875.74 584.375 875.757 584.525 875.79 584.625C875.824 584.725 875.882 584.825 875.965 584.925L876.365 585.325C876.549 585.525 876.774 585.625 877.04 585.625H882.115ZM885.765 579.1H889.765V577.075H891.79V587.775H889.765V585.15H885.765V583.35H889.765V580.875H885.765V579.1ZM793.244 627.875C793.244 627.392 793.486 627.15 793.969 627.15H808.619C809.102 627.15 809.344 627.392 809.344 627.875V633.975C809.344 634.508 809.069 634.775 808.519 634.775H794.069C793.519 634.775 793.244 634.508 793.244 633.975V627.875ZM791.244 614.4C791.244 613.883 791.527 613.625 792.094 613.625H802.644V615.4H793.294V618.425H801.944V620.15H793.294V621.75C793.294 621.933 793.319 622.067 793.369 622.15C793.419 622.233 793.494 622.333 793.594 622.45L794.094 623.025C794.194 623.125 794.302 623.183 794.419 623.2C794.552 623.217 794.711 623.225 794.894 623.225H803.019V625.05H794.494C794.144 625.05 793.827 625.017 793.544 624.95C793.277 624.867 793.036 624.717 792.819 624.5L791.944 623.6C791.727 623.367 791.552 623.15 791.419 622.95C791.302 622.733 791.244 622.433 791.244 622.05V614.4ZM807.319 633.05V628.85H795.269V633.05H807.319ZM809.344 613.075V625.7H807.319V613.075H809.344ZM822.423 634.875V626.075H813.773V624.275H828.598C828.798 623.908 828.956 623.592 829.073 623.325C829.206 623.042 829.306 622.783 829.373 622.55C829.44 622.317 829.481 622.092 829.498 621.875C829.531 621.658 829.548 621.425 829.548 621.175V615.525H815.173V613.75H830.898C831.365 613.75 831.598 613.992 831.598 614.475V620.875C831.598 621.225 831.59 621.533 831.573 621.8C831.556 622.05 831.515 622.3 831.448 622.55C831.398 622.783 831.306 623.042 831.173 623.325C831.056 623.592 830.89 623.908 830.673 624.275H833.123V626.075H824.448V634.875H822.423ZM850.452 626.65C851.152 626.65 851.802 626.733 852.402 626.9C853.019 627.067 853.544 627.317 853.977 627.65C854.41 627.967 854.752 628.375 855.002 628.875C855.252 629.358 855.377 629.925 855.377 630.575C855.377 631.225 855.252 631.8 855.002 632.3C854.752 632.783 854.41 633.192 853.977 633.525C853.544 633.858 853.027 634.108 852.427 634.275C851.827 634.442 851.169 634.525 850.452 634.525H843.377C842.644 634.525 841.977 634.442 841.377 634.275C840.777 634.108 840.252 633.858 839.802 633.525C839.369 633.192 839.027 632.783 838.777 632.3C838.544 631.8 838.427 631.225 838.427 630.575C838.427 629.925 838.552 629.358 838.802 628.875C839.052 628.375 839.394 627.967 839.827 627.65C840.26 627.317 840.777 627.067 841.377 626.9C841.994 626.733 842.66 626.65 843.377 626.65H850.452ZM843.377 628.425C842.544 628.425 841.844 628.608 841.277 628.975C840.727 629.325 840.452 629.858 840.452 630.575C840.452 631.292 840.727 631.833 841.277 632.2C841.844 632.567 842.544 632.75 843.377 632.75H850.452C851.269 632.75 851.952 632.567 852.502 632.2C853.052 631.833 853.327 631.292 853.327 630.575C853.327 629.858 853.052 629.325 852.502 628.975C851.952 628.608 851.269 628.425 850.452 628.425H843.377ZM843.952 618.425C844.785 619.358 845.619 620.242 846.452 621.075C847.302 621.908 848.16 622.7 849.027 623.45L847.802 624.75C846.902 623.917 846.027 623.1 845.177 622.3C844.327 621.483 843.552 620.683 842.852 619.9C842.785 619.817 842.719 619.75 842.652 619.7C842.585 619.633 842.535 619.558 842.502 619.475C842.469 619.558 842.427 619.633 842.377 619.7C842.327 619.75 842.269 619.817 842.202 619.9C841.402 620.8 840.594 621.667 839.777 622.5C838.977 623.317 838.127 624.125 837.227 624.925L835.927 623.6C837.727 621.983 839.427 620.258 841.027 618.425C841.127 618.292 841.219 618.175 841.302 618.075C841.402 617.958 841.452 617.808 841.452 617.625V613.275H843.477V617.625C843.477 617.808 843.519 617.958 843.602 618.075C843.702 618.175 843.819 618.292 843.952 618.425ZM852.827 613.075H854.852V625.525H852.827V618.825H848.252V617.05H852.827V613.075Z" fill="black"/>
<path d="M345.833 585.375C345.833 586.025 345.749 586.625 345.583 587.175C345.416 587.725 345.158 588.208 344.808 588.625C344.458 589.025 344.016 589.342 343.483 589.575C342.966 589.792 342.358 589.9 341.658 589.9C340.958 589.9 340.349 589.792 339.833 589.575C339.316 589.342 338.883 589.025 338.533 588.625C338.199 588.208 337.941 587.725 337.758 587.175C337.591 586.625 337.508 586.025 337.508 585.375V581.45C337.508 580.8 337.591 580.2 337.758 579.65C337.941 579.1 338.199 578.625 338.533 578.225C338.883 577.825 339.316 577.517 339.833 577.3C340.349 577.067 340.958 576.95 341.658 576.95C342.358 576.95 342.966 577.067 343.483 577.3C344.016 577.517 344.458 577.825 344.808 578.225C345.158 578.625 345.416 579.1 345.583 579.65C345.749 580.2 345.833 580.8 345.833 581.45V585.375ZM350.808 570.225V578.55H354.058V570.075H356.058V591.5H354.058V580.325H350.808V591.35H348.783V570.225H350.808ZM343.833 581.45C343.833 580.567 343.641 579.892 343.258 579.425C342.874 578.958 342.341 578.725 341.658 578.725C340.958 578.725 340.433 578.958 340.083 579.425C339.733 579.892 339.558 580.567 339.558 581.45V585.375C339.558 586.275 339.733 586.958 340.083 587.425C340.433 587.892 340.958 588.125 341.658 588.125C342.341 588.125 342.874 587.892 343.258 587.425C343.641 586.958 343.833 586.275 343.833 585.375V581.45ZM336.708 573.4H340.683V570.4H342.733V573.4H346.508V575.175H336.708V573.4ZM360.212 588.1C361.645 586.95 362.845 585.958 363.812 585.125C364.795 584.292 365.603 583.558 366.237 582.925C366.953 582.175 367.47 581.525 367.787 580.975C368.103 580.408 368.303 579.8 368.387 579.15C368.203 579.25 367.97 579.325 367.687 579.375C367.42 579.425 367.07 579.45 366.637 579.45H360.087V577.725H367.812C368.045 577.725 368.253 577.7 368.437 577.65V572.9H360.387V571.125H369.262C369.695 571.125 370.003 571.225 370.187 571.425C370.387 571.625 370.487 571.917 370.487 572.3V577.95C370.487 578.067 370.487 578.175 370.487 578.275C370.487 578.358 370.478 578.45 370.462 578.55H376.012V570.075H378.037V591.5H376.012V580.325H370.212C370.028 580.958 369.745 581.583 369.362 582.2C368.978 582.8 368.428 583.483 367.712 584.25C367.028 585 366.178 585.808 365.162 586.675C364.162 587.525 362.945 588.508 361.512 589.625L360.212 588.1ZM383.99 571.2C383.99 570.667 384.274 570.4 384.84 570.4H399.965V572.175H386.015V574.3H399.79V576.025H386.015V576.95C386.015 577.283 386.124 577.525 386.34 577.675L386.84 578.1C387.04 578.233 387.307 578.3 387.64 578.3H400.14V580.1H393.04V582.35H401.84V584.075H382.415V582.35H391.015V580.1H387.24C386.54 580.1 385.982 579.917 385.565 579.55L384.69 578.825C384.457 578.625 384.282 578.417 384.165 578.2C384.049 577.967 383.99 577.658 383.99 577.275V571.2ZM387.015 591.6C386.682 591.6 386.382 591.558 386.115 591.475C385.865 591.408 385.632 591.267 385.415 591.05L384.44 590.1C384.207 589.867 384.04 589.642 383.94 589.425C383.857 589.192 383.815 588.908 383.815 588.575V585.225H385.865V588.3C385.865 588.483 385.899 588.633 385.965 588.75C386.032 588.85 386.115 588.95 386.215 589.05L386.665 589.55C386.849 589.733 387.107 589.825 387.44 589.825H400.715V591.6H387.015ZM416.21 591.6C415.843 591.6 415.526 591.558 415.26 591.475C415.01 591.392 414.785 591.242 414.585 591.025L413.61 590.1C413.376 589.867 413.21 589.633 413.11 589.4C413.01 589.167 412.96 588.867 412.96 588.5V584.175H414.985V588.3C414.985 588.483 415.01 588.625 415.06 588.725C415.126 588.825 415.218 588.933 415.335 589.05L415.785 589.55C415.868 589.633 415.96 589.7 416.06 589.75C416.176 589.8 416.326 589.825 416.51 589.825H429.635V591.6H416.21ZM429.16 570.075V585.975H427.135V570.075H429.16ZM411.16 570.9H423.535V572.6H418.36V576.375C418.36 576.558 418.401 576.708 418.485 576.825C418.568 576.942 418.676 577.058 418.81 577.175C419.526 577.975 420.293 578.717 421.11 579.4C421.943 580.083 422.835 580.817 423.785 581.6L422.585 582.9C421.668 582.15 420.785 581.433 419.935 580.75C419.101 580.067 418.343 579.333 417.66 578.55C417.576 578.467 417.501 578.4 417.435 578.35C417.368 578.3 417.318 578.233 417.285 578.15C417.251 578.233 417.21 578.3 417.16 578.35C417.126 578.4 417.068 578.467 416.985 578.55C416.201 579.35 415.393 580.1 414.56 580.8C413.743 581.483 412.91 582.208 412.06 582.975L410.785 581.725C411.635 580.942 412.476 580.2 413.31 579.5C414.143 578.8 414.968 578.025 415.785 577.175C415.901 577.058 416.001 576.942 416.085 576.825C416.168 576.708 416.21 576.558 416.21 576.375V572.6H411.16V570.9ZM448.188 584.125C449.672 584.125 450.855 584.433 451.738 585.05C452.622 585.667 453.063 586.625 453.063 587.925C453.063 589.225 452.622 590.183 451.738 590.8C450.872 591.433 449.688 591.75 448.188 591.75H440.763C439.247 591.75 438.055 591.433 437.188 590.8C436.338 590.183 435.913 589.225 435.913 587.925C435.913 586.625 436.347 585.667 437.213 585.05C438.08 584.433 439.263 584.125 440.763 584.125H448.188ZM447.613 570.225V575.5H450.688V570.075H452.688V583.4H450.688V577.275H447.613V582.9H445.638V570.225H447.613ZM439.063 575.325C439.68 575.325 440.255 575.408 440.788 575.575C441.322 575.725 441.78 575.958 442.163 576.275C442.563 576.575 442.872 576.958 443.088 577.425C443.322 577.875 443.438 578.392 443.438 578.975C443.438 579.558 443.322 580.075 443.088 580.525C442.872 580.975 442.563 581.358 442.163 581.675C441.78 581.975 441.322 582.208 440.788 582.375C440.255 582.525 439.68 582.6 439.063 582.6H438.238C437.638 582.6 437.08 582.525 436.563 582.375C436.063 582.208 435.622 581.975 435.238 581.675C434.872 581.358 434.58 580.975 434.363 580.525C434.163 580.075 434.063 579.558 434.063 578.975C434.063 578.375 434.163 577.85 434.363 577.4C434.58 576.95 434.872 576.575 435.238 576.275C435.622 575.958 436.063 575.725 436.563 575.575C437.08 575.408 437.638 575.325 438.238 575.325H439.063ZM440.763 585.95C439.88 585.95 439.18 586.1 438.663 586.4C438.163 586.7 437.913 587.208 437.913 587.925C437.913 588.642 438.163 589.158 438.663 589.475C439.18 589.775 439.88 589.925 440.763 589.925H448.188C449.072 589.925 449.763 589.775 450.263 589.475C450.763 589.158 451.013 588.642 451.013 587.925C451.013 587.208 450.763 586.7 450.263 586.4C449.763 586.1 449.072 585.95 448.188 585.95H440.763ZM432.963 572.15H437.463V569.75H439.488V572.15H443.988V573.925H432.963V572.15ZM439.113 580.85C439.763 580.85 440.305 580.683 440.738 580.35C441.188 580.017 441.413 579.558 441.413 578.975C441.413 578.375 441.188 577.917 440.738 577.6C440.305 577.267 439.763 577.1 439.113 577.1H438.188C437.538 577.1 437.013 577.258 436.613 577.575C436.23 577.892 436.038 578.358 436.038 578.975C436.038 579.558 436.238 580.017 436.638 580.35C437.038 580.683 437.563 580.85 438.213 580.85H439.113Z" fill="white"/>
<rect y="7.25195" width="148.259" height="97.4964" fill="#FFE697"/>
<path d="M205.469 56L148.059 104.497L148.059 7.50258L205.469 56Z" fill="#FFE697"/>
<path d="M66.0211 60.8C67.7044 60.8 68.9711 61.1417 69.8211 61.825C70.6878 62.4917 71.1211 63.4667 71.1211 64.75C71.1211 66.05 70.6878 67.0333 69.8211 67.7C68.9711 68.3667 67.7044 68.7 66.0211 68.7H59.1461C57.4794 68.7 56.2044 68.3667 55.3211 67.7C54.4378 67.0333 53.9961 66.05 53.9961 64.75C53.9961 63.45 54.4378 62.4667 55.3211 61.8C56.2044 61.1333 57.4794 60.8 59.1461 60.8H66.0211ZM66.0211 66.95C67.0211 66.95 67.7878 66.7667 68.3211 66.4C68.8544 66.0167 69.1211 65.4667 69.1211 64.75C69.1211 64.05 68.8544 63.5167 68.3211 63.15C67.7878 62.7667 67.0211 62.575 66.0211 62.575H59.1461C58.1294 62.575 57.3461 62.7583 56.7961 63.125C56.2461 63.4917 55.9711 64.0333 55.9711 64.75C55.9711 65.4667 56.2461 66.0167 56.7961 66.4C57.3461 66.7667 58.1294 66.95 59.1461 66.95H66.0211ZM62.7961 52.575V56.95H72.2961V58.675H52.8711V56.95H60.7461V52.575H62.7961ZM68.6961 49.525H54.3211V47.75H70.0211C70.5044 47.75 70.7461 47.9917 70.7461 48.475V51.75C70.7461 52.2 70.7378 52.5833 70.7211 52.9C70.7044 53.2 70.6628 53.4833 70.5961 53.75C70.5461 54 70.4628 54.2667 70.3461 54.55C70.2461 54.8333 70.0961 55.175 69.8961 55.575C69.5794 55.475 69.2628 55.3833 68.9461 55.3C68.6461 55.2167 68.3378 55.1333 68.0211 55.05C68.1544 54.7167 68.2628 54.425 68.3461 54.175C68.4461 53.925 68.5211 53.6833 68.5711 53.45C68.6211 53.2167 68.6544 52.975 68.6711 52.725C68.6878 52.4583 68.6961 52.15 68.6961 51.8V49.525ZM88.775 60.8C90.4583 60.8 91.725 61.1417 92.575 61.825C93.4417 62.4917 93.875 63.4667 93.875 64.75C93.875 66.05 93.4417 67.0333 92.575 67.7C91.725 68.3667 90.4583 68.7 88.775 68.7H81.9C80.2333 68.7 78.9583 68.3667 78.075 67.7C77.1917 67.0333 76.75 66.05 76.75 64.75C76.75 63.45 77.1917 62.4667 78.075 61.8C78.9583 61.1333 80.2333 60.8 81.9 60.8H88.775ZM88.775 66.95C89.775 66.95 90.5417 66.7667 91.075 66.4C91.6083 66.0167 91.875 65.4667 91.875 64.75C91.875 64.05 91.6083 63.5167 91.075 63.15C90.5417 62.7667 89.775 62.575 88.775 62.575H81.9C80.8833 62.575 80.1 62.7583 79.55 63.125C79 63.4917 78.725 64.0333 78.725 64.75C78.725 65.4667 79 66.0167 79.55 66.4C80.1 66.7667 80.8833 66.95 81.9 66.95H88.775ZM85.55 52.575V56.95H95.05V58.675H75.625V56.95H83.5V52.575H85.55ZM91.45 49.525H77.075V47.75H92.775C93.2583 47.75 93.5 47.9917 93.5 48.475V51.75C93.5 52.2 93.4917 52.5833 93.475 52.9C93.4583 53.2 93.4167 53.4833 93.35 53.75C93.3 54 93.2167 54.2667 93.1 54.55C93 54.8333 92.85 55.175 92.65 55.575C92.3333 55.475 92.0167 55.3833 91.7 55.3C91.4 55.2167 91.0917 55.1333 90.775 55.05C90.9083 54.7167 91.0167 54.425 91.1 54.175C91.2 53.925 91.275 53.6833 91.325 53.45C91.375 53.2167 91.4083 52.975 91.425 52.725C91.4417 52.4583 91.45 52.15 91.45 51.8V49.525Z" fill="black"/>
<rect y="133.252" width="148.259" height="97.4964" fill="#FFE697"/>
<path d="M205.469 182L148.059 230.497L148.059 133.503L205.469 182Z" fill="#FFE697"/>
<path d="M51.2941 175.775H42.4691V174.05H52.4441C53.0275 174.05 53.3191 174.325 53.3191 174.875V182.475C53.3191 183.392 52.8358 183.85 51.8691 183.85H44.4941V188.775C44.4941 189.008 44.5775 189.208 44.7441 189.375L45.7441 190.45C45.9108 190.617 46.1275 190.7 46.3941 190.7H54.2441V192.425H45.9441C45.5441 192.425 45.2358 192.392 45.0191 192.325C44.8191 192.242 44.5858 192.05 44.3191 191.75L43.0691 190.4C42.8358 190.133 42.6691 189.892 42.5691 189.675C42.4858 189.458 42.4441 189.1 42.4441 188.6V182.925C42.4441 182.408 42.7275 182.15 43.2941 182.15H51.0941C51.2275 182.15 51.2941 182.083 51.2941 181.95V175.775ZM60.3441 173.075V194.5H58.3191V173.075H60.3441ZM64.698 174.775C64.698 174.225 64.9814 173.95 65.548 173.95H73.048V175.75H66.748V182.1H72.298V183.825H66.748V188.1C66.748 188.517 66.798 188.817 66.898 189C66.998 189.167 67.123 189.333 67.273 189.5L67.823 190.125C67.973 190.292 68.1397 190.425 68.323 190.525C68.5064 190.608 68.7397 190.65 69.023 190.65H73.323V192.475H68.648C68.348 192.475 68.0897 192.458 67.873 192.425C67.6564 192.392 67.4564 192.342 67.273 192.275C67.1064 192.192 66.9397 192.083 66.773 191.95C66.623 191.817 66.4564 191.65 66.273 191.45L65.648 190.7C65.4814 190.517 65.3314 190.35 65.198 190.2C65.0814 190.033 64.9814 189.858 64.898 189.675C64.8314 189.492 64.7814 189.283 64.748 189.05C64.7147 188.817 64.698 188.525 64.698 188.175V174.775ZM79.048 173.225V194.35H77.048V183.5H73.723V181.725H77.048V173.225H79.048ZM81.848 173.075H83.873V194.5H81.848V173.075ZM105.852 173.075V183.4H103.827V173.075H105.852ZM103.852 186.475H89.702V184.75H105.202C105.635 184.75 105.852 184.95 105.852 185.35V189.05C105.852 189.5 105.71 189.842 105.427 190.075C105.144 190.308 104.76 190.425 104.277 190.425H91.702V191.925C91.702 192.108 91.7686 192.25 91.902 192.35L92.327 192.725C92.4436 192.825 92.5853 192.875 92.752 192.875H106.402V194.6H92.302C92.0686 194.6 91.852 194.575 91.652 194.525C91.4686 194.492 91.3103 194.408 91.177 194.275L90.127 193.275C89.8436 193.008 89.702 192.658 89.702 192.225V189.375C89.702 188.958 89.927 188.75 90.377 188.75H103.577C103.76 188.75 103.852 188.658 103.852 188.475V186.475ZM98.752 178.525C98.752 179.208 98.6186 179.858 98.352 180.475C98.102 181.075 97.7353 181.6 97.252 182.05C96.7853 182.5 96.2103 182.858 95.527 183.125C94.8436 183.392 94.0853 183.525 93.252 183.525C92.4186 183.525 91.652 183.392 90.952 183.125C90.2686 182.858 89.6853 182.5 89.202 182.05C88.7186 181.6 88.3436 181.075 88.077 180.475C87.8103 179.858 87.677 179.208 87.677 178.525V177.9C87.677 177.217 87.8103 176.575 88.077 175.975C88.3436 175.358 88.7186 174.825 89.202 174.375C89.6853 173.925 90.2686 173.575 90.952 173.325C91.652 173.058 92.4186 172.925 93.252 172.925C94.0853 172.925 94.8436 173.058 95.527 173.325C96.2103 173.575 96.7853 173.925 97.252 174.375C97.7353 174.825 98.102 175.358 98.352 175.975C98.6186 176.575 98.752 177.217 98.752 177.9V178.525ZM96.802 177.9C96.802 177.45 96.7103 177.033 96.527 176.65C96.3436 176.25 96.0936 175.908 95.777 175.625C95.4603 175.325 95.0853 175.092 94.652 174.925C94.2186 174.758 93.752 174.675 93.252 174.675C92.7353 174.675 92.2603 174.758 91.827 174.925C91.3936 175.092 91.0186 175.325 90.702 175.625C90.402 175.908 90.1603 176.25 89.977 176.65C89.8103 177.033 89.727 177.45 89.727 177.9V178.525C89.727 178.975 89.8103 179.4 89.977 179.8C90.1603 180.183 90.402 180.525 90.702 180.825C91.0186 181.108 91.3936 181.333 91.827 181.5C92.2603 181.667 92.7353 181.75 93.252 181.75C93.752 181.75 94.2186 181.667 94.652 181.5C95.0853 181.333 95.4603 181.108 95.777 180.825C96.0936 180.525 96.3436 180.183 96.527 179.8C96.7103 179.4 96.802 178.975 96.802 178.525V177.9Z" fill="black"/>
<rect y="259.252" width="148.259" height="97.4964" fill="#FFE697"/>
<path d="M205.469 308L148.059 356.497L148.059 259.503L205.469 308Z" fill="#FFE697"/>
<path d="M54.0961 313.225C54.0961 312.758 54.3378 312.525 54.8211 312.525H70.2711C70.7711 312.525 71.0211 312.758 71.0211 313.225V319.575C71.0211 320.108 70.7461 320.375 70.1961 320.375H54.9211C54.3711 320.375 54.0961 320.108 54.0961 319.575V313.225ZM52.8211 310V308.3H68.0711C68.2211 308.017 68.3378 307.775 68.4211 307.575C68.5211 307.358 68.5961 307.158 68.6461 306.975C68.6961 306.792 68.7211 306.608 68.7211 306.425C68.7378 306.242 68.7461 306.033 68.7461 305.8V301.525H54.3711V299.75H70.0961C70.5628 299.75 70.7961 299.992 70.7961 300.475V305.5C70.7961 305.833 70.7878 306.117 70.7711 306.35C70.7711 306.567 70.7461 306.775 70.6961 306.975C70.6461 307.175 70.5711 307.383 70.4711 307.6C70.3711 307.8 70.2378 308.033 70.0711 308.3H72.3211V310H52.8211ZM68.9961 318.65V314.225H56.1461V318.65H68.9961ZM76.625 316.75C76.625 315.65 76.9667 314.775 77.65 314.125C78.35 313.475 79.35 313.083 80.65 312.95V310.4H75.625V308.65H95.025V310.4H90.05V312.95C91.3333 313.1 92.3 313.5 92.95 314.15C93.6167 314.8 93.95 315.667 93.95 316.75C93.95 317.967 93.5167 318.908 92.65 319.575C91.7833 320.242 90.5167 320.575 88.85 320.575H81.775C80.125 320.575 78.85 320.242 77.95 319.575C77.0667 318.908 76.625 317.967 76.625 316.75ZM88.575 298.925C89.4917 298.925 90.2833 299.025 90.95 299.225C91.6167 299.425 92.1583 299.708 92.575 300.075C93.0083 300.425 93.325 300.85 93.525 301.35C93.725 301.833 93.825 302.367 93.825 302.95C93.825 303.533 93.725 304.075 93.525 304.575C93.325 305.075 93.0083 305.508 92.575 305.875C92.1583 306.225 91.6167 306.5 90.95 306.7C90.2833 306.9 89.4917 307 88.575 307H82.025C81.1083 307 80.3167 306.9 79.65 306.7C79 306.5 78.4583 306.225 78.025 305.875C77.6083 305.508 77.3 305.075 77.1 304.575C76.9 304.075 76.8 303.533 76.8 302.95C76.8 302.367 76.9 301.833 77.1 301.35C77.3 300.85 77.6083 300.425 78.025 300.075C78.4583 299.708 79 299.425 79.65 299.225C80.3167 299.025 81.1083 298.925 82.025 298.925H88.575ZM88.575 305.275C89.175 305.275 89.675 305.217 90.075 305.1C90.4917 304.967 90.825 304.8 91.075 304.6C91.3417 304.383 91.525 304.133 91.625 303.85C91.7417 303.567 91.8 303.267 91.8 302.95C91.8 302.65 91.7417 302.358 91.625 302.075C91.525 301.792 91.3417 301.55 91.075 301.35C90.825 301.133 90.4917 300.967 90.075 300.85C89.675 300.717 89.175 300.65 88.575 300.65H82.025C81.425 300.65 80.925 300.717 80.525 300.85C80.125 300.967 79.8 301.133 79.55 301.35C79.3 301.55 79.1167 301.792 79 302.075C78.9 302.358 78.85 302.65 78.85 302.95C78.85 303.267 78.9 303.567 79 303.85C79.1167 304.133 79.3 304.383 79.55 304.6C79.8 304.8 80.125 304.967 80.525 305.1C80.925 305.217 81.425 305.275 82.025 305.275H88.575ZM88.85 318.825C89.85 318.825 90.6167 318.642 91.15 318.275C91.6833 317.892 91.95 317.383 91.95 316.75C91.95 316.083 91.6833 315.567 91.15 315.2C90.6167 314.833 89.85 314.65 88.85 314.65H81.775C80.7583 314.65 79.975 314.833 79.425 315.2C78.875 315.55 78.6 316.067 78.6 316.75C78.6 317.383 78.875 317.892 79.425 318.275C79.975 318.642 80.7583 318.825 81.775 318.825H88.85ZM82.675 312.875H87.975V310.4H82.675V312.875Z" fill="black"/>
<rect y="385.252" width="148.259" height="97.4964" fill="#FFE697"/>
<path d="M205.469 434L148.059 482.497L148.059 385.503L205.469 434Z" fill="#FFE697"/>
<path d="M68.7961 427.825H54.1961V426.075H69.9961C70.5461 426.075 70.8211 426.35 70.8211 426.9V435.375C70.8211 435.825 70.8128 436.217 70.7961 436.55C70.7961 436.867 70.7628 437.175 70.6961 437.475C70.6461 437.775 70.5544 438.1 70.4211 438.45C70.3044 438.8 70.1378 439.233 69.9211 439.75L68.0711 439.3C68.2378 438.85 68.3711 438.467 68.4711 438.15C68.5711 437.833 68.6461 437.542 68.6961 437.275C68.7461 437.008 68.7711 436.742 68.7711 436.475C68.7878 436.208 68.7961 435.892 68.7961 435.525V427.825ZM59.5461 433.475V443.675H62.9461V433.475H65.0211V443.675H72.2961V445.4H52.7961V443.675H57.5211V433.475H59.5461ZM88.575 425.45C90.4083 425.45 91.7417 425.8 92.575 426.5C93.4083 427.183 93.825 428.108 93.825 429.275C93.825 430.425 93.4083 431.35 92.575 432.05C91.7417 432.733 90.4083 433.075 88.575 433.075H82.025C80.1917 433.075 78.8583 432.733 78.025 432.05C77.2083 431.35 76.8 430.425 76.8 429.275C76.8 428.108 77.2083 427.183 78.025 426.5C78.8583 425.8 80.1917 425.45 82.025 425.45H88.575ZM80.4 439.7V436.65H75.625V434.9H95.025V436.65H90.275V439.7H92.775C93.2583 439.7 93.5 439.933 93.5 440.4V446.9H91.475V441.45H76.825V439.7H80.4ZM88.575 431.35C89.775 431.35 90.6083 431.158 91.075 430.775C91.5583 430.392 91.8 429.892 91.8 429.275C91.8 428.642 91.5583 428.133 91.075 427.75C90.6083 427.367 89.775 427.175 88.575 427.175H82.025C80.8417 427.175 80.0167 427.375 79.55 427.775C79.0833 428.158 78.85 428.658 78.85 429.275C78.85 429.892 79.0833 430.392 79.55 430.775C80.0167 431.158 80.8417 431.35 82.025 431.35H88.575ZM82.475 439.7H88.225V436.65H82.475V439.7Z" fill="black"/>
<rect y="511.252" width="148.259" height="97.4964" fill="#FFE697"/>
<path d="M205.469 560L148.059 608.497L148.059 511.503L205.469 560Z" fill="#FFE697"/>
<path d="M18.7883 571.125V569.375H38.3133V571.125H18.7883ZM30.1133 557.45C31.3633 558.567 32.6716 559.642 34.0383 560.675C35.4216 561.708 36.7633 562.65 38.0633 563.5L36.9383 564.95C35.6216 564.017 34.2549 563.017 32.8383 561.95C31.4216 560.883 30.1133 559.817 28.9133 558.75C28.8466 558.7 28.7799 558.642 28.7133 558.575C28.6466 558.492 28.5966 558.4 28.5633 558.3C28.5299 558.4 28.4799 558.492 28.4133 558.575C28.3466 558.642 28.2799 558.7 28.2133 558.75C27.0133 559.833 25.7049 560.9 24.2883 561.95C22.8883 563 21.5133 564.025 20.1633 565.025L19.0133 563.55C20.3633 562.55 21.7216 561.55 23.0883 560.55C24.4716 559.533 25.7466 558.5 26.9133 557.45C27.1466 557.217 27.3049 557.017 27.3883 556.85C27.4883 556.667 27.5383 556.392 27.5383 556.025V551.6H29.5633V556C29.5633 556.367 29.5966 556.65 29.6633 556.85C29.7299 557.033 29.8799 557.233 30.1133 557.45ZM58.7422 551.075V559.5H62.3422V561.275H58.7422V572.5H56.6672V551.075H58.7422ZM45.4422 570.5C45.2089 570.5 45.0089 570.492 44.8422 570.475C44.6755 570.442 44.5172 570.4 44.3672 570.35C44.2339 570.283 44.1005 570.2 43.9672 570.1C43.8339 570 43.6839 569.867 43.5172 569.7L42.2672 568.425C42.1339 568.292 42.0255 568.167 41.9422 568.05C41.8755 567.933 41.8172 567.808 41.7672 567.675C41.7339 567.525 41.7089 567.358 41.6922 567.175C41.6922 566.992 41.6922 566.758 41.6922 566.475V552.6C41.6922 552.133 41.9339 551.9 42.4172 551.9H51.4422C51.9255 551.9 52.1672 552.133 52.1672 552.6V569.675C52.1672 570.225 51.8922 570.5 51.3422 570.5H45.4422ZM43.7172 566.375C43.7172 566.742 43.8089 567.017 43.9922 567.2L45.1422 568.375C45.3422 568.575 45.5755 568.675 45.8422 568.675H50.1172V553.675H43.7172V566.375ZM65.8711 552.9C65.8711 552.367 66.1628 552.1 66.7461 552.1H82.1711V553.875H67.8961V557.525H81.7211V559.25H67.8961V561.125C67.8961 561.358 67.9128 561.533 67.9461 561.65C67.9961 561.767 68.0878 561.892 68.2211 562.025L68.9211 562.625C69.0378 562.742 69.1711 562.825 69.3211 562.875C69.4711 562.925 69.6794 562.95 69.9461 562.95H82.3961V564.775H69.6211C68.8544 564.775 68.2211 564.55 67.7211 564.1L66.6961 563.2C66.4128 562.95 66.2044 562.692 66.0711 562.425C65.9378 562.142 65.8711 561.808 65.8711 561.425V552.9ZM64.2961 571.125V569.375H83.8211V571.125H64.2961ZM101.2 551.225V556H104.25V551.075H106.25V563.775H104.25V557.775H101.2V563.6H99.2V551.225H101.2ZM105.5 565.025C106 565.025 106.25 565.258 106.25 565.725V572.9H104.25V566.775H88.925V565.025H105.5ZM90.075 561.1H92.85V553.3H90.075V561.1ZM94.85 561.1H97.225V562.8H86.05V561.1H88.05V553.3H86.05V551.6H97V553.3H94.85V561.1ZM111.229 552.65C111.229 552.133 111.521 551.875 112.104 551.875H127.779V553.65H113.279V557.575H127.304V559.3H113.279V561.575C113.279 561.825 113.296 562 113.329 562.1C113.362 562.2 113.446 562.317 113.579 562.45L114.254 563.05C114.387 563.183 114.529 563.275 114.679 563.325C114.829 563.358 115.037 563.375 115.304 563.375H128.004V565.2H120.554V569.525H129.354V571.325H109.854V569.525H118.529V565.2H115.029C114.596 565.2 114.221 565.15 113.904 565.05C113.604 564.95 113.329 564.783 113.079 564.55L112.054 563.625C111.771 563.375 111.562 563.117 111.429 562.85C111.296 562.567 111.229 562.233 111.229 561.85V552.65ZM141.933 553.775H133.108V552.05H143.083C143.666 552.05 143.958 552.325 143.958 552.875V560.475C143.958 561.392 143.474 561.85 142.508 561.85H135.133V566.775C135.133 567.008 135.216 567.208 135.383 567.375L136.383 568.45C136.549 568.617 136.766 568.7 137.033 568.7H144.883V570.425H136.583C136.183 570.425 135.874 570.392 135.658 570.325C135.458 570.242 135.224 570.05 134.958 569.75L133.708 568.4C133.474 568.133 133.308 567.892 133.208 567.675C133.124 567.458 133.083 567.1 133.083 566.6V560.925C133.083 560.408 133.366 560.15 133.933 560.15H141.733C141.866 560.15 141.933 560.083 141.933 559.95V553.775ZM150.983 551.075V572.5H148.958V551.075H150.983Z" fill="black"/>
<rect y="637.252" width="148.259" height="97.4964" fill="#FFE697"/>
<path d="M205.469 686L148.059 734.497L148.059 637.503L205.469 686Z" fill="#FFE697"/>
<path d="M66.0211 690.8C67.7044 690.8 68.9711 691.142 69.8211 691.825C70.6878 692.492 71.1211 693.467 71.1211 694.75C71.1211 696.05 70.6878 697.033 69.8211 697.7C68.9711 698.367 67.7044 698.7 66.0211 698.7H59.1461C57.4794 698.7 56.2044 698.367 55.3211 697.7C54.4378 697.033 53.9961 696.05 53.9961 694.75C53.9961 693.45 54.4378 692.467 55.3211 691.8C56.2044 691.133 57.4794 690.8 59.1461 690.8H66.0211ZM66.0211 696.95C67.0211 696.95 67.7878 696.767 68.3211 696.4C68.8544 696.017 69.1211 695.467 69.1211 694.75C69.1211 694.05 68.8544 693.517 68.3211 693.15C67.7878 692.767 67.0211 692.575 66.0211 692.575H59.1461C58.1294 692.575 57.3461 692.758 56.7961 693.125C56.2461 693.492 55.9711 694.033 55.9711 694.75C55.9711 695.467 56.2461 696.017 56.7961 696.4C57.3461 696.767 58.1294 696.95 59.1461 696.95H66.0211ZM62.7961 682.575V686.95H72.2961V688.675H52.8711V686.95H60.7461V682.575H62.7961ZM68.6961 679.525H54.3211V677.75H70.0211C70.5044 677.75 70.7461 677.992 70.7461 678.475V681.75C70.7461 682.2 70.7378 682.583 70.7211 682.9C70.7044 683.2 70.6628 683.483 70.5961 683.75C70.5461 684 70.4628 684.267 70.3461 684.55C70.2461 684.833 70.0961 685.175 69.8961 685.575C69.5794 685.475 69.2628 685.383 68.9461 685.3C68.6461 685.217 68.3378 685.133 68.0211 685.05C68.1544 684.717 68.2628 684.425 68.3461 684.175C68.4461 683.925 68.5211 683.683 68.5711 683.45C68.6211 683.217 68.6544 682.975 68.6711 682.725C68.6878 682.458 68.6961 682.15 68.6961 681.8V679.525ZM88.775 690.8C90.4583 690.8 91.725 691.142 92.575 691.825C93.4417 692.492 93.875 693.467 93.875 694.75C93.875 696.05 93.4417 697.033 92.575 697.7C91.725 698.367 90.4583 698.7 88.775 698.7H81.9C80.2333 698.7 78.9583 698.367 78.075 697.7C77.1917 697.033 76.75 696.05 76.75 694.75C76.75 693.45 77.1917 692.467 78.075 691.8C78.9583 691.133 80.2333 690.8 81.9 690.8H88.775ZM88.775 696.95C89.775 696.95 90.5417 696.767 91.075 696.4C91.6083 696.017 91.875 695.467 91.875 694.75C91.875 694.05 91.6083 693.517 91.075 693.15C90.5417 692.767 89.775 692.575 88.775 692.575H81.9C80.8833 692.575 80.1 692.758 79.55 693.125C79 693.492 78.725 694.033 78.725 694.75C78.725 695.467 79 696.017 79.55 696.4C80.1 696.767 80.8833 696.95 81.9 696.95H88.775ZM85.55 682.575V686.95H95.05V688.675H75.625V686.95H83.5V682.575H85.55ZM91.45 679.525H77.075V677.75H92.775C93.2583 677.75 93.5 677.992 93.5 678.475V681.75C93.5 682.2 93.4917 682.583 93.475 682.9C93.4583 683.2 93.4167 683.483 93.35 683.75C93.3 684 93.2167 684.267 93.1 684.55C93 684.833 92.85 685.175 92.65 685.575C92.3333 685.475 92.0167 685.383 91.7 685.3C91.4 685.217 91.0917 685.133 90.775 685.05C90.9083 684.717 91.0167 684.425 91.1 684.175C91.2 683.925 91.275 683.683 91.325 683.45C91.375 683.217 91.4083 682.975 91.425 682.725C91.4417 682.458 91.45 682.15 91.45 681.8V679.525Z" fill="black"/>
<rect y="637.252" width="148.259" height="97.4964" fill="#FFE697"/>
<path d="M205.469 686L148.059 734.497L148.059 637.503L205.469 686Z" fill="#FFE697"/>
<path d="M14.9113 697.125V695.375H34.4363V697.125H14.9113ZM26.2363 683.45C27.4863 684.567 28.7947 685.642 30.1613 686.675C31.5447 687.708 32.8863 688.65 34.1863 689.5L33.0613 690.95C31.7447 690.017 30.378 689.017 28.9613 687.95C27.5447 686.883 26.2363 685.817 25.0363 684.75C24.9697 684.7 24.903 684.642 24.8363 684.575C24.7697 684.492 24.7197 684.4 24.6863 684.3C24.653 684.4 24.603 684.492 24.5363 684.575C24.4697 684.642 24.403 684.7 24.3363 684.75C23.1363 685.833 21.828 686.9 20.4113 687.95C19.0113 689 17.6363 690.025 16.2863 691.025L15.1363 689.55C16.4863 688.55 17.8447 687.55 19.2113 686.55C20.5947 685.533 21.8697 684.5 23.0363 683.45C23.2697 683.217 23.428 683.017 23.5113 682.85C23.6113 682.667 23.6613 682.392 23.6613 682.025V677.6H25.6863V682C25.6863 682.367 25.7197 682.65 25.7863 682.85C25.853 683.033 26.003 683.233 26.2363 683.45ZM54.8652 677.075V685.5H58.4652V687.275H54.8652V698.5H52.7902V677.075H54.8652ZM41.5652 696.5C41.3319 696.5 41.1319 696.492 40.9652 696.475C40.7986 696.442 40.6402 696.4 40.4902 696.35C40.3569 696.283 40.2236 696.2 40.0902 696.1C39.9569 696 39.8069 695.867 39.6402 695.7L38.3902 694.425C38.2569 694.292 38.1486 694.167 38.0652 694.05C37.9986 693.933 37.9402 693.808 37.8902 693.675C37.8569 693.525 37.8319 693.358 37.8152 693.175C37.8152 692.992 37.8152 692.758 37.8152 692.475V678.6C37.8152 678.133 38.0569 677.9 38.5402 677.9H47.5652C48.0486 677.9 48.2902 678.133 48.2902 678.6V695.675C48.2902 696.225 48.0152 696.5 47.4652 696.5H41.5652ZM39.8402 692.375C39.8402 692.742 39.9319 693.017 40.1152 693.2L41.2652 694.375C41.4652 694.575 41.6986 694.675 41.9652 694.675H46.2402V679.675H39.8402V692.375ZM61.9941 678.9C61.9941 678.367 62.2858 678.1 62.8691 678.1H78.2941V679.875H64.0191V683.525H77.8441V685.25H64.0191V687.125C64.0191 687.358 64.0358 687.533 64.0691 687.65C64.1191 687.767 64.2108 687.892 64.3441 688.025L65.0441 688.625C65.1608 688.742 65.2941 688.825 65.4441 688.875C65.5941 688.925 65.8025 688.95 66.0691 688.95H78.5191V690.775H65.7441C64.9775 690.775 64.3441 690.55 63.8441 690.1L62.8191 689.2C62.5358 688.95 62.3275 688.692 62.1941 688.425C62.0608 688.142 61.9941 687.808 61.9941 687.425V678.9ZM60.4191 697.125V695.375H79.9441V697.125H60.4191ZM93.898 689.35V695.525H102.698V697.325H83.198V695.525H91.873V689.35H88.273C88.023 689.35 87.8147 689.342 87.648 689.325C87.4814 689.308 87.323 689.275 87.173 689.225C87.0397 689.175 86.9064 689.1 86.773 689C86.6397 688.9 86.498 688.767 86.348 688.6L85.123 687.375C84.973 687.225 84.848 687.092 84.748 686.975C84.6647 686.842 84.598 686.7 84.548 686.55C84.498 686.4 84.4647 686.225 84.448 686.025C84.4314 685.825 84.423 685.583 84.423 685.3V678.675C84.423 678.192 84.6647 677.95 85.148 677.95H100.598C101.098 677.95 101.348 678.192 101.348 678.675V688.575C101.348 689.092 101.073 689.35 100.523 689.35H93.898ZM99.323 679.75H86.473V685.35C86.473 685.533 86.5064 685.7 86.573 685.85C86.6397 685.983 86.723 686.108 86.823 686.225L87.773 687.175C87.873 687.308 87.998 687.408 88.148 687.475C88.298 687.525 88.448 687.55 88.598 687.55H99.323V679.75ZM108.577 680.675H115.377V677.3H117.427V686.675C117.427 686.942 117.319 687.075 117.102 687.075H109.552C109.219 687.075 108.927 687.05 108.677 687C108.444 686.933 108.235 686.808 108.052 686.625L107.052 685.65C106.852 685.45 106.71 685.25 106.627 685.05C106.56 684.833 106.527 684.517 106.527 684.1V677.3H108.577V680.675ZM115.377 685.35V682.375H108.577V683.875C108.577 684.092 108.594 684.258 108.627 684.375C108.677 684.475 108.744 684.567 108.827 684.65L109.277 685.1C109.394 685.2 109.494 685.267 109.577 685.3C109.677 685.333 109.827 685.35 110.027 685.35H115.377ZM124.352 677.075V687.6H122.327V677.075H124.352ZM122.352 690.675H108.202V688.95H123.702C124.135 688.95 124.352 689.167 124.352 689.6V693.175C124.352 693.608 124.21 693.942 123.927 694.175C123.644 694.408 123.26 694.525 122.777 694.525H110.202V695.925C110.202 696.108 110.269 696.25 110.402 696.35L110.827 696.725C110.944 696.825 111.085 696.875 111.252 696.875H124.902V698.6H110.802C110.569 698.6 110.352 698.575 110.152 698.525C109.969 698.492 109.81 698.408 109.677 698.275L108.627 697.275C108.344 697.008 108.202 696.658 108.202 696.225V693.475C108.202 693.058 108.427 692.85 108.877 692.85H122.077C122.26 692.85 122.352 692.767 122.352 692.6V690.675ZM138.056 679.775H129.231V678.05H139.206C139.789 678.05 140.081 678.325 140.081 678.875V686.475C140.081 687.392 139.598 687.85 138.631 687.85H131.256V692.775C131.256 693.008 131.339 693.208 131.506 693.375L132.506 694.45C132.673 694.617 132.889 694.7 133.156 694.7H141.006V696.425H132.706C132.306 696.425 131.998 696.392 131.781 696.325C131.581 696.242 131.348 696.05 131.081 695.75L129.831 694.4C129.598 694.133 129.431 693.892 129.331 693.675C129.248 693.458 129.206 693.1 129.206 692.6V686.925C129.206 686.408 129.489 686.15 130.056 686.15H137.856C137.989 686.15 138.056 686.083 138.056 685.95V679.775ZM147.106 677.075V698.5H145.081V677.075H147.106ZM151.935 678.775C151.935 678.225 152.218 677.95 152.785 677.95H163.335V679.75H153.985V686.3H162.485V688.025H153.985V692.025C153.985 692.408 154.035 692.7 154.135 692.9C154.251 693.1 154.376 693.275 154.51 693.425L155.135 694.125C155.285 694.275 155.451 694.4 155.635 694.5C155.818 694.6 156.051 694.65 156.335 694.65H164.06V696.475H155.985C155.385 696.475 154.918 696.408 154.585 696.275C154.268 696.125 153.943 695.85 153.61 695.45L152.885 694.625C152.718 694.442 152.576 694.275 152.46 694.125C152.343 693.975 152.243 693.808 152.16 693.625C152.093 693.442 152.035 693.233 151.985 693C151.951 692.75 151.935 692.45 151.935 692.1V678.775ZM169.86 677.075V698.5H167.835V677.075H169.86Z" fill="black"/>
</svg>
