<svg width="994" height="742" viewBox="0 0 994 742" fill="none" xmlns="http://www.w3.org/2000/svg">
<rect x="249" y="398" width="340" height="340" fill="#376092"/>
<circle cx="622" cy="568" r="121" fill="white"/>
<circle cx="622" cy="568" r="77" fill="#558ED5"/>
<rect x="654" y="398" width="340" height="340" fill="#558ED5"/>
<circle cx="824" cy="379" r="121" fill="white"/>
<circle cx="824" cy="379" r="77" fill="#8EB4E3"/>
<rect x="654" y="5" width="340" height="340" fill="#8EB4E3"/>
<circle cx="622" cy="175" r="121" fill="white"/>
<circle cx="622" cy="175" r="77" fill="#DCE6F2"/>
<rect x="249" y="5" width="340" height="340" fill="#DCE6F2"/>
<circle cx="419" cy="370" r="121" fill="white"/>
<circle cx="419" cy="370" r="77" fill="#376092"/>
<rect x="249" y="398" width="331" height="49" fill="#376092"/>
<rect x="249" y="447" width="269" height="49" fill="#376092"/>
<path d="M296.734 148.22H302.134V152.36H285.754V148.22H291.766V129.644L285.538 134.684V129.14L291.766 124.1H295.546C296.338 124.1 296.734 124.508 296.734 125.324V148.22ZM308.084 147.572H312.548V152.36H308.084V147.572ZM343.977 123.308V134.864H348.153V138.896H343.977V154.16H339.333V123.308H343.977ZM326.769 123.236C328.089 123.236 329.253 123.452 330.261 123.884C331.293 124.316 332.145 124.94 332.817 125.756C333.513 126.548 334.029 127.508 334.365 128.636C334.725 129.74 334.905 130.976 334.905 132.344V142.856C334.905 144.224 334.725 145.46 334.365 146.564C334.029 147.668 333.513 148.616 332.817 149.408C332.145 150.2 331.293 150.812 330.261 151.244C329.253 151.676 328.089 151.892 326.769 151.892C325.425 151.892 324.249 151.676 323.241 151.244C322.233 150.812 321.393 150.2 320.721 149.408C320.049 148.616 319.533 147.668 319.173 146.564C318.837 145.46 318.669 144.224 318.669 142.856V132.344C318.669 130.976 318.837 129.74 319.173 128.636C319.533 127.508 320.049 126.548 320.721 125.756C321.417 124.94 322.269 124.316 323.277 123.884C324.285 123.452 325.449 123.236 326.769 123.236ZM330.333 132.344C330.333 130.568 329.985 129.284 329.289 128.492C328.617 127.7 327.777 127.304 326.769 127.304C325.761 127.304 324.921 127.7 324.249 128.492C323.601 129.284 323.277 130.568 323.277 132.344V142.856C323.277 144.632 323.601 145.916 324.249 146.708C324.897 147.5 325.737 147.896 326.769 147.896C327.777 147.896 328.617 147.5 329.289 146.708C329.985 145.916 330.333 144.632 330.333 142.856V132.344ZM378.039 123.308V154.16H373.431V123.308H378.039ZM360.003 123.236C361.347 123.236 362.523 123.452 363.531 123.884C364.563 124.316 365.415 124.94 366.087 125.756C366.759 126.548 367.263 127.508 367.599 128.636C367.935 129.74 368.103 130.976 368.103 132.344V142.856C368.103 144.224 367.935 145.46 367.599 146.564C367.263 147.668 366.759 148.616 366.087 149.408C365.415 150.2 364.563 150.812 363.531 151.244C362.523 151.676 361.347 151.892 360.003 151.892C358.659 151.892 357.483 151.676 356.475 151.244C355.491 150.812 354.663 150.2 353.991 149.408C353.319 148.616 352.815 147.668 352.479 146.564C352.167 145.46 352.011 144.224 352.011 142.856V132.344C352.011 130.976 352.179 129.74 352.515 128.636C352.851 127.508 353.343 126.548 353.991 125.756C354.663 124.94 355.491 124.316 356.475 123.884C357.483 123.452 358.659 123.236 360.003 123.236ZM363.459 132.344C363.459 130.568 363.147 129.284 362.523 128.492C361.899 127.7 361.059 127.304 360.003 127.304C358.995 127.304 358.179 127.7 357.555 128.492C356.931 129.284 356.619 130.568 356.619 132.344V142.856C356.619 144.632 356.931 145.916 357.555 146.708C358.179 147.5 358.995 147.896 360.003 147.896C361.059 147.896 361.899 147.5 362.523 146.708C363.147 145.916 363.459 144.632 363.459 142.856V132.344ZM410.804 123.308V154.16H406.196V123.308H410.804ZM402.308 147.716V151.712H390.86C390.452 151.712 390.104 151.7 389.816 151.676C389.528 151.628 389.264 151.556 389.024 151.46C388.784 151.364 388.556 151.232 388.34 151.064C388.124 150.896 387.884 150.668 387.62 150.38L385.856 148.436C385.616 148.172 385.424 147.932 385.28 147.716C385.136 147.5 385.016 147.284 384.92 147.068C384.848 146.828 384.788 146.552 384.74 146.24C384.716 145.928 384.704 145.556 384.704 145.124V125.504C384.704 124.616 385.124 124.172 385.964 124.172H401.084V128.096H389.384V145.124C389.384 145.484 389.528 145.82 389.816 146.132L390.86 147.32C390.98 147.488 391.112 147.596 391.256 147.644C391.4 147.692 391.556 147.716 391.724 147.716H402.308ZM443.57 123.308V154.16H439.07V139.436H433.526V142.856C433.526 144.224 433.358 145.46 433.022 146.564C432.686 147.668 432.17 148.616 431.474 149.408C430.802 150.2 429.962 150.812 428.954 151.244C427.946 151.676 426.782 151.892 425.462 151.892C424.142 151.892 422.978 151.676 421.97 151.244C420.986 150.812 420.158 150.2 419.486 149.408C418.838 148.616 418.346 147.668 418.01 146.564C417.698 145.46 417.542 144.224 417.542 142.856V132.344C417.542 130.976 417.71 129.74 418.046 128.636C418.382 127.508 418.874 126.548 419.522 125.756C420.194 124.94 421.022 124.316 422.006 123.884C422.99 123.452 424.142 123.236 425.462 123.236C426.782 123.236 427.946 123.452 428.954 123.884C429.962 124.316 430.802 124.94 431.474 125.756C432.17 126.548 432.686 127.508 433.022 128.636C433.358 129.74 433.526 130.976 433.526 132.344V135.476H439.07V123.308H443.57ZM428.882 132.344C428.882 130.568 428.57 129.284 427.946 128.492C427.322 127.7 426.494 127.304 425.462 127.304C424.478 127.304 423.674 127.7 423.05 128.492C422.426 129.284 422.114 130.568 422.114 132.344V142.856C422.114 144.632 422.414 145.916 423.014 146.708C423.638 147.5 424.454 147.896 425.462 147.896C426.494 147.896 427.322 147.5 427.946 146.708C428.57 145.916 428.882 144.632 428.882 142.856V132.344ZM465.715 138.32V140.192H477.307V144.008H449.623V140.192H461.071V138.32H454.915C454.339 138.32 453.907 138.248 453.619 138.104C453.331 137.96 453.031 137.72 452.719 137.384L452.179 136.808C451.987 136.616 451.831 136.448 451.711 136.304C451.615 136.16 451.531 136.004 451.459 135.836C451.411 135.644 451.375 135.44 451.351 135.224C451.327 134.984 451.315 134.696 451.315 134.36V124.784C451.315 123.896 451.747 123.452 452.611 123.452H475.219V127.232H455.887V128.96H474.535V132.632H455.887V133.82C455.887 133.964 455.935 134.072 456.031 134.144L456.283 134.36C456.355 134.432 456.439 134.468 456.535 134.468H475.291V138.32H465.715ZM476.119 150.38V154.232H455.671C454.975 154.232 454.447 154.148 454.087 153.98C453.751 153.836 453.391 153.56 453.007 153.152L452.215 152.36C451.999 152.144 451.819 151.952 451.675 151.784C451.555 151.616 451.459 151.424 451.387 151.208C451.315 150.992 451.267 150.752 451.243 150.488C451.219 150.224 451.207 149.888 451.207 149.48V145.304H455.851V149.048C455.851 149.312 455.935 149.516 456.103 149.66L456.499 150.128C456.667 150.296 456.859 150.38 457.075 150.38H476.119ZM490.619 148.22C492.587 146.684 494.243 145.34 495.587 144.188C496.955 143.036 498.071 142.016 498.935 141.128C499.727 140.336 500.351 139.64 500.807 139.04C501.263 138.416 501.599 137.852 501.815 137.348C502.031 136.844 502.163 136.388 502.211 135.98C502.283 135.548 502.319 135.116 502.319 134.684V128.312H491.555V124.28H505.667C506.531 124.28 506.963 124.724 506.963 125.612V134.324C506.963 135.236 506.903 136.064 506.783 136.808C506.687 137.552 506.471 138.284 506.135 139.004C505.823 139.7 505.367 140.432 504.767 141.2C504.191 141.944 503.411 142.784 502.427 143.72C501.395 144.776 500.135 145.94 498.647 147.212C497.183 148.46 495.395 149.876 493.283 151.46L490.619 148.22ZM517.187 123.308V154.16H512.579V123.308H517.187ZM528.317 141.236C527.621 141.236 527.069 141.164 526.661 141.02C526.277 140.852 525.905 140.564 525.545 140.156L524.213 138.752C523.829 138.368 523.565 137.996 523.421 137.636C523.277 137.252 523.205 136.7 523.205 135.98V124.136H527.849V128.852H534.689V124.136H539.333V139.904C539.333 140.792 538.901 141.236 538.037 141.236H528.317ZM548.657 123.308V131.48H552.833V135.44H548.657V146.168H544.013V123.308H548.657ZM549.089 150.596V154.592H530.009C529.289 154.592 528.749 154.508 528.389 154.34C528.029 154.196 527.669 153.92 527.309 153.512L526.265 152.432C526.073 152.216 525.905 152.024 525.761 151.856C525.641 151.664 525.545 151.46 525.473 151.244C525.401 151.028 525.341 150.788 525.293 150.524C525.269 150.236 525.257 149.888 525.257 149.48V143.864H529.793V148.868C529.793 149.228 529.877 149.492 530.045 149.66L530.693 150.38C530.789 150.452 530.873 150.512 530.945 150.56C531.041 150.584 531.185 150.596 531.377 150.596H549.089ZM534.689 137.204V132.812H527.849V135.548C527.849 135.812 527.945 136.04 528.137 136.232L528.749 136.916C528.941 137.108 529.169 137.204 529.433 137.204H534.689ZM352.35 175.596H376.758V179.628H367.074V180.78C367.074 181.068 367.086 181.32 367.11 181.536C367.134 181.728 367.194 181.908 367.29 182.076C367.386 182.22 367.506 182.364 367.65 182.508C367.818 182.652 368.034 182.808 368.298 182.976C369.81 183.912 371.358 184.788 372.942 185.604C374.55 186.42 376.182 187.212 377.838 187.98L375.93 191.616C374.106 190.776 372.318 189.888 370.566 188.952C368.838 188.016 367.17 187.044 365.562 186.036C365.298 185.844 365.082 185.7 364.914 185.604C364.746 185.484 364.638 185.34 364.59 185.172C364.542 185.34 364.434 185.484 364.266 185.604C364.122 185.724 363.93 185.868 363.69 186.036C360.378 188.148 356.922 190.068 353.322 191.796L351.342 188.16C353.142 187.32 354.81 186.48 356.346 185.64C357.906 184.776 359.406 183.888 360.846 182.976C361.086 182.808 361.278 182.652 361.422 182.508C361.59 182.364 361.722 182.22 361.818 182.076C361.914 181.908 361.974 181.728 361.998 181.536C362.022 181.32 362.034 181.068 362.034 180.78V179.628H352.35V175.596ZM362.286 206.7V197.448H350.694V193.416H378.378V197.448H366.93V206.7H362.286ZM392.963 191.256C393.731 192.768 394.583 194.34 395.519 195.972C396.455 197.604 397.391 199.14 398.327 200.58L395.195 202.956C394.355 201.636 393.503 200.256 392.639 198.816C391.799 197.376 390.995 195.984 390.227 194.64C390.155 194.52 390.083 194.4 390.011 194.28C389.963 194.136 389.915 193.968 389.867 193.776C389.819 193.968 389.771 194.136 389.723 194.28C389.675 194.4 389.615 194.52 389.543 194.64C388.847 196.08 388.127 197.52 387.383 198.96C386.663 200.4 385.883 201.84 385.043 203.28L381.587 201.12C382.499 199.608 383.387 198.012 384.251 196.332C385.139 194.628 385.931 192.984 386.627 191.4C386.939 190.704 387.167 190.044 387.311 189.42C387.479 188.796 387.563 188.088 387.563 187.296V180.348H382.199V176.388H397.139V180.348H392.027V187.296C392.027 188.088 392.099 188.772 392.243 189.348C392.387 189.924 392.627 190.56 392.963 191.256ZM404.231 175.524V205.944H399.803V190.248H395.591V186.252H399.803V175.524H404.231ZM406.499 175.308H410.999V206.16H406.499V175.308ZM450.699 193.812H440.547V201.264H452.031V205.296H424.347V201.264H435.903V193.812H431.151C430.815 193.812 430.527 193.8 430.287 193.776C430.047 193.728 429.819 193.656 429.603 193.56C429.387 193.44 429.171 193.296 428.955 193.128C428.739 192.96 428.499 192.732 428.235 192.444L426.615 190.608C426.135 190.128 425.811 189.696 425.643 189.312C425.499 188.904 425.427 188.316 425.427 187.548V177.432C425.427 176.544 425.871 176.1 426.759 176.1H450.627V180.132H430.107V187.008C430.107 187.224 430.131 187.416 430.179 187.584C430.227 187.728 430.323 187.872 430.467 188.016L431.655 189.348C431.799 189.468 431.919 189.564 432.015 189.636C432.111 189.684 432.255 189.708 432.447 189.708H450.699V193.812ZM481.989 193.992C482.853 193.992 483.285 194.424 483.285 195.288V199.14C483.285 199.86 483.057 200.472 482.601 200.976C482.145 201.48 481.497 201.732 480.657 201.732H462.981V202.632C462.981 202.776 463.017 202.884 463.089 202.956L463.197 203.064C463.269 203.136 463.377 203.172 463.521 203.172H484.077V206.556H461.721C461.193 206.556 460.809 206.484 460.569 206.34C460.329 206.22 460.053 206.028 459.741 205.764L459.309 205.26C458.997 204.948 458.793 204.66 458.697 204.396C458.601 204.132 458.553 203.712 458.553 203.136V199.824C458.553 199.416 458.673 199.14 458.913 198.996C459.153 198.828 459.477 198.744 459.885 198.744H478.497C478.713 198.744 478.821 198.588 478.821 198.276V197.376H458.589V193.992H468.669V191.724H457.077V188.232H484.761V191.724H473.313V193.992H481.989ZM459.201 175.992H468.597V173.76H473.313V175.992H482.709V179.592H473.421C473.421 179.928 473.517 180.18 473.709 180.348C473.901 180.516 474.225 180.696 474.681 180.888C476.193 181.416 477.681 181.884 479.145 182.292C480.633 182.7 482.157 183.096 483.717 183.48L482.529 186.828C480.729 186.396 478.977 185.94 477.273 185.46C475.569 184.956 473.889 184.416 472.233 183.84C471.849 183.72 471.561 183.612 471.369 183.516C471.201 183.42 471.069 183.276 470.973 183.084C470.877 183.276 470.745 183.42 470.577 183.516C470.433 183.612 470.181 183.72 469.821 183.84C468.093 184.392 466.377 184.932 464.673 185.46C462.969 185.964 461.217 186.444 459.417 186.9L458.229 183.48C459.789 183.096 461.301 182.7 462.765 182.292C464.253 181.86 465.765 181.38 467.301 180.852C467.709 180.684 467.997 180.516 468.165 180.348C468.357 180.18 468.465 179.928 468.489 179.592H459.201V175.992Z" fill="black"/>
<path d="M779.317 158.58L787.561 149.94C788.185 149.268 788.797 148.596 789.397 147.924C790.021 147.228 790.573 146.532 791.053 145.836C791.533 145.14 791.917 144.432 792.205 143.712C792.517 142.992 792.673 142.248 792.673 141.48C792.673 140.952 792.565 140.46 792.349 140.004C792.157 139.548 791.893 139.152 791.557 138.816C791.221 138.48 790.813 138.216 790.333 138.024C789.853 137.832 789.349 137.736 788.821 137.736C787.669 137.736 786.721 138.096 785.977 138.816C785.233 139.536 784.753 140.46 784.537 141.588H779.569C779.689 140.412 779.989 139.332 780.469 138.348C780.949 137.364 781.573 136.524 782.341 135.828C783.133 135.132 784.057 134.592 785.113 134.208C786.193 133.8 787.381 133.596 788.677 133.596C790.141 133.596 791.425 133.788 792.529 134.172C793.657 134.556 794.593 135.096 795.337 135.792C796.105 136.488 796.681 137.316 797.065 138.276C797.449 139.236 797.641 140.292 797.641 141.444C797.641 142.356 797.473 143.256 797.137 144.144C796.825 145.008 796.405 145.86 795.877 146.7C795.373 147.54 794.797 148.356 794.149 149.148C793.501 149.94 792.841 150.696 792.169 151.416L785.509 158.22H797.965V162.36H780.505C779.713 162.36 779.317 161.952 779.317 161.136V158.58ZM803.26 157.572H807.724V162.36H803.26V157.572ZM831.497 147.924V138.348H826.781V134.388H852.449V138.348H847.805V147.924H852.449V151.884H826.781V147.924H831.497ZM853.493 158.652V162.684H825.665V158.652H853.493ZM836.105 147.924H843.161V138.348H836.105V147.924ZM864.478 145.872V148.86C864.478 148.98 864.478 149.076 864.478 149.148C864.502 149.22 864.562 149.28 864.658 149.328L864.982 149.688C865.078 149.784 865.15 149.844 865.198 149.868C865.27 149.868 865.342 149.868 865.414 149.868H885.43V153.828H874.738V159.264H886.222V163.296H858.538V159.264H870.094V153.828H863.614C863.014 153.828 862.57 153.756 862.282 153.612C862.018 153.468 861.718 153.228 861.382 152.892L860.77 152.28C860.434 151.92 860.206 151.596 860.086 151.308C859.966 150.996 859.906 150.516 859.906 149.868V143.208C859.906 142.416 860.35 142.02 861.238 142.02H879.562C879.922 142.02 880.102 141.84 880.102 141.48V138.096H859.942V134.136H883.378C884.242 134.136 884.674 134.556 884.674 135.396V143.28C884.674 145.008 883.798 145.872 882.046 145.872H864.478ZM900.916 142.632C901.612 143.472 902.38 144.288 903.22 145.08C904.06 145.848 904.936 146.688 905.848 147.6L903.076 150.444C902.164 149.556 901.276 148.68 900.412 147.816C899.548 146.952 898.756 146.1 898.036 145.26C897.94 145.164 897.868 145.08 897.82 145.008C897.772 144.936 897.736 144.828 897.712 144.684C897.664 144.876 897.544 145.068 897.352 145.26C896.68 146.1 895.876 147.048 894.94 148.104C894.004 149.136 893.092 150.132 892.204 151.092L889.144 148.464C890.032 147.552 890.944 146.58 891.88 145.548C892.84 144.492 893.704 143.508 894.472 142.596C894.88 142.092 895.144 141.636 895.264 141.228C895.384 140.796 895.444 140.232 895.444 139.536V137.844H890.224V133.848H905.236V137.808L899.908 137.844V139.536C899.908 140.232 899.956 140.796 900.052 141.228C900.172 141.636 900.46 142.104 900.916 142.632ZM918.808 164.808H914.164V156.708H893.932V152.712H917.512C918.376 152.712 918.808 153.168 918.808 154.08V164.808ZM912.184 133.524V151.236H907.792V143.208H903.22V139.356H907.792V133.524H912.184ZM918.808 133.308V151.452H914.38V133.308H918.808ZM950.494 149.868V153.828H930.082C929.746 153.828 929.446 153.816 929.182 153.792C928.942 153.744 928.714 153.672 928.498 153.576C928.282 153.48 928.066 153.348 927.85 153.18C927.658 153.012 927.43 152.796 927.166 152.532L926.482 151.812C926.242 151.548 926.038 151.308 925.87 151.092C925.726 150.876 925.606 150.66 925.51 150.444C925.438 150.204 925.378 149.952 925.33 149.688C925.306 149.4 925.294 149.064 925.294 148.68V135.468C925.294 134.58 925.726 134.136 926.59 134.136H950.206V138.096H929.938V142.02H949.27V145.872H929.938V148.32C929.938 148.56 930.01 148.764 930.154 148.932L930.802 149.58C930.922 149.772 931.126 149.868 931.414 149.868H950.494ZM951.79 158.652V162.684H923.962V158.652H951.79ZM821.406 216.808H816.798V208.492H797.214V204.532H820.146C820.986 204.532 821.406 204.976 821.406 205.864V216.808ZM802.866 185.488C804.138 185.488 805.266 185.692 806.25 186.1C807.258 186.484 808.11 187.024 808.806 187.72C809.502 188.392 810.03 189.196 810.39 190.132C810.774 191.068 810.966 192.076 810.966 193.156V194.524C810.966 195.604 810.774 196.612 810.39 197.548C810.03 198.46 809.502 199.264 808.806 199.96C808.11 200.656 807.258 201.208 806.25 201.616C805.266 202 804.138 202.192 802.866 202.192C801.594 202.192 800.442 202 799.41 201.616C798.402 201.208 797.55 200.656 796.854 199.96C796.158 199.264 795.618 198.46 795.234 197.548C794.874 196.612 794.694 195.604 794.694 194.524V193.156C794.694 192.076 794.874 191.068 795.234 190.132C795.618 189.196 796.158 188.392 796.854 187.72C797.55 187.024 798.402 186.484 799.41 186.1C800.442 185.692 801.594 185.488 802.866 185.488ZM806.502 193.228C806.502 192.124 806.178 191.2 805.53 190.456C804.882 189.712 803.994 189.34 802.866 189.34C801.714 189.34 800.826 189.712 800.202 190.456C799.578 191.2 799.266 192.124 799.266 193.228V194.452C799.266 195.532 799.578 196.444 800.202 197.188C800.826 197.932 801.714 198.304 802.866 198.304C803.994 198.304 804.882 197.932 805.53 197.188C806.178 196.444 806.502 195.532 806.502 194.452V193.228ZM821.406 185.308V202.732H816.87V199.384H812.334V195.46H816.87V192.652H812.334V188.764H816.87V185.308H821.406ZM852.875 208.42C852.875 209.26 852.635 209.956 852.155 210.508C851.675 211.06 851.015 211.336 850.175 211.336H834.875V212.344C834.875 212.488 834.923 212.608 835.019 212.704L835.091 212.848C835.163 212.896 835.271 212.92 835.415 212.92H853.415V216.592H833.975C833.351 216.592 832.907 216.52 832.643 216.376C832.379 216.232 832.079 215.992 831.743 215.656L831.203 215.08C830.867 214.696 830.639 214.36 830.519 214.072C830.399 213.784 830.339 213.304 830.339 212.632V209.248C830.339 208.864 830.471 208.576 830.735 208.384C830.999 208.192 831.335 208.096 831.743 208.096H847.979C848.243 208.096 848.375 207.964 848.375 207.7V206.548H830.339V202.948H851.507C852.419 202.948 852.875 203.356 852.875 204.172V208.42ZM844.271 196.324C844.271 197.02 844.139 197.668 843.875 198.268C843.611 198.868 843.203 199.396 842.651 199.852C842.123 200.284 841.451 200.632 840.635 200.896C839.819 201.16 838.859 201.292 837.755 201.292H834.911C833.807 201.292 832.847 201.172 832.031 200.932C831.215 200.668 830.531 200.32 829.979 199.888C829.451 199.432 829.055 198.904 828.791 198.304C828.527 197.704 828.395 197.056 828.395 196.36C828.395 194.992 828.923 193.84 829.979 192.904C831.059 191.968 832.703 191.5 834.911 191.5H837.755C838.859 191.5 839.819 191.632 840.635 191.896C841.451 192.136 842.123 192.472 842.651 192.904C843.203 193.336 843.611 193.852 843.875 194.452C844.139 195.028 844.271 195.652 844.271 196.324ZM852.875 185.308V191.356H857.051V195.28H852.875V201.436H848.231V185.308H852.875ZM826.775 190.24V186.676H834.011V184.192H838.619V186.676H845.711V190.24H826.775ZM837.683 197.836C838.451 197.836 838.991 197.704 839.303 197.44C839.615 197.176 839.771 196.816 839.771 196.36C839.771 195.928 839.615 195.592 839.303 195.352C838.991 195.088 838.451 194.956 837.683 194.956H834.983C834.215 194.956 833.675 195.088 833.363 195.352C833.051 195.592 832.895 195.928 832.895 196.36C832.895 196.816 833.051 197.176 833.363 197.44C833.675 197.704 834.215 197.836 834.983 197.836H837.683ZM894.195 185.452V197.008C894.195 197.92 893.763 198.376 892.899 198.376H873.783C873.303 198.376 872.895 198.304 872.559 198.16C872.247 198.016 871.863 197.68 871.407 197.152L870.867 196.576C870.651 196.336 870.471 196.132 870.327 195.964C870.207 195.772 870.099 195.592 870.003 195.424C869.931 195.232 869.883 195.04 869.859 194.848C869.835 194.632 869.823 194.368 869.823 194.056V185.452H874.431V188.044H889.551V185.452H894.195ZM880.371 209.608V204.532H868.311V200.5H895.995V204.532H885.051V209.608H880.371ZM894.807 212.236V216.232H874.359C873.663 216.232 873.135 216.148 872.775 215.98C872.439 215.836 872.079 215.56 871.695 215.152L870.903 214.36C870.687 214.144 870.507 213.952 870.363 213.784C870.243 213.616 870.147 213.424 870.075 213.208C870.003 212.992 869.955 212.752 869.931 212.488C869.907 212.224 869.895 211.888 869.895 211.48V206.584H874.539V210.904C874.539 211.168 874.623 211.384 874.791 211.552L875.187 212.02C875.355 212.164 875.547 212.236 875.763 212.236H894.807ZM889.551 194.416V191.896H874.431V193.264C874.431 193.48 874.503 193.66 874.647 193.804L875.043 194.2C875.115 194.344 875.283 194.416 875.547 194.416H889.551ZM926.493 185.308V191.356H930.669V195.28H926.493V202.048H921.885V185.308H926.493ZM918.357 201.112H906.369C905.625 201.112 905.049 201.028 904.641 200.86C904.257 200.692 903.873 200.404 903.489 199.996L902.193 198.664C901.809 198.256 901.545 197.86 901.401 197.476C901.257 197.068 901.185 196.516 901.185 195.82V187.072C901.185 186.16 901.617 185.704 902.481 185.704H917.097V189.628H905.865V195.388C905.865 195.58 905.877 195.724 905.901 195.82C905.949 195.892 906.021 195.988 906.117 196.108L906.873 196.936C907.017 197.08 907.233 197.152 907.521 197.152H918.357V201.112ZM921.921 212.56V207.736H907.521V212.56H921.921ZM924.765 203.776C925.317 203.776 925.737 203.932 926.025 204.244C926.337 204.532 926.493 204.94 926.493 205.468V214.648C926.493 215.2 926.337 215.656 926.025 216.016C925.737 216.376 925.317 216.556 924.765 216.556H904.641C904.113 216.556 903.693 216.376 903.381 216.016C903.069 215.656 902.913 215.2 902.913 214.648V205.468C902.913 204.94 903.069 204.532 903.381 204.244C903.693 203.932 904.113 203.776 904.641 203.776H924.765Z" fill="black"/>
<path d="M711.874 576.872H713.386C715.162 576.872 716.482 576.464 717.346 575.648C718.234 574.832 718.678 573.848 718.678 572.696C718.678 571.544 718.306 570.596 717.562 569.852C716.842 569.084 715.942 568.7 714.862 568.7C713.662 568.7 712.726 569.012 712.054 569.636C711.382 570.236 710.95 571.112 710.758 572.264H705.754C706.018 569.888 706.93 568.016 708.49 566.648C710.05 565.28 712.138 564.596 714.754 564.596C716.194 564.596 717.466 564.8 718.57 565.208C719.674 565.616 720.598 566.168 721.342 566.864C722.11 567.56 722.686 568.388 723.07 569.348C723.478 570.308 723.682 571.34 723.682 572.444C723.682 573.116 723.574 573.788 723.358 574.46C723.142 575.108 722.83 575.72 722.422 576.296C722.014 576.872 721.51 577.388 720.91 577.844C720.31 578.276 719.638 578.612 718.894 578.852C719.782 579.068 720.538 579.416 721.162 579.896C721.81 580.376 722.338 580.94 722.746 581.588C723.178 582.212 723.49 582.896 723.682 583.64C723.898 584.36 724.006 585.068 724.006 585.764C724.006 586.988 723.802 588.104 723.394 589.112C722.986 590.096 722.374 590.948 721.558 591.668C720.766 592.388 719.782 592.94 718.606 593.324C717.43 593.732 716.086 593.936 714.574 593.936C713.254 593.936 712.03 593.744 710.902 593.36C709.798 592.976 708.826 592.436 707.986 591.74C707.17 591.044 706.51 590.216 706.006 589.256C705.526 588.272 705.25 587.18 705.178 585.98H710.218C710.41 587.132 710.866 588.056 711.586 588.752C712.33 589.424 713.398 589.76 714.79 589.76C715.39 589.76 715.942 589.652 716.446 589.436C716.974 589.196 717.418 588.884 717.778 588.5C718.162 588.092 718.462 587.636 718.678 587.132C718.894 586.628 719.014 586.088 719.038 585.512C719.086 584.168 718.606 583.088 717.598 582.272C716.59 581.456 715.186 581.048 713.386 581.048H711.874V576.872ZM729.625 588.572H734.089V593.36H729.625V588.572ZM765.518 564.308V572.192H769.694V576.152H765.518V587.168H760.874V564.308H765.518ZM765.95 591.596V595.592H746.87C746.15 595.592 745.61 595.508 745.25 595.34C744.89 595.196 744.53 594.92 744.17 594.512L743.126 593.432C742.934 593.216 742.766 593.024 742.622 592.856C742.502 592.664 742.406 592.46 742.334 592.244C742.262 592.028 742.202 591.788 742.154 591.524C742.13 591.236 742.118 590.888 742.118 590.48V584.432H746.726V589.868C746.726 590.228 746.798 590.492 746.942 590.66L747.626 591.38C747.722 591.524 747.95 591.596 748.31 591.596H765.95ZM751.91 572.66C752.918 573.812 753.95 574.916 755.006 575.972C756.086 577.004 757.202 578.048 758.354 579.104L755.51 582.2C754.31 581.144 753.194 580.1 752.162 579.068C751.154 578.036 750.182 576.944 749.246 575.792C749.078 575.6 748.946 575.456 748.85 575.36C748.754 575.24 748.67 575.084 748.598 574.892C748.574 575.06 748.514 575.204 748.418 575.324C748.322 575.444 748.19 575.6 748.022 575.792C747.038 576.968 746.042 578.084 745.034 579.14C744.05 580.196 742.946 581.276 741.722 582.38L738.734 579.32C740.006 578.168 741.17 577.052 742.226 575.972C743.306 574.892 744.314 573.776 745.25 572.624C745.442 572.384 745.598 572.168 745.718 571.976C745.862 571.784 745.97 571.592 746.042 571.4C746.114 571.184 746.162 570.968 746.186 570.752C746.21 570.536 746.222 570.272 746.222 569.96V564.92H750.938V569.96C750.938 570.584 750.998 571.088 751.118 571.472C751.238 571.832 751.502 572.228 751.91 572.66ZM799.58 564.308V580.328H795.044V574.208H789.5C789.332 575.072 789.02 575.876 788.564 576.62C788.132 577.364 787.568 578.024 786.872 578.6C786.176 579.152 785.36 579.584 784.424 579.896C783.512 580.208 782.492 580.364 781.364 580.364C780.044 580.364 778.868 580.16 777.836 579.752C776.804 579.344 775.928 578.792 775.208 578.096C774.488 577.376 773.936 576.56 773.552 575.648C773.192 574.712 773.012 573.728 773.012 572.696V571.688C773.012 570.656 773.192 569.672 773.552 568.736C773.936 567.8 774.488 566.984 775.208 566.288C775.928 565.568 776.804 565.004 777.836 564.596C778.868 564.188 780.044 563.984 781.364 563.984C782.492 563.984 783.524 564.152 784.46 564.488C785.396 564.8 786.2 565.232 786.872 565.784C787.568 566.336 788.132 566.996 788.564 567.764C789.02 568.532 789.332 569.348 789.5 570.212H795.044V564.308H799.58ZM780.248 584.936H795.044V581.984H799.58V594.296C799.58 595.136 799.136 595.556 798.248 595.556H780.32C779.6 595.556 779.06 595.484 778.7 595.34C778.364 595.22 777.98 594.944 777.548 594.512L776.648 593.612C776.456 593.42 776.288 593.24 776.144 593.072C776.024 592.904 775.928 592.736 775.856 592.568C775.784 592.376 775.724 592.16 775.676 591.92C775.652 591.68 775.64 591.392 775.64 591.056V581.984H780.248V584.936ZM785.108 571.688C785.108 570.656 784.784 569.768 784.136 569.024C783.512 568.256 782.588 567.872 781.364 567.872C780.116 567.872 779.168 568.256 778.52 569.024C777.896 569.768 777.584 570.656 777.584 571.688V572.696C777.584 573.704 777.896 574.592 778.52 575.36C779.168 576.104 780.116 576.476 781.364 576.476C782.588 576.476 783.512 576.104 784.136 575.36C784.784 574.592 785.108 573.704 785.108 572.696V571.688ZM795.044 591.632V588.824H780.248V590.444C780.248 590.66 780.332 590.852 780.5 591.02L780.86 591.416C781.028 591.56 781.208 591.632 781.4 591.632H795.044ZM840.107 582.812H829.955V590.264H841.439V594.296H813.755V590.264H825.311V582.812H820.559C820.223 582.812 819.935 582.8 819.695 582.776C819.455 582.728 819.227 582.656 819.011 582.56C818.795 582.44 818.579 582.296 818.363 582.128C818.147 581.96 817.907 581.732 817.643 581.444L816.023 579.608C815.543 579.128 815.219 578.696 815.051 578.312C814.907 577.904 814.835 577.316 814.835 576.548V566.432C814.835 565.544 815.279 565.1 816.167 565.1H840.035V569.132H819.515V576.008C819.515 576.224 819.539 576.416 819.587 576.584C819.635 576.728 819.731 576.872 819.875 577.016L821.063 578.348C821.207 578.468 821.327 578.564 821.423 578.636C821.519 578.684 821.663 578.708 821.855 578.708H840.107V582.812ZM867.257 564.524V594.944H862.829V579.86H859.481V591.38C859.481 592.292 859.061 592.748 858.221 592.748H851.921C851.513 592.748 851.165 592.736 850.877 592.712C850.613 592.664 850.361 592.592 850.121 592.496C849.905 592.4 849.689 592.268 849.473 592.1C849.257 591.932 849.017 591.704 848.753 591.416L847.457 589.94C847.217 589.676 847.025 589.448 846.881 589.256C846.737 589.04 846.617 588.812 846.521 588.572C846.449 588.332 846.389 588.068 846.341 587.78C846.317 587.468 846.305 587.084 846.305 586.628V566.72C846.305 565.832 846.725 565.388 847.565 565.388H858.221C859.061 565.388 859.481 565.832 859.481 566.72V575.9H862.829V564.524H867.257ZM869.525 564.308H874.025V595.16H869.525V564.308ZM854.981 588.68V569.42H850.805V586.34C850.805 586.58 850.829 586.772 850.877 586.916C850.925 587.036 851.033 587.192 851.201 587.384L851.957 588.284C852.101 588.452 852.233 588.56 852.353 588.608C852.497 588.656 852.665 588.68 852.857 588.68H854.981ZM905.962 564.308V587.168H901.354V564.308H905.962ZM906.646 591.596V595.592H886.702C885.958 595.592 885.406 595.508 885.046 595.34C884.686 595.196 884.326 594.92 883.966 594.512L883.03 593.54C882.838 593.324 882.67 593.132 882.526 592.964C882.406 592.772 882.31 592.568 882.238 592.352C882.166 592.136 882.106 591.896 882.058 591.632C882.034 591.344 882.022 590.996 882.022 590.588V584.432H886.63V589.976C886.63 590.336 886.714 590.6 886.882 590.768L887.422 591.38C887.518 591.452 887.602 591.512 887.674 591.56C887.77 591.584 887.914 591.596 888.106 591.596H906.646ZM887.782 564.704C889.126 564.704 890.314 564.92 891.346 565.352C892.402 565.784 893.29 566.36 894.01 567.08C894.73 567.8 895.282 568.64 895.666 569.6C896.05 570.56 896.242 571.568 896.242 572.624V574.136C896.242 575.192 896.05 576.2 895.666 577.16C895.282 578.096 894.73 578.924 894.01 579.644C893.29 580.364 892.402 580.94 891.346 581.372C890.314 581.804 889.126 582.02 887.782 582.02C886.438 582.02 885.25 581.804 884.218 581.372C883.186 580.94 882.31 580.364 881.59 579.644C880.87 578.924 880.318 578.096 879.934 577.16C879.574 576.2 879.394 575.192 879.394 574.136V572.624C879.394 571.568 879.574 570.56 879.934 569.6C880.318 568.64 880.87 567.8 881.59 567.08C882.31 566.36 883.186 565.784 884.218 565.352C885.25 564.92 886.438 564.704 887.782 564.704ZM891.778 572.624C891.778 571.52 891.43 570.572 890.734 569.78C890.062 568.988 889.078 568.592 887.782 568.592C886.51 568.592 885.538 568.988 884.866 569.78C884.218 570.572 883.894 571.52 883.894 572.624V574.136C883.894 574.664 883.978 575.168 884.146 575.648C884.314 576.128 884.554 576.56 884.866 576.944C885.202 577.304 885.61 577.592 886.09 577.808C886.57 578.024 887.134 578.132 887.782 578.132C888.43 578.132 888.994 578.024 889.474 577.808C889.978 577.592 890.398 577.304 890.734 576.944C891.094 576.56 891.358 576.128 891.526 575.648C891.694 575.168 891.778 574.664 891.778 574.136V572.624ZM919.396 590.12V591.128C919.396 591.296 919.444 591.416 919.54 591.488L919.648 591.632C919.696 591.704 919.792 591.74 919.936 591.74H939.34V595.592H918.424C917.8 595.592 917.356 595.52 917.092 595.376C916.828 595.232 916.528 594.992 916.192 594.656L915.652 594.08C915.316 593.696 915.088 593.36 914.968 593.072C914.848 592.784 914.788 592.304 914.788 591.632V587.816C914.788 587.432 914.92 587.144 915.184 586.952C915.448 586.76 915.784 586.664 916.192 586.664H933.76C934.048 586.664 934.192 586.532 934.192 586.268V585.188H914.788V581.3H937.396C938.284 581.3 938.728 581.732 938.728 582.596V587.168C938.728 588.032 938.5 588.74 938.044 589.292C937.588 589.844 936.928 590.12 936.064 590.12H919.396ZM916.948 579.32C916.276 579.32 915.748 579.248 915.364 579.104C914.98 578.936 914.608 578.66 914.248 578.276L913.276 577.196C912.94 576.836 912.688 576.476 912.52 576.116C912.376 575.756 912.304 575.228 912.304 574.532V564.56H916.948V568.16H923.32V564.56H927.964V577.916C927.964 578.852 927.52 579.32 926.632 579.32H916.948ZM938.728 564.308V579.716H934.192V576.944H929.656V573.092H934.192V570.716H929.656V566.864H934.192V564.308H938.728ZM923.32 575.432V571.976H916.948V574.136C916.948 574.256 916.96 574.352 916.984 574.424C917.032 574.496 917.08 574.58 917.128 574.676L917.668 575.252C917.836 575.372 918.004 575.432 918.172 575.432H923.32ZM802.832 616.308V634.416H798.224V616.308H802.832ZM798.296 643.632V640.032H783.5V643.632H798.296ZM801.14 636.144C801.668 636.144 802.076 636.3 802.364 636.612C802.676 636.9 802.832 637.32 802.832 637.872V645.828C802.832 646.38 802.676 646.8 802.364 647.088C802.076 647.4 801.668 647.556 801.14 647.556H780.62C780.092 647.556 779.672 647.4 779.36 647.088C779.048 646.8 778.892 646.38 778.892 645.828V637.872C778.892 637.32 779.048 636.9 779.36 636.612C779.672 636.3 780.092 636.144 780.62 636.144H801.14ZM792.14 627.072H781.088V628.8C781.088 629.04 781.148 629.244 781.268 629.412L781.664 629.772C781.832 629.916 782 629.988 782.168 629.988H794.12V633.912H780.944C780.296 633.912 779.78 633.828 779.396 633.66C779.036 633.492 778.652 633.204 778.244 632.796L777.416 631.932C777.032 631.548 776.78 631.176 776.66 630.816C776.54 630.456 776.48 629.928 776.48 629.232V618.072C776.48 617.16 776.912 616.704 777.776 616.704H793.184V620.592H781.088V623.4H792.14V627.072ZM820.477 647.7V636.18H808.885V632.148H828.541C828.925 631.476 829.225 630.912 829.441 630.456C829.681 630 829.861 629.604 829.981 629.268C830.125 628.908 830.209 628.572 830.233 628.26C830.281 627.948 830.305 627.612 830.305 627.252V620.88H810.577V616.848H833.653C834.493 616.848 834.913 617.304 834.913 618.216V626.82C834.913 627.348 834.901 627.804 834.877 628.188C834.853 628.572 834.781 628.956 834.661 629.34C834.565 629.724 834.421 630.144 834.229 630.6C834.037 631.032 833.761 631.548 833.401 632.148H836.569V636.18H825.121V647.7H820.477ZM860.551 634.704C862.015 634.704 863.275 634.86 864.331 635.172C865.411 635.484 866.299 635.928 866.995 636.504C867.715 637.08 868.243 637.764 868.579 638.556C868.915 639.348 869.083 640.224 869.083 641.184C869.083 642.144 868.915 643.02 868.579 643.812C868.243 644.604 867.715 645.288 866.995 645.864C866.299 646.44 865.411 646.884 864.331 647.196C863.275 647.508 862.015 647.664 860.551 647.664H852.451C850.987 647.664 849.715 647.508 848.635 647.196C847.579 646.884 846.703 646.44 846.007 645.864C845.311 645.288 844.795 644.604 844.459 643.812C844.123 643.02 843.955 642.144 843.955 641.184C843.955 640.224 844.123 639.348 844.459 638.556C844.795 637.764 845.311 637.08 846.007 636.504C846.703 635.928 847.579 635.484 848.635 635.172C849.715 634.86 850.987 634.704 852.451 634.704H860.551ZM860.947 643.74C862.243 643.74 863.155 643.5 863.683 643.02C864.235 642.516 864.511 641.904 864.511 641.184C864.511 640.464 864.235 639.852 863.683 639.348C863.155 638.844 862.243 638.592 860.947 638.592H852.019C850.723 638.592 849.799 638.844 849.247 639.348C848.719 639.852 848.455 640.464 848.455 641.184C848.455 641.904 848.719 642.516 849.247 643.02C849.799 643.5 850.723 643.74 852.019 643.74H860.947ZM853.891 623.328C854.923 624.48 855.943 625.548 856.951 626.532C857.959 627.492 859.063 628.488 860.263 629.52L857.455 632.616C856.231 631.56 855.139 630.552 854.179 629.592C853.219 628.608 852.235 627.552 851.227 626.424C851.107 626.256 850.987 626.112 850.867 625.992C850.771 625.872 850.699 625.716 850.651 625.524C850.603 625.716 850.519 625.872 850.399 625.992C850.303 626.112 850.195 626.256 850.075 626.424C849.115 627.624 848.119 628.728 847.087 629.736C846.055 630.72 844.939 631.776 843.739 632.904L840.787 629.808C842.059 628.656 843.211 627.564 844.243 626.532C845.275 625.5 846.283 624.42 847.267 623.292C847.651 622.836 847.915 622.44 848.059 622.104C848.203 621.768 848.275 621.288 848.275 620.664V616.524H852.919V620.664C852.919 621.288 852.979 621.792 853.099 622.176C853.243 622.536 853.507 622.92 853.891 623.328ZM868.363 616.308V633.552H863.827V624.552H857.959V620.592H863.827V616.308H868.363Z" fill="black"/>
<path d="M273.667 584.792L284.935 565.136H288.607C289.495 565.136 289.939 565.58 289.939 566.468V584.108H293.575V588.212H289.939V593.36H284.935V588.212H274.999C274.111 588.212 273.667 587.768 273.667 586.88V584.792ZM278.815 584.108H284.935V572.948L278.815 584.108ZM298.578 588.572H303.042V593.36H298.578V588.572ZM329.179 564.524V575.936H332.095V564.308H336.595V595.16H332.095V579.752H329.179V594.944H324.787V564.524H329.179ZM315.751 574.028C317.839 574.028 319.411 574.688 320.467 576.008C321.547 577.328 322.087 579.14 322.087 581.444V585.728C322.087 588.032 321.547 589.856 320.467 591.2C319.411 592.52 317.839 593.18 315.751 593.18C313.639 593.18 312.043 592.52 310.963 591.2C309.883 589.856 309.343 588.032 309.343 585.728V581.444C309.343 579.14 309.883 577.328 310.963 576.008C312.043 574.688 313.639 574.028 315.751 574.028ZM308.227 572.408V568.34H313.447V564.56H318.091V568.34H323.095V572.408H308.227ZM317.623 581.444C317.623 580.22 317.443 579.344 317.083 578.816C316.747 578.264 316.303 577.988 315.751 577.988C315.151 577.988 314.683 578.264 314.347 578.816C314.035 579.344 313.879 580.22 313.879 581.444V585.728C313.879 586.952 314.035 587.84 314.347 588.392C314.683 588.92 315.151 589.184 315.751 589.184C316.303 589.184 316.747 588.92 317.083 588.392C317.443 587.84 317.623 586.952 317.623 585.728V581.444ZM341.893 589.22C343.861 587.684 345.529 586.34 346.897 585.188C348.265 584.036 349.369 583.004 350.209 582.092C351.145 581.084 351.853 580.232 352.333 579.536C352.813 578.816 353.149 578.18 353.341 577.628C353.005 577.892 352.549 578.108 351.973 578.276C351.397 578.444 350.689 578.528 349.849 578.528H342.325V574.604H351.361C351.913 574.604 352.369 574.592 352.729 574.568C353.113 574.544 353.413 574.472 353.629 574.352V569.312H342.829V565.28H356.941C357.805 565.28 358.237 565.724 358.237 566.612V575.792H363.925V564.308H368.533V595.16H363.925V579.824H357.301C356.941 580.616 356.461 581.42 355.861 582.236C355.285 583.028 354.565 583.856 353.701 584.72C352.621 585.8 351.313 587 349.777 588.32C348.241 589.616 346.501 590.996 344.557 592.46L341.893 589.22ZM390.678 579.32V581.192H402.27V585.008H374.586V581.192H386.034V579.32H379.878C379.302 579.32 378.87 579.248 378.582 579.104C378.294 578.96 377.994 578.72 377.682 578.384L377.142 577.808C376.95 577.616 376.794 577.448 376.674 577.304C376.578 577.16 376.494 577.004 376.422 576.836C376.374 576.644 376.338 576.44 376.314 576.224C376.29 575.984 376.278 575.696 376.278 575.36V565.784C376.278 564.896 376.71 564.452 377.574 564.452H400.182V568.232H380.85V569.96H399.498V573.632H380.85V574.82C380.85 574.964 380.898 575.072 380.994 575.144L381.246 575.36C381.318 575.432 381.402 575.468 381.498 575.468H400.254V579.32H390.678ZM401.082 591.38V595.232H380.634C379.938 595.232 379.41 595.148 379.05 594.98C378.714 594.836 378.354 594.56 377.97 594.152L377.178 593.36C376.962 593.144 376.782 592.952 376.638 592.784C376.518 592.616 376.422 592.424 376.35 592.208C376.278 591.992 376.23 591.752 376.206 591.488C376.182 591.224 376.17 590.888 376.17 590.48V586.304H380.814V590.048C380.814 590.312 380.898 590.516 381.066 590.66L381.462 591.128C381.63 591.296 381.822 591.38 382.038 591.38H401.082ZM426.814 569.024V571.184C426.814 571.808 426.874 572.336 426.994 572.768C427.114 573.176 427.342 573.548 427.678 573.884C428.062 574.268 428.506 574.7 429.01 575.18C429.538 575.66 430.09 576.152 430.666 576.656C431.242 577.16 431.83 577.664 432.43 578.168C433.03 578.648 433.594 579.092 434.122 579.5L431.602 582.704C431.026 582.296 430.426 581.84 429.802 581.336C429.202 580.808 428.602 580.28 428.002 579.752C427.426 579.224 426.874 578.708 426.346 578.204C425.818 577.676 425.374 577.208 425.014 576.8C424.894 576.656 424.774 576.512 424.654 576.368C424.558 576.224 424.486 576.068 424.438 575.9C424.39 576.068 424.306 576.224 424.186 576.368C424.066 576.512 423.958 576.656 423.862 576.8C423.478 577.208 423.022 577.676 422.494 578.204C421.966 578.732 421.402 579.272 420.802 579.824C420.202 580.352 419.59 580.88 418.966 581.408C418.366 581.936 417.79 582.416 417.238 582.848L414.574 579.716C415.126 579.26 415.702 578.78 416.302 578.276C416.902 577.772 417.478 577.268 418.03 576.764C418.606 576.236 419.146 575.732 419.65 575.252C420.178 574.748 420.646 574.28 421.054 573.848C421.414 573.464 421.654 573.08 421.774 572.696C421.894 572.312 421.954 571.808 421.954 571.184V569.024H415.438V565.136H433.258V569.024H426.814ZM442.834 591.596V595.592H422.89C422.146 595.592 421.594 595.508 421.234 595.34C420.874 595.196 420.514 594.92 420.154 594.512L419.218 593.54C419.026 593.324 418.858 593.132 418.714 592.964C418.594 592.772 418.498 592.568 418.426 592.352C418.354 592.136 418.294 591.896 418.246 591.632C418.222 591.344 418.21 590.996 418.21 590.588V584.432H422.818V589.976C422.818 590.336 422.902 590.6 423.07 590.768L423.61 591.38C423.706 591.452 423.79 591.512 423.862 591.56C423.958 591.584 424.102 591.596 424.294 591.596H442.834ZM442.15 564.308V587.168H437.542V564.308H442.15ZM458.428 595.664C455.932 595.664 454.096 595.136 452.92 594.08C451.744 593.048 451.156 591.728 451.156 590.12C451.156 589.304 451.3 588.56 451.588 587.888C451.876 587.192 452.32 586.604 452.92 586.124C453.52 585.62 454.276 585.236 455.188 584.972C456.1 584.684 457.18 584.54 458.428 584.54H469.048C470.272 584.54 471.34 584.684 472.252 584.972C473.164 585.236 473.92 585.62 474.52 586.124C475.12 586.604 475.564 587.192 475.852 587.888C476.164 588.56 476.32 589.304 476.32 590.12C476.32 591.728 475.72 593.048 474.52 594.08C473.344 595.136 471.52 595.664 469.048 595.664H458.428ZM468.616 564.524V571.616H471.316V564.308H475.744V583.496H471.316V575.468H468.616V582.776H464.224V564.524H468.616ZM461.956 577.268C461.956 577.988 461.824 578.696 461.56 579.392C461.296 580.064 460.9 580.664 460.372 581.192C459.844 581.696 459.172 582.116 458.356 582.452C457.564 582.764 456.616 582.92 455.512 582.92H454.72C453.616 582.92 452.656 582.764 451.84 582.452C451.024 582.14 450.352 581.732 449.824 581.228C449.296 580.7 448.9 580.1 448.636 579.428C448.372 578.732 448.24 578.024 448.24 577.304C448.24 576.584 448.372 575.888 448.636 575.216C448.9 574.52 449.296 573.92 449.824 573.416C450.352 572.888 451.024 572.468 451.84 572.156C452.656 571.82 453.616 571.652 454.72 571.652H455.512C456.616 571.652 457.564 571.82 458.356 572.156C459.172 572.468 459.844 572.888 460.372 573.416C460.9 573.92 461.296 574.508 461.56 575.18C461.824 575.852 461.956 576.548 461.956 577.268ZM447.016 570.356V566.648H452.632V563.696H457.24V566.648H462.712V570.356H447.016ZM469.12 591.92C469.96 591.92 470.608 591.764 471.064 591.452C471.52 591.14 471.748 590.696 471.748 590.12C471.748 589.52 471.52 589.064 471.064 588.752C470.608 588.44 469.96 588.284 469.12 588.284H458.356C457.516 588.284 456.868 588.44 456.412 588.752C455.956 589.064 455.728 589.52 455.728 590.12C455.728 590.696 455.956 591.14 456.412 591.452C456.868 591.764 457.516 591.92 458.356 591.92H469.12ZM455.548 579.464C456.172 579.464 456.7 579.272 457.132 578.888C457.564 578.504 457.78 577.976 457.78 577.304C457.78 576.632 457.564 576.104 457.132 575.72C456.7 575.312 456.172 575.108 455.548 575.108H454.684C454.012 575.108 453.472 575.312 453.064 575.72C452.656 576.104 452.452 576.632 452.452 577.304C452.452 577.976 452.656 578.504 453.064 578.888C453.472 579.272 454.012 579.464 454.684 579.464H455.548Z" fill="white"/>
<rect y="7.25195" width="148.259" height="97.4964" fill="#FFE697"/>
<path d="M205.469 56L148.059 104.497L148.059 7.50258L205.469 56Z" fill="#FFE697"/>
<path d="M67.2188 50.721H52.3958V47.805H69.7298C70.3598 47.805 70.6748 48.156 70.6748 48.858V52.071C70.6748 52.593 70.6568 53.025 70.6208 53.367C70.6028 53.709 70.5488 54.033 70.4588 54.339C70.3868 54.627 70.2698 54.942 70.1078 55.284C69.9638 55.608 69.7658 56.022 69.5138 56.526L66.3278 55.797C66.5258 55.383 66.6788 55.032 66.7868 54.744C66.9128 54.438 67.0028 54.159 67.0568 53.907C67.1288 53.637 67.1738 53.367 67.1918 53.097C67.2098 52.827 67.2188 52.503 67.2188 52.125V50.721ZM62.3588 53.34V57.498H71.8898V60.414H51.1268V57.498H58.8488V53.34H62.3588ZM65.0048 61.899C66.0848 61.899 67.0028 62.016 67.7588 62.25C68.5328 62.466 69.1718 62.781 69.6758 63.195C70.1798 63.591 70.5488 64.068 70.7828 64.626C71.0168 65.166 71.1338 65.751 71.1338 66.381C71.1338 67.029 71.0168 67.623 70.7828 68.163C70.5488 68.703 70.1798 69.171 69.6758 69.567C69.1718 69.981 68.5328 70.296 67.7588 70.512C67.0028 70.746 66.0848 70.863 65.0048 70.863H58.0118C56.9318 70.863 56.0048 70.746 55.2308 70.512C54.4748 70.296 53.8448 69.981 53.3408 69.567C52.8548 69.171 52.4948 68.703 52.2608 68.163C52.0268 67.623 51.9098 67.029 51.9098 66.381C51.9098 65.751 52.0268 65.166 52.2608 64.626C52.4948 64.068 52.8548 63.591 53.3408 63.195C53.8448 62.781 54.4748 62.466 55.2308 62.25C56.0048 62.016 56.9318 61.899 58.0118 61.899H65.0048ZM65.1398 67.974C66.0398 67.974 66.6608 67.812 67.0028 67.488C67.3448 67.164 67.5158 66.795 67.5158 66.381C67.5158 65.967 67.3448 65.598 67.0028 65.274C66.6608 64.95 66.0398 64.788 65.1398 64.788H57.8498C57.3998 64.788 57.0218 64.833 56.7158 64.923C56.4278 65.013 56.1938 65.13 56.0138 65.274C55.8518 65.418 55.7348 65.589 55.6628 65.787C55.5908 65.967 55.5548 66.165 55.5548 66.381C55.5548 66.597 55.5908 66.804 55.6628 67.002C55.7348 67.182 55.8518 67.344 56.0138 67.488C56.1938 67.632 56.4278 67.749 56.7158 67.839C57.0218 67.929 57.3998 67.974 57.8498 67.974H65.1398ZM91.793 50.721H76.97V47.805H94.304C94.934 47.805 95.249 48.156 95.249 48.858V52.071C95.249 52.593 95.231 53.025 95.195 53.367C95.177 53.709 95.123 54.033 95.033 54.339C94.961 54.627 94.844 54.942 94.682 55.284C94.538 55.608 94.34 56.022 94.088 56.526L90.902 55.797C91.1 55.383 91.253 55.032 91.361 54.744C91.487 54.438 91.577 54.159 91.631 53.907C91.703 53.637 91.748 53.367 91.766 53.097C91.784 52.827 91.793 52.503 91.793 52.125V50.721ZM86.933 53.34V57.498H96.464V60.414H75.701V57.498H83.423V53.34H86.933ZM89.579 61.899C90.659 61.899 91.577 62.016 92.333 62.25C93.107 62.466 93.746 62.781 94.25 63.195C94.754 63.591 95.123 64.068 95.357 64.626C95.591 65.166 95.708 65.751 95.708 66.381C95.708 67.029 95.591 67.623 95.357 68.163C95.123 68.703 94.754 69.171 94.25 69.567C93.746 69.981 93.107 70.296 92.333 70.512C91.577 70.746 90.659 70.863 89.579 70.863H82.586C81.506 70.863 80.579 70.746 79.805 70.512C79.049 70.296 78.419 69.981 77.915 69.567C77.429 69.171 77.069 68.703 76.835 68.163C76.601 67.623 76.484 67.029 76.484 66.381C76.484 65.751 76.601 65.166 76.835 64.626C77.069 64.068 77.429 63.591 77.915 63.195C78.419 62.781 79.049 62.466 79.805 62.25C80.579 62.016 81.506 61.899 82.586 61.899H89.579ZM89.714 67.974C90.614 67.974 91.235 67.812 91.577 67.488C91.919 67.164 92.09 66.795 92.09 66.381C92.09 65.967 91.919 65.598 91.577 65.274C91.235 64.95 90.614 64.788 89.714 64.788H82.424C81.974 64.788 81.596 64.833 81.29 64.923C81.002 65.013 80.768 65.13 80.588 65.274C80.426 65.418 80.309 65.589 80.237 65.787C80.165 65.967 80.129 66.165 80.129 66.381C80.129 66.597 80.165 66.804 80.237 67.002C80.309 67.182 80.426 67.344 80.588 67.488C80.768 67.632 81.002 67.749 81.29 67.839C81.596 67.929 81.974 67.974 82.424 67.974H89.714Z" fill="black"/>
<rect y="133.252" width="148.259" height="97.4964" fill="#FFE697"/>
<path d="M205.469 182L148.059 230.497L148.059 133.503L205.469 182Z" fill="#FFE697"/>
<path d="M42.7277 185.658V189.843C42.7277 190.095 42.8267 190.32 43.0247 190.518L43.8077 191.517C43.9697 191.697 44.1677 191.787 44.4017 191.787H52.3667V194.784H43.5647C43.0247 194.784 42.6017 194.73 42.2957 194.622C42.0077 194.514 41.6837 194.262 41.3237 193.866L40.0547 192.327C39.8927 192.147 39.7577 191.985 39.6497 191.841C39.5597 191.697 39.4787 191.544 39.4067 191.382C39.3527 191.22 39.3167 191.031 39.2987 190.815C39.2807 190.599 39.2717 190.329 39.2717 190.005V183.66C39.2717 183.048 39.5867 182.742 40.2167 182.742H47.2907C47.5607 182.742 47.6957 182.607 47.6957 182.337V177.099H39.3257V174.129H50.2067C50.8547 174.129 51.1787 174.462 51.1787 175.128V183.714C51.1787 185.01 50.5217 185.658 49.2077 185.658H42.7277ZM58.8737 173.481V196.62H55.4177V173.481H58.8737ZM67.6259 194.784C67.0859 194.784 66.6629 194.73 66.3569 194.622C66.0509 194.514 65.7269 194.262 65.3849 193.866L64.1159 192.462C63.9539 192.282 63.8189 192.12 63.7109 191.976C63.6029 191.832 63.5219 191.679 63.4679 191.517C63.4139 191.337 63.3689 191.148 63.3329 190.95C63.3149 190.734 63.3059 190.464 63.3059 190.14V175.29C63.3059 174.624 63.6299 174.291 64.2779 174.291H73.0259V177.207H66.7889V182.634H71.6489V185.496H66.7889V189.924C66.7889 190.176 66.8879 190.401 67.0859 190.599L67.9229 191.571C68.1209 191.751 68.3189 191.841 68.5169 191.841H73.6739V194.784H67.6259ZM78.9929 173.643V196.458H75.6719V185.307H72.9989V182.31H75.6719V173.643H78.9929ZM80.6939 173.481H84.0689V196.62H80.6939V173.481ZM108.022 173.481V184.713H104.566V173.481H108.022ZM93.5231 192.705V193.596C93.5231 193.722 93.5591 193.812 93.6311 193.866L93.7121 193.974C93.7481 194.028 93.8201 194.055 93.9281 194.055H108.481V196.944H92.7941C92.3261 196.944 91.9931 196.89 91.7951 196.782C91.5971 196.674 91.3721 196.494 91.1201 196.242L90.7151 195.81C90.4631 195.522 90.2921 195.27 90.2021 195.054C90.1121 194.838 90.0671 194.478 90.0671 193.974V191.004C90.0671 190.716 90.1661 190.5 90.3641 190.356C90.5621 190.194 90.8141 190.113 91.1201 190.113H104.296C104.512 190.113 104.62 190.023 104.62 189.843V188.871H90.0671V186.009H107.023C107.689 186.009 108.022 186.315 108.022 186.927V190.518C108.022 191.148 107.851 191.67 107.509 192.084C107.167 192.498 106.672 192.705 106.024 192.705H93.5231ZM94.3331 173.211C95.3231 173.211 96.2051 173.364 96.9791 173.67C97.7531 173.958 98.4011 174.354 98.9231 174.858C99.4451 175.362 99.8411 175.947 100.111 176.613C100.399 177.261 100.543 177.945 100.543 178.665V179.178C100.543 179.88 100.399 180.564 100.111 181.23C99.8411 181.878 99.4451 182.454 98.9231 182.958C98.4011 183.462 97.7531 183.867 96.9791 184.173C96.2051 184.479 95.3231 184.632 94.3331 184.632C93.3071 184.632 92.4071 184.479 91.6331 184.173C90.8591 183.867 90.2111 183.462 89.6891 182.958C89.1671 182.454 88.7711 181.878 88.5011 181.23C88.2491 180.564 88.1231 179.88 88.1231 179.178V178.665C88.1231 177.945 88.2491 177.261 88.5011 176.613C88.7711 175.947 89.1671 175.362 89.6891 174.858C90.2111 174.354 90.8591 173.958 91.6331 173.67C92.4071 173.364 93.3071 173.211 94.3331 173.211ZM97.1681 178.665C97.1681 178.359 97.1051 178.053 96.9791 177.747C96.8711 177.441 96.6911 177.171 96.4391 176.937C96.2051 176.685 95.9081 176.487 95.5481 176.343C95.2061 176.199 94.8011 176.127 94.3331 176.127C93.8651 176.127 93.4511 176.199 93.0911 176.343C92.7311 176.487 92.4341 176.685 92.2001 176.937C91.9661 177.171 91.7861 177.441 91.6601 177.747C91.5521 178.053 91.4981 178.359 91.4981 178.665V179.178C91.4981 179.484 91.5521 179.79 91.6601 180.096C91.7861 180.402 91.9661 180.681 92.2001 180.933C92.4341 181.167 92.7311 181.356 93.0911 181.5C93.4511 181.644 93.8651 181.716 94.3331 181.716C94.8011 181.716 95.2061 181.644 95.5481 181.5C95.9081 181.356 96.2051 181.167 96.4391 180.933C96.6911 180.681 96.8711 180.402 96.9791 180.096C97.1051 179.79 97.1681 179.484 97.1681 179.178V178.665Z" fill="black"/>
<rect y="259.252" width="148.259" height="97.4964" fill="#FFE697"/>
<path d="M205.469 308L148.059 356.497L148.059 259.503L205.469 308Z" fill="#FFE697"/>
<path d="M69.5138 313.98C69.9278 313.98 70.2428 314.097 70.4588 314.331C70.6928 314.547 70.8098 314.853 70.8098 315.249V321.378C70.8098 321.774 70.6928 322.089 70.4588 322.323C70.2428 322.557 69.9278 322.674 69.5138 322.674H53.5298C53.1158 322.674 52.7918 322.557 52.5578 322.323C52.3418 322.089 52.2338 321.774 52.2338 321.378V315.249C52.2338 314.853 52.3418 314.547 52.5578 314.331C52.7918 314.097 53.1158 313.98 53.5298 313.98H69.5138ZM51.1268 311.658V308.742H66.1388C66.3728 308.346 66.5528 308.013 66.6788 307.743C66.8228 307.473 66.9308 307.23 67.0028 307.014C67.0748 306.798 67.1198 306.591 67.1378 306.393C67.1558 306.195 67.1648 305.97 67.1648 305.718V302.91H52.4498V299.967H69.6758C70.3058 299.967 70.6208 300.309 70.6208 300.993V305.394C70.6208 305.79 70.6118 306.123 70.5938 306.393C70.5758 306.663 70.5398 306.915 70.4858 307.149C70.4318 307.365 70.3418 307.599 70.2158 307.851C70.0898 308.085 69.9188 308.382 69.7028 308.742H71.8898V311.658H51.1268ZM67.4348 319.758V316.869H55.6088V319.758H67.4348ZM76.484 318.624C76.484 317.58 76.79 316.707 77.402 316.005C78.032 315.303 79.04 314.826 80.426 314.574V312.657H75.701V309.714H96.464V312.657H91.793V314.574C93.143 314.826 94.133 315.312 94.763 316.032C95.393 316.734 95.708 317.598 95.708 318.624C95.708 319.902 95.222 320.928 94.25 321.702C93.278 322.476 91.721 322.863 89.579 322.863H82.586C80.444 322.863 78.887 322.476 77.915 321.702C76.961 320.928 76.484 319.902 76.484 318.624ZM89.336 299.427C91.478 299.427 93.053 299.85 94.061 300.696C95.069 301.524 95.573 302.595 95.573 303.909C95.573 304.557 95.447 305.16 95.195 305.718C94.961 306.258 94.583 306.726 94.061 307.122C93.557 307.5 92.909 307.806 92.117 308.04C91.343 308.256 90.416 308.364 89.336 308.364H82.856C81.794 308.364 80.867 308.256 80.075 308.04C79.301 307.806 78.653 307.5 78.131 307.122C77.627 306.726 77.249 306.258 76.997 305.718C76.763 305.16 76.646 304.557 76.646 303.909C76.646 303.261 76.763 302.667 76.997 302.127C77.249 301.569 77.627 301.092 78.131 300.696C78.653 300.3 79.301 299.994 80.075 299.778C80.867 299.544 81.794 299.427 82.856 299.427H89.336ZM89.471 305.421C90.389 305.421 91.028 305.286 91.388 305.016C91.766 304.728 91.955 304.359 91.955 303.909C91.955 303.459 91.766 303.09 91.388 302.802C91.028 302.514 90.389 302.37 89.471 302.37H82.721C81.803 302.37 81.155 302.514 80.777 302.802C80.417 303.09 80.237 303.459 80.237 303.909C80.237 304.359 80.417 304.728 80.777 305.016C81.155 305.286 81.803 305.421 82.721 305.421H89.471ZM89.714 319.974C90.614 319.974 91.235 319.857 91.577 319.623C91.919 319.389 92.09 319.056 92.09 318.624C92.09 318.21 91.919 317.886 91.577 317.652C91.235 317.4 90.614 317.274 89.714 317.274H82.424C81.524 317.274 80.912 317.4 80.588 317.652C80.282 317.886 80.129 318.21 80.129 318.624C80.129 319.056 80.282 319.389 80.588 319.623C80.912 319.857 81.524 319.974 82.424 319.974H89.714ZM83.882 314.385H88.337V312.657H83.882V314.385Z" fill="black"/>
<rect y="385.252" width="148.259" height="97.4964" fill="#FFE697"/>
<path d="M205.469 434L148.059 482.497L148.059 385.503L205.469 434Z" fill="#FFE697"/>
<path d="M58.7678 434.715V444.786H60.9548V434.715H64.4378V444.786H71.8898V447.81H51.1268V444.786H55.2848V434.715H58.7678ZM70.9178 436.605C70.9178 437.199 70.9088 437.694 70.8908 438.09C70.8728 438.468 70.8188 438.846 70.7288 439.224C70.6568 439.584 70.5398 439.98 70.3778 440.412C70.2338 440.844 70.0178 441.393 69.7298 442.059L66.5438 441.411C66.7418 440.907 66.8948 440.466 67.0028 440.088C67.1288 439.71 67.2188 439.35 67.2728 439.008C67.3448 438.666 67.3898 438.315 67.4078 437.955C67.4258 437.577 67.4348 437.145 67.4348 436.659V429.396H52.1798V426.318H69.9188C70.5848 426.318 70.9178 426.66 70.9178 427.344V436.605ZM95.303 449.106H91.874V443.922H76.673V441.006H80.426V438.846H75.701V435.93H96.464V438.846H91.793V441.006H94.358C94.988 441.006 95.303 441.339 95.303 442.005V449.106ZM89.336 425.454C90.434 425.454 91.37 425.571 92.144 425.805C92.936 426.039 93.584 426.363 94.088 426.777C94.592 427.173 94.961 427.65 95.195 428.208C95.447 428.766 95.573 429.369 95.573 430.017C95.573 430.665 95.447 431.268 95.195 431.826C94.961 432.384 94.592 432.87 94.088 433.284C93.584 433.68 92.936 433.995 92.144 434.229C91.37 434.463 90.434 434.58 89.336 434.58H82.856C81.776 434.58 80.84 434.463 80.048 434.229C79.274 433.995 78.635 433.68 78.131 433.284C77.627 432.87 77.249 432.384 76.997 431.826C76.763 431.268 76.646 430.665 76.646 430.017C76.646 429.369 76.763 428.766 76.997 428.208C77.249 427.65 77.627 427.173 78.131 426.777C78.635 426.363 79.274 426.039 80.048 425.805C80.84 425.571 81.776 425.454 82.856 425.454H89.336ZM89.471 431.637C90.389 431.637 91.028 431.484 91.388 431.178C91.766 430.872 91.955 430.485 91.955 430.017C91.955 429.567 91.766 429.189 91.388 428.883C91.028 428.559 90.389 428.397 89.471 428.397H82.721C81.803 428.397 81.155 428.559 80.777 428.883C80.417 429.189 80.237 429.567 80.237 430.017C80.237 430.485 80.417 430.872 80.777 431.178C81.155 431.484 81.803 431.637 82.721 431.637H89.471ZM83.882 441.006H88.337V438.846H83.882V441.006Z" fill="black"/>
<rect y="511.252" width="148.259" height="97.4964" fill="#FFE697"/>
<path d="M205.469 560L148.059 608.497L148.059 511.503L205.469 560Z" fill="#FFE697"/>
<path d="M33.7953 570.489V573.513H12.9243V570.489H33.7953ZM26.0463 557.934C27.2523 559.014 28.5213 560.076 29.8533 561.12C31.2033 562.164 32.5263 563.154 33.8223 564.09L31.7973 566.682C30.3933 565.62 29.0163 564.54 27.6663 563.442C26.3163 562.326 25.0473 561.228 23.8593 560.148C23.7513 560.04 23.6523 559.941 23.5623 559.851C23.4903 559.761 23.4273 559.653 23.3733 559.527C23.3193 559.653 23.2563 559.761 23.1843 559.851C23.1303 559.941 23.0493 560.04 22.9413 560.148C21.6993 561.264 20.4213 562.371 19.1073 563.469C17.8113 564.567 16.4793 565.629 15.1113 566.655L13.0323 564.09C14.3283 563.136 15.6243 562.146 16.9203 561.12C18.2163 560.076 19.4583 559.005 20.6463 557.907C21.0243 557.583 21.2853 557.25 21.4293 556.908C21.5733 556.566 21.6453 556.134 21.6453 555.612V552.021H25.1283V555.612C25.1283 556.134 25.1733 556.566 25.2633 556.908C25.3713 557.25 25.6323 557.592 26.0463 557.934ZM56.6146 551.481V560.148H59.7466V563.172H56.6146V574.62H53.1316V551.481H56.6146ZM42.2236 572.757C41.9176 572.757 41.6566 572.748 41.4406 572.73C41.2426 572.694 41.0536 572.64 40.8736 572.568C40.7116 572.496 40.5496 572.397 40.3876 572.271C40.2256 572.145 40.0456 571.974 39.8476 571.758L38.4976 570.3C38.3176 570.102 38.1736 569.922 38.0656 569.76C37.9576 569.598 37.8676 569.436 37.7956 569.274C37.7416 569.094 37.6966 568.887 37.6606 568.653C37.6426 568.419 37.6336 568.14 37.6336 567.816V553.128C37.6336 552.462 37.9576 552.129 38.6056 552.129H48.7306C49.3786 552.129 49.7026 552.462 49.7026 553.128V571.731C49.7026 572.415 49.3786 572.757 48.7306 572.757H42.2236ZM46.2196 569.706V555.153H41.1166V567.6C41.1166 567.762 41.1346 567.897 41.1706 568.005C41.2066 568.113 41.2876 568.239 41.4136 568.383L42.3586 569.409C42.4846 569.535 42.5926 569.616 42.6826 569.652C42.7726 569.688 42.8896 569.706 43.0336 569.706H46.2196ZM81.9718 563.901V566.871H66.6628C66.4108 566.871 66.1858 566.862 65.9878 566.844C65.8078 566.808 65.6368 566.754 65.4748 566.682C65.3128 566.61 65.1508 566.511 64.9888 566.385C64.8448 566.259 64.6738 566.097 64.4758 565.899L63.9628 565.359C63.7828 565.161 63.6298 564.981 63.5038 564.819C63.3958 564.657 63.3058 564.495 63.2338 564.333C63.1798 564.153 63.1348 563.964 63.0988 563.766C63.0808 563.55 63.0718 563.298 63.0718 563.01V553.101C63.0718 552.435 63.3958 552.102 64.0438 552.102H81.7558V555.072H66.5548V558.015H81.0538V560.904H66.5548V562.74C66.5548 562.92 66.6088 563.073 66.7168 563.199L67.2028 563.685C67.2928 563.829 67.4458 563.901 67.6618 563.901H81.9718ZM82.9438 570.489V573.513H62.0728V570.489H82.9438ZM95.989 554.883V561.579H97.528V564.468H86.107V561.579H87.484V554.883H86.161V551.994H97.339V554.883H95.989ZM101.848 551.643V556.638H104.035V551.481H107.356V565.089H104.035V559.527H101.848V564.927H98.581V551.643H101.848ZM107.356 575.106H103.873V569.355H88.699V566.385H106.384C107.032 566.385 107.356 566.718 107.356 567.384V575.106ZM90.778 561.579H92.722V554.883H90.778V561.579ZM131.12 563.739V566.709H123.452V570.948H132.065V573.972H111.302V570.948H119.969V566.709H115.811C115.559 566.709 115.334 566.7 115.136 566.682C114.956 566.664 114.785 566.619 114.623 566.547C114.461 566.475 114.299 566.376 114.137 566.25C113.993 566.124 113.822 565.953 113.624 565.737L113.111 565.197C112.931 564.999 112.778 564.828 112.652 564.684C112.544 564.522 112.454 564.36 112.382 564.198C112.328 564.018 112.283 563.829 112.247 563.631C112.229 563.415 112.22 563.154 112.22 562.848V553.101C112.22 552.435 112.544 552.102 113.192 552.102H130.904V555.072H115.703V557.934H130.202V560.85H115.703V562.578C115.703 562.758 115.757 562.911 115.865 563.037L116.351 563.523C116.441 563.667 116.594 563.739 116.81 563.739H131.12ZM139.737 563.658V567.843C139.737 568.095 139.836 568.32 140.034 568.518L140.817 569.517C140.979 569.697 141.177 569.787 141.411 569.787H149.376V572.784H140.574C140.034 572.784 139.611 572.73 139.305 572.622C139.017 572.514 138.693 572.262 138.333 571.866L137.064 570.327C136.902 570.147 136.767 569.985 136.659 569.841C136.569 569.697 136.488 569.544 136.416 569.382C136.362 569.22 136.326 569.031 136.308 568.815C136.29 568.599 136.281 568.329 136.281 568.005V561.66C136.281 561.048 136.596 560.742 137.226 560.742H144.3C144.57 560.742 144.705 560.607 144.705 560.337V555.099H136.335V552.129H147.216C147.864 552.129 148.188 552.462 148.188 553.128V561.714C148.188 563.01 147.531 563.658 146.217 563.658H139.737ZM155.883 551.481V574.62H152.427V551.481H155.883Z" fill="black"/>
<rect y="637.252" width="148.259" height="97.4964" fill="#FFE697"/>
<path d="M205.469 686L148.059 734.497L148.059 637.503L205.469 686Z" fill="#FFE697"/>
<path d="M66.0211 690.8C67.7044 690.8 68.9711 691.142 69.8211 691.825C70.6878 692.492 71.1211 693.467 71.1211 694.75C71.1211 696.05 70.6878 697.033 69.8211 697.7C68.9711 698.367 67.7044 698.7 66.0211 698.7H59.1461C57.4794 698.7 56.2044 698.367 55.3211 697.7C54.4378 697.033 53.9961 696.05 53.9961 694.75C53.9961 693.45 54.4378 692.467 55.3211 691.8C56.2044 691.133 57.4794 690.8 59.1461 690.8H66.0211ZM66.0211 696.95C67.0211 696.95 67.7878 696.767 68.3211 696.4C68.8544 696.017 69.1211 695.467 69.1211 694.75C69.1211 694.05 68.8544 693.517 68.3211 693.15C67.7878 692.767 67.0211 692.575 66.0211 692.575H59.1461C58.1294 692.575 57.3461 692.758 56.7961 693.125C56.2461 693.492 55.9711 694.033 55.9711 694.75C55.9711 695.467 56.2461 696.017 56.7961 696.4C57.3461 696.767 58.1294 696.95 59.1461 696.95H66.0211ZM62.7961 682.575V686.95H72.2961V688.675H52.8711V686.95H60.7461V682.575H62.7961ZM68.6961 679.525H54.3211V677.75H70.0211C70.5044 677.75 70.7461 677.992 70.7461 678.475V681.75C70.7461 682.2 70.7378 682.583 70.7211 682.9C70.7044 683.2 70.6628 683.483 70.5961 683.75C70.5461 684 70.4628 684.267 70.3461 684.55C70.2461 684.833 70.0961 685.175 69.8961 685.575C69.5794 685.475 69.2628 685.383 68.9461 685.3C68.6461 685.217 68.3378 685.133 68.0211 685.05C68.1544 684.717 68.2628 684.425 68.3461 684.175C68.4461 683.925 68.5211 683.683 68.5711 683.45C68.6211 683.217 68.6544 682.975 68.6711 682.725C68.6878 682.458 68.6961 682.15 68.6961 681.8V679.525ZM88.775 690.8C90.4583 690.8 91.725 691.142 92.575 691.825C93.4417 692.492 93.875 693.467 93.875 694.75C93.875 696.05 93.4417 697.033 92.575 697.7C91.725 698.367 90.4583 698.7 88.775 698.7H81.9C80.2333 698.7 78.9583 698.367 78.075 697.7C77.1917 697.033 76.75 696.05 76.75 694.75C76.75 693.45 77.1917 692.467 78.075 691.8C78.9583 691.133 80.2333 690.8 81.9 690.8H88.775ZM88.775 696.95C89.775 696.95 90.5417 696.767 91.075 696.4C91.6083 696.017 91.875 695.467 91.875 694.75C91.875 694.05 91.6083 693.517 91.075 693.15C90.5417 692.767 89.775 692.575 88.775 692.575H81.9C80.8833 692.575 80.1 692.758 79.55 693.125C79 693.492 78.725 694.033 78.725 694.75C78.725 695.467 79 696.017 79.55 696.4C80.1 696.767 80.8833 696.95 81.9 696.95H88.775ZM85.55 682.575V686.95H95.05V688.675H75.625V686.95H83.5V682.575H85.55ZM91.45 679.525H77.075V677.75H92.775C93.2583 677.75 93.5 677.992 93.5 678.475V681.75C93.5 682.2 93.4917 682.583 93.475 682.9C93.4583 683.2 93.4167 683.483 93.35 683.75C93.3 684 93.2167 684.267 93.1 684.55C93 684.833 92.85 685.175 92.65 685.575C92.3333 685.475 92.0167 685.383 91.7 685.3C91.4 685.217 91.0917 685.133 90.775 685.05C90.9083 684.717 91.0167 684.425 91.1 684.175C91.2 683.925 91.275 683.683 91.325 683.45C91.375 683.217 91.4083 682.975 91.425 682.725C91.4417 682.458 91.45 682.15 91.45 681.8V679.525Z" fill="black"/>
<rect y="637.252" width="148.259" height="97.4964" fill="#FFE697"/>
<path d="M205.469 686L148.059 734.497L148.059 637.503L205.469 686Z" fill="#FFE697"/>
<path d="M30.0082 696.489V699.513H9.13723V696.489H30.0082ZM22.2592 683.934C23.4652 685.014 24.7342 686.076 26.0662 687.12C27.4162 688.164 28.7392 689.154 30.0352 690.09L28.0102 692.682C26.6062 691.62 25.2292 690.54 23.8792 689.442C22.5292 688.326 21.2602 687.228 20.0722 686.148C19.9642 686.04 19.8652 685.941 19.7752 685.851C19.7032 685.761 19.6402 685.653 19.5862 685.527C19.5322 685.653 19.4692 685.761 19.3972 685.851C19.3432 685.941 19.2622 686.04 19.1542 686.148C17.9122 687.264 16.6342 688.371 15.3202 689.469C14.0242 690.567 12.6922 691.629 11.3242 692.655L9.24523 690.09C10.5412 689.136 11.8372 688.146 13.1332 687.12C14.4292 686.076 15.6712 685.005 16.8592 683.907C17.2372 683.583 17.4982 683.25 17.6422 682.908C17.7862 682.566 17.8582 682.134 17.8582 681.612V678.021H21.3412V681.612C21.3412 682.134 21.3862 682.566 21.4762 682.908C21.5842 683.25 21.8452 683.592 22.2592 683.934ZM52.8275 677.481V686.148H55.9595V689.172H52.8275V700.62H49.3445V677.481H52.8275ZM38.4365 698.757C38.1305 698.757 37.8695 698.748 37.6535 698.73C37.4555 698.694 37.2665 698.64 37.0865 698.568C36.9245 698.496 36.7625 698.397 36.6005 698.271C36.4385 698.145 36.2585 697.974 36.0605 697.758L34.7105 696.3C34.5305 696.102 34.3865 695.922 34.2785 695.76C34.1705 695.598 34.0805 695.436 34.0085 695.274C33.9545 695.094 33.9095 694.887 33.8735 694.653C33.8555 694.419 33.8465 694.14 33.8465 693.816V679.128C33.8465 678.462 34.1705 678.129 34.8185 678.129H44.9435C45.5915 678.129 45.9155 678.462 45.9155 679.128V697.731C45.9155 698.415 45.5915 698.757 44.9435 698.757H38.4365ZM42.4325 695.706V681.153H37.3295V693.6C37.3295 693.762 37.3475 693.897 37.3835 694.005C37.4195 694.113 37.5005 694.239 37.6265 694.383L38.5715 695.409C38.6975 695.535 38.8055 695.616 38.8955 695.652C38.9855 695.688 39.1025 695.706 39.2465 695.706H42.4325ZM78.1847 689.901V692.871H62.8757C62.6237 692.871 62.3987 692.862 62.2007 692.844C62.0207 692.808 61.8497 692.754 61.6877 692.682C61.5257 692.61 61.3637 692.511 61.2017 692.385C61.0577 692.259 60.8867 692.097 60.6887 691.899L60.1757 691.359C59.9957 691.161 59.8427 690.981 59.7167 690.819C59.6087 690.657 59.5187 690.495 59.4467 690.333C59.3927 690.153 59.3477 689.964 59.3117 689.766C59.2937 689.55 59.2847 689.298 59.2847 689.01V679.101C59.2847 678.435 59.6087 678.102 60.2567 678.102H77.9687V681.072H62.7677V684.015H77.2667V686.904H62.7677V688.74C62.7677 688.92 62.8217 689.073 62.9297 689.199L63.4157 689.685C63.5057 689.829 63.6587 689.901 63.8747 689.901H78.1847ZM79.1567 696.489V699.513H58.2857V696.489H79.1567ZM95.0909 691.359V696.948H103.704V699.972H82.9409V696.948H91.6079V691.359H88.0439C87.7919 691.359 87.5759 691.35 87.3959 691.332C87.2159 691.296 87.0449 691.242 86.8829 691.17C86.7209 691.08 86.5589 690.972 86.3969 690.846C86.2349 690.72 86.0549 690.549 85.8569 690.333L84.6419 689.037C84.4619 688.857 84.3089 688.686 84.1829 688.524C84.0749 688.362 83.9849 688.2 83.9129 688.038C83.8589 687.876 83.8139 687.696 83.7779 687.498C83.7599 687.282 83.7509 687.03 83.7509 686.742V679.074C83.7509 678.408 84.0839 678.075 84.7499 678.075H101.706C102.372 678.075 102.705 678.408 102.705 679.074V690.306C102.705 691.008 102.372 691.359 101.706 691.359H95.0909ZM99.2219 688.281V681.099H87.2609V686.337C87.2609 686.499 87.2789 686.634 87.3149 686.742C87.3509 686.85 87.4229 686.967 87.5309 687.093L88.4219 688.011C88.5299 688.101 88.6199 688.173 88.6919 688.227C88.7639 688.263 88.8719 688.281 89.0159 688.281H99.2219ZM113.023 696.84V697.596C113.023 697.722 113.059 697.812 113.131 697.866L113.212 697.974C113.248 698.028 113.32 698.055 113.428 698.055H127.981V700.944H112.294C111.826 700.944 111.493 700.89 111.295 700.782C111.097 700.674 110.872 700.494 110.62 700.242L110.215 699.81C109.963 699.522 109.792 699.27 109.702 699.054C109.612 698.838 109.567 698.478 109.567 697.974V695.112C109.567 694.824 109.666 694.608 109.864 694.464C110.062 694.32 110.314 694.248 110.62 694.248H123.796C124.012 694.248 124.12 694.149 124.12 693.951V693.141H109.567V690.225H126.523C127.189 690.225 127.522 690.549 127.522 691.197V694.626C127.522 695.274 127.351 695.805 127.009 696.219C126.667 696.633 126.172 696.84 125.524 696.84H113.023ZM111.187 688.659C110.683 688.659 110.287 688.605 109.999 688.497C109.711 688.371 109.432 688.164 109.162 687.876L108.433 687.066C108.181 686.796 107.992 686.526 107.866 686.256C107.758 685.986 107.704 685.599 107.704 685.095V677.67H111.187V680.316H116.533V677.67H120.016V687.606C120.016 688.308 119.692 688.659 119.044 688.659H111.187ZM127.522 677.481V689.037H124.066V677.481H127.522ZM116.533 685.743V683.151H111.187V684.771C111.187 684.915 111.232 685.05 111.322 685.176L111.727 685.608C111.817 685.698 111.943 685.743 112.105 685.743H116.533ZM135.95 689.658V693.843C135.95 694.095 136.049 694.32 136.247 694.518L137.03 695.517C137.192 695.697 137.39 695.787 137.624 695.787H145.589V698.784H136.787C136.247 698.784 135.824 698.73 135.518 698.622C135.23 698.514 134.906 698.262 134.546 697.866L133.277 696.327C133.115 696.147 132.98 695.985 132.872 695.841C132.782 695.697 132.701 695.544 132.629 695.382C132.575 695.22 132.539 695.031 132.521 694.815C132.503 694.599 132.494 694.329 132.494 694.005V687.66C132.494 687.048 132.809 686.742 133.439 686.742H140.513C140.783 686.742 140.918 686.607 140.918 686.337V681.099H132.548V678.129H143.429C144.077 678.129 144.401 678.462 144.401 679.128V687.714C144.401 689.01 143.744 689.658 142.43 689.658H135.95ZM152.096 677.481V700.62H148.64V677.481H152.096ZM161.389 698.784C160.849 698.784 160.426 698.73 160.12 698.622C159.832 698.514 159.508 698.262 159.148 697.866L157.879 696.462C157.717 696.282 157.582 696.12 157.474 695.976C157.384 695.832 157.303 695.679 157.231 695.517C157.177 695.337 157.141 695.148 157.123 694.95C157.105 694.734 157.096 694.464 157.096 694.14V679.101C157.096 678.435 157.411 678.102 158.041 678.102H169.381V681.072H160.606V686.526H168.436V689.469H160.606V693.87C160.606 694.122 160.705 694.347 160.903 694.545L161.74 695.517C161.938 695.697 162.145 695.787 162.361 695.787H170.164V698.784H161.389ZM176.671 677.481V700.62H173.215V677.481H176.671Z" fill="black"/>
</svg>
