<svg width="14" height="24" viewBox="0 0 14 24" fill="none" xmlns="http://www.w3.org/2000/svg">
<path d="M2.63327 12.0381C3.75856 13.0132 5.17786 13.5834 6.66493 13.658C8.152 13.7326 9.62123 13.3072 10.8384 12.4497C12.0556 11.5921 12.9507 10.3518 13.381 8.9264C13.8114 7.501 13.7521 5.97257 13.2128 4.58475C12.6734 3.19694 11.685 2.02962 10.4051 1.26887C9.12515 0.508129 7.62739 0.197749 6.15056 0.387209C4.67373 0.576669 3.30282 1.25506 2.25637 2.31425C1.20993 3.37344 0.548176 4.75246 0.376603 6.23147C-0.21673 9.24814 -0.210064 12.8431 1.14994 16.0648C2.5866 19.4648 5.48494 22.3315 10.4333 23.6265C10.5926 23.6698 10.759 23.6811 10.9227 23.6598C11.0865 23.6385 11.2444 23.5849 11.3873 23.5022C11.5303 23.4195 11.6554 23.3093 11.7555 23.178C11.8556 23.0466 11.9287 22.8967 11.9705 22.737C12.0124 22.5772 12.0221 22.4108 11.9993 22.2472C11.9764 22.0837 11.9214 21.9263 11.8373 21.7841C11.7533 21.6419 11.6419 21.5179 11.5096 21.419C11.3773 21.3201 11.2267 21.2485 11.0666 21.2081C6.84827 20.1031 4.57994 17.7581 3.45327 15.0915C3.04692 14.1142 2.77121 13.0875 2.63327 12.0381Z" fill="url(#paint0_linear_272_3362)"/>
<defs>
<linearGradient id="paint0_linear_272_3362" x1="6.83315" y1="0.333008" x2="6.83315" y2="23.6703" gradientUnits="userSpaceOnUse">
<stop stop-color="#002278"/>
<stop offset="1" stop-color="#E0E9FF"/>
</linearGradient>
</defs>
</svg>
