<svg width="14" height="24" viewBox="0 0 14 24" fill="none" xmlns="http://www.w3.org/2000/svg">
<path d="M11.3667 12.0381C10.2414 13.0132 8.82214 13.5834 7.33507 13.658C5.848 13.7326 4.37877 13.3072 3.16157 12.4496C1.94437 11.5921 1.04927 10.3518 0.61896 8.9264C0.188647 7.501 0.247888 5.97257 0.78724 4.58475C1.32659 3.19694 2.31501 2.02962 3.59493 1.26887C4.87485 0.508129 6.37261 0.197749 7.84944 0.387209C9.32628 0.576669 10.6972 1.25506 11.7436 2.31425C12.7901 3.37344 13.4518 4.75246 13.6234 6.23147C14.2167 9.24814 14.2101 12.8431 12.8501 16.0648C11.4134 19.4648 8.51506 22.3315 3.56673 23.6265C3.40738 23.6698 3.24102 23.6811 3.07726 23.6598C2.9135 23.6385 2.75559 23.5849 2.61265 23.5022C2.46972 23.4195 2.34458 23.3093 2.24449 23.1779C2.14439 23.0466 2.07131 22.8967 2.02947 22.737C1.98764 22.5772 1.97787 22.4108 2.00073 22.2472C2.0236 22.0836 2.07865 21.9263 2.1627 21.7841C2.24675 21.6419 2.35813 21.5179 2.49041 21.419C2.6227 21.3201 2.77326 21.2485 2.9334 21.2081C7.15173 20.1031 9.42007 17.7581 10.5467 15.0915C10.9531 14.1142 11.2288 13.0875 11.3667 12.0381Z" fill="url(#paint0_linear_272_3359)"/>
<defs>
<linearGradient id="paint0_linear_272_3359" x1="7.16685" y1="0.333008" x2="7.16685" y2="23.6703" gradientUnits="userSpaceOnUse">
<stop stop-color="#002278"/>
<stop offset="1" stop-color="#E0E9FF"/>
</linearGradient>
</defs>
</svg>
