<svg width="35" height="35" viewBox="0 0 35 35" fill="none" xmlns="http://www.w3.org/2000/svg">
<g clip-path="url(#clip0_1134_4061)">
<path d="M32.0827 16.1582V17.4999C32.0809 20.6447 31.0626 23.7046 29.1796 26.2234C27.2967 28.7421 24.65 30.5847 21.6342 31.4764C18.6185 32.3681 15.3954 32.261 12.4455 31.1712C9.49555 30.0813 6.97697 28.0671 5.26533 25.4289C3.5537 22.7908 2.74071 19.67 2.94763 16.532C3.15454 13.394 4.37028 10.407 6.41351 8.01645C8.45674 5.62587 11.218 3.95982 14.2855 3.26676C17.3529 2.57371 20.5622 2.89079 23.4348 4.17072M32.0827 5.83322L17.4994 20.4311L13.1244 16.0561" stroke="#5984EC" stroke-width="4" stroke-linecap="round" stroke-linejoin="round"/>
</g>
<defs>
<clipPath id="clip0_1134_4061">
<rect width="35" height="35" fill="white"/>
</clipPath>
</defs>
</svg>
