<svg width="90" height="88" viewBox="0 0 90 88" fill="none" xmlns="http://www.w3.org/2000/svg">
<g clip-path="url(#clip0_111_66)">
<path d="M90 0.550293H0V87.8302H90V0.550293Z" fill="#242F3E"/>
<path fill-rule="evenodd" clip-rule="evenodd" d="M73.5709 52.7018C74.3832 53.7252 72.6709 57.9364 71.9037 59.8217C71.6697 60.3934 72.1692 60.6181 72.6912 60.1883C76.0954 57.3866 76.9774 51.5148 76.2777 50.6682C75.5869 49.826 69.6379 49.1037 66.0109 51.6108C65.4507 51.9971 65.5474 52.5295 66.1662 52.4596C68.2092 52.2153 72.7609 51.6807 73.5709 52.7018ZM71.6764 57.0855C72.8419 56.2607 71.8429 55.0322 70.6549 55.5144C62.7507 58.7089 54.1692 60.2559 46.3549 60.2559C34.7832 60.2559 23.5692 57.2251 14.5039 52.1934C13.7119 51.7527 13.1247 52.5316 13.7862 53.0968C22.1854 60.3323 33.2914 64.681 45.6169 64.681C54.4144 64.681 64.6317 62.0451 71.6764 57.0855ZM66.8524 45.7064C65.7319 45.7064 64.6362 45.5907 63.5697 45.3551C62.4987 45.1172 61.6797 44.8488 61.1104 44.5412C60.7617 44.3579 60.5434 44.1659 60.4557 43.9782C60.3702 43.7862 60.3252 43.5985 60.3252 43.4109V42.3875C60.3252 41.9642 60.4894 41.7482 60.8112 41.7482C60.9349 41.7482 61.0654 41.7766 61.2004 41.8202C61.3377 41.8704 61.5177 41.9402 61.7427 42.0341C62.4627 42.3417 63.2434 42.5752 64.0917 42.741C64.9377 42.9047 65.7814 42.9876 66.6252 42.9876C67.9684 42.9876 69.0057 42.765 69.7392 42.3155C70.4749 41.8704 70.8394 41.2354 70.8394 40.4106C70.8394 39.8433 70.6482 39.3742 70.2612 38.9945C69.8764 38.6149 69.1609 38.2679 68.1192 37.9363L65.0254 37.0176C63.4572 36.5463 62.3209 35.8634 61.6122 34.9709C60.9034 34.0719 60.5502 33.0966 60.5502 32.0318C60.5502 31.1873 60.7414 30.4411 61.1307 29.7909C61.5132 29.1428 62.0194 28.5908 62.6517 28.1304C63.2929 27.6721 64.0332 27.3274 64.8769 27.0874C65.7184 26.8539 66.6139 26.7339 67.5589 26.7339C68.0314 26.7339 68.5107 26.7644 68.9989 26.8233C69.4827 26.8801 69.9417 26.9586 70.3759 27.0525C70.8102 27.1506 71.2152 27.2554 71.5864 27.371C71.9599 27.491 72.2569 27.6089 72.4842 27.7245C72.7789 27.8882 72.9882 28.054 73.1164 28.2198C73.2402 28.3835 73.3032 28.606 73.3032 28.8919V29.8432C73.3032 30.2687 73.1412 30.4782 72.8149 30.4782C72.6417 30.4782 72.3717 30.3996 71.9959 30.2338C70.7809 29.7123 69.4084 29.457 67.8987 29.457C66.6792 29.457 65.7319 29.6447 65.0614 30.02C64.3887 30.3996 64.0534 30.9997 64.0534 31.8245C64.0534 32.3874 64.2649 32.8653 64.6902 33.2537C65.1132 33.6421 65.8939 34.013 67.0392 34.3687L70.0587 35.2895C71.5999 35.7564 72.7002 36.4067 73.3572 37.2271C74.0187 38.0541 74.3494 38.9945 74.3494 40.0528C74.3494 40.9278 74.1627 41.7111 73.7869 42.405C73.4134 43.101 72.8982 43.6924 72.2367 44.1877C71.5797 44.683 70.7922 45.0583 69.8719 45.318C68.9494 45.5798 67.9437 45.7064 66.8524 45.7064ZM39.4812 45.1739C39.1077 45.1739 38.8354 45.115 38.6599 44.9841C38.4844 44.851 38.3359 44.5892 38.2122 44.1877L33.2127 28.5711C33.0934 28.1696 33.0282 27.9013 33.0282 27.7616C33.0282 27.4321 33.2037 27.2663 33.5524 27.2663H35.6382C36.0364 27.2663 36.3154 27.3318 36.4797 27.4627C36.6394 27.5892 36.7812 27.8511 36.9049 28.2569L40.4847 41.6107L43.8079 28.2569C43.9069 27.8511 44.0419 27.5892 44.2152 27.4627C44.3884 27.3318 44.6742 27.2663 45.0702 27.2663H46.7914C47.1852 27.2663 47.4709 27.3318 47.6464 27.4627C47.8197 27.5892 47.9569 27.8511 48.0559 28.2569L51.4152 41.7875L55.1052 28.2569C55.2289 27.8511 55.3707 27.5892 55.5327 27.4627C55.6969 27.3318 55.9737 27.2663 56.3719 27.2663H58.3474C58.6984 27.2663 58.8717 27.4321 58.8717 27.7616C58.8717 27.8511 58.8559 27.9602 58.8357 28.0758C58.8064 28.198 58.7614 28.3617 58.6827 28.5711L53.5392 44.1877C53.4154 44.5892 53.2647 44.851 53.0892 44.9841C52.9159 45.115 52.6414 45.1739 52.2702 45.1739H50.4409C50.0449 45.1739 49.7592 45.1085 49.5859 44.9688C49.4127 44.827 49.2754 44.5521 49.1764 44.155L45.8554 31.1502L42.5772 44.155C42.4782 44.5521 42.3387 44.827 42.1654 44.9688C41.9899 45.1085 41.7064 45.1739 41.3082 45.1739H39.4812ZM22.3632 42.9876C23.0629 42.9876 23.7942 42.8632 24.5659 42.6166C25.3354 42.3679 26.0059 41.9402 26.5774 41.3249C26.9284 40.9496 27.1669 40.5197 27.3064 40.0353C27.4414 39.5553 27.5067 38.9727 27.5067 38.2876V37.4409C26.8902 37.2991 26.2377 37.1878 25.5514 37.1049C24.8674 37.0242 24.2037 36.9805 23.5557 36.9805C22.1404 36.9805 21.0807 37.2511 20.3877 37.7944C19.6924 38.3356 19.3414 39.1102 19.3414 40.1292C19.3414 41.0696 19.6047 41.7788 20.1267 42.2632C20.6487 42.7476 21.3957 42.9876 22.3632 42.9876ZM31.0167 39.9153C31.0167 40.6681 31.0954 41.266 31.2574 41.7155C31.4217 42.165 31.6512 42.6494 31.9482 43.1643C32.0472 43.3302 32.0967 43.4829 32.0967 43.6204C32.0967 43.8364 31.9594 44.0371 31.6872 44.2226L30.3439 45.0736C30.1459 45.1892 29.9592 45.2503 29.7859 45.2503C29.5587 45.2503 29.3494 45.1565 29.1514 44.9688C28.8499 44.683 28.5979 44.3732 28.3887 44.0306C28.1727 43.6902 27.9567 43.2909 27.7339 42.8436C26.0667 44.7048 23.9809 45.6365 21.4699 45.6365C19.6789 45.6365 18.2614 45.1565 17.2152 44.1877C16.1734 43.2232 15.6514 41.9271 15.6514 40.3037C15.6514 38.5865 16.2972 37.1987 17.5932 36.1514C18.8824 35.104 20.6262 34.5782 22.8109 34.5782C23.5332 34.5782 24.2847 34.6327 25.0677 34.7375C25.8484 34.8422 26.6652 34.9927 27.5067 35.1804V33.6988C27.5067 32.1671 27.1759 31.0892 26.5032 30.4629C25.8327 29.8389 24.6784 29.529 23.0382 29.529C22.2889 29.529 21.5239 29.6141 20.7409 29.7909C19.9602 29.9676 19.1929 30.1967 18.4482 30.4782C18.0994 30.62 17.8497 30.7095 17.7034 30.7444C17.5549 30.7793 17.4424 30.7968 17.3682 30.7968C17.0712 30.7968 16.9182 30.5873 16.9182 30.1596V29.1734C16.9182 28.8417 16.9722 28.606 17.0712 28.4686C17.1702 28.3246 17.3682 28.1827 17.6674 28.0431C18.4122 27.6874 19.3077 27.3819 20.3494 27.1245C21.3957 26.8648 22.5004 26.7339 23.6704 26.7339C26.2039 26.7339 28.0624 27.2859 29.2437 28.3769C30.4227 29.4723 31.0167 31.1262 31.0167 33.341V39.9153Z" fill="white"/>
</g>
<defs>
<clipPath id="clip0_111_66">
<rect width="90" height="87.2799" fill="white" transform="translate(0 0.550293)"/>
</clipPath>
</defs>
</svg>
