<svg width="30" height="30" viewBox="0 0 30 30" fill="none" xmlns="http://www.w3.org/2000/svg">
<g clip-path="url(#clip0_1083_4238)">
<path d="M30 0H0V30H30V0Z" fill="#242F3E"/>
<path fill-rule="evenodd" clip-rule="evenodd" d="M24.5237 17.9258C24.7945 18.2775 24.2237 19.725 23.968 20.373C23.89 20.5695 24.0565 20.6467 24.2305 20.499C25.3652 19.536 25.6592 17.5177 25.426 17.2267C25.1957 16.9372 23.2127 16.689 22.0037 17.5508C21.817 17.6835 21.8492 17.8665 22.0555 17.8425C22.7365 17.7585 24.2537 17.5748 24.5237 17.9258ZM23.8922 19.4325C24.2807 19.149 23.9477 18.7267 23.5517 18.8925C20.917 19.9905 18.0565 20.5222 15.4517 20.5222C11.5945 20.5222 7.85647 19.4805 4.83472 17.751C4.57072 17.5995 4.37497 17.8672 4.59547 18.0615C7.39522 20.5485 11.0972 22.0432 15.2057 22.0432C18.1382 22.0432 21.544 21.1372 23.8922 19.4325ZM22.2842 15.5212C21.9107 15.5212 21.5455 15.4815 21.19 15.4005C20.833 15.3187 20.56 15.2265 20.3702 15.1208C20.254 15.0578 20.1812 14.9917 20.152 14.9272C20.1235 14.8612 20.1085 14.7967 20.1085 14.7322V14.3805C20.1085 14.235 20.1632 14.1607 20.2705 14.1607C20.3117 14.1607 20.3552 14.1705 20.4002 14.1855C20.446 14.2027 20.506 14.2268 20.581 14.259C20.821 14.3648 21.0812 14.445 21.364 14.502C21.646 14.5582 21.9272 14.5867 22.2085 14.5867C22.6562 14.5867 23.002 14.5103 23.2465 14.3558C23.4917 14.2028 23.6132 13.9845 23.6132 13.701C23.6132 13.506 23.5495 13.3447 23.4205 13.2142C23.2922 13.0837 23.0537 12.9645 22.7065 12.8505L21.6752 12.5347C21.1525 12.3727 20.7737 12.138 20.5375 11.8313C20.3012 11.5223 20.1835 11.187 20.1835 10.821C20.1835 10.5308 20.2472 10.2742 20.377 10.0507C20.5045 9.828 20.6732 9.63825 20.884 9.48C21.0977 9.3225 21.3445 9.204 21.6257 9.1215C21.9062 9.04125 22.2047 9 22.5197 9C22.6772 9 22.837 9.0105 22.9997 9.03075C23.161 9.05025 23.314 9.07725 23.4587 9.1095C23.6035 9.14325 23.7385 9.17925 23.8622 9.219C23.9867 9.26025 24.0857 9.30075 24.1615 9.3405C24.2597 9.39675 24.3295 9.45375 24.3722 9.51075C24.4135 9.567 24.4345 9.6435 24.4345 9.74175V10.0688C24.4345 10.215 24.3805 10.287 24.2717 10.287C24.214 10.287 24.124 10.26 23.9987 10.203C23.5937 10.0237 23.1362 9.936 22.633 9.936C22.2265 9.936 21.9107 10.0005 21.6872 10.1295C21.463 10.26 21.3512 10.4663 21.3512 10.7497C21.3512 10.9432 21.4217 11.1075 21.5635 11.241C21.7045 11.3745 21.9647 11.502 22.3465 11.6243L23.353 11.9408C23.8667 12.1013 24.2335 12.3247 24.4525 12.6067C24.673 12.891 24.7832 13.2142 24.7832 13.578C24.7832 13.8787 24.721 14.148 24.5957 14.3865C24.4712 14.6258 24.2995 14.829 24.079 14.9992C23.86 15.1695 23.5975 15.2985 23.2907 15.3877C22.9832 15.4777 22.648 15.5212 22.2842 15.5212ZM13.1605 15.3382C13.036 15.3382 12.9452 15.318 12.8867 15.273C12.8282 15.2272 12.7787 15.1372 12.7375 14.9992L11.071 9.6315C11.0312 9.4935 11.0095 9.40125 11.0095 9.35325C11.0095 9.24 11.068 9.183 11.1842 9.183H11.8795C12.0122 9.183 12.1052 9.2055 12.16 9.2505C12.2132 9.294 12.2605 9.384 12.3017 9.5235L13.495 14.1135L14.6027 9.5235C14.6357 9.384 14.6807 9.294 14.7385 9.2505C14.7962 9.2055 14.8915 9.183 15.0235 9.183H15.5972C15.7285 9.183 15.8237 9.2055 15.8822 9.2505C15.94 9.294 15.9857 9.384 16.0187 9.5235L17.1385 14.1742L18.3685 9.5235C18.4097 9.384 18.457 9.294 18.511 9.2505C18.5657 9.2055 18.658 9.183 18.7907 9.183H19.4492C19.5662 9.183 19.624 9.24 19.624 9.35325C19.624 9.384 19.6187 9.4215 19.612 9.46125C19.6022 9.50325 19.5872 9.5595 19.561 9.6315L17.8465 14.9992C17.8052 15.1372 17.755 15.2272 17.6965 15.273C17.6387 15.318 17.5472 15.3382 17.4235 15.3382H16.8137C16.6817 15.3382 16.5865 15.3157 16.5287 15.2677C16.471 15.219 16.4252 15.1245 16.3922 14.988L15.2852 10.518L14.1925 14.988C14.1595 15.1245 14.113 15.219 14.0552 15.2677C13.9967 15.3157 13.9022 15.3382 13.7695 15.3382H13.1605ZM7.45447 14.5867C7.68772 14.5867 7.93147 14.544 8.18872 14.4592C8.44522 14.3737 8.66872 14.2267 8.85922 14.0152C8.97622 13.8862 9.05572 13.7385 9.10222 13.572C9.14722 13.407 9.16897 13.2067 9.16897 12.9712V12.6802C8.96347 12.6315 8.74597 12.5932 8.51722 12.5647C8.28922 12.537 8.06797 12.522 7.85197 12.522C7.38022 12.522 7.02697 12.615 6.79597 12.8017C6.56422 12.9877 6.44722 13.254 6.44722 13.6042C6.44722 13.9275 6.53497 14.1713 6.70897 14.3378C6.88297 14.5042 7.13197 14.5867 7.45447 14.5867ZM10.339 13.5307C10.339 13.7895 10.3652 13.995 10.4192 14.1495C10.474 14.304 10.5505 14.4705 10.6495 14.6475C10.6825 14.7045 10.699 14.757 10.699 14.8042C10.699 14.8785 10.6532 14.9475 10.5625 15.0112L10.1147 15.3038C10.0487 15.3435 9.98647 15.3645 9.92872 15.3645C9.85297 15.3645 9.78322 15.3322 9.71722 15.2677C9.61672 15.1695 9.53272 15.063 9.46297 14.9452C9.39097 14.8282 9.31897 14.691 9.24472 14.5372C8.68897 15.177 7.99372 15.4972 7.15672 15.4972C6.55972 15.4972 6.08722 15.3322 5.73847 14.9992C5.39122 14.6677 5.21722 14.2222 5.21722 13.6642C5.21722 13.074 5.43247 12.597 5.86447 12.237C6.29422 11.877 6.87547 11.6962 7.60372 11.6962C7.84447 11.6962 8.09497 11.715 8.35597 11.751C8.61622 11.787 8.88847 11.8387 9.16897 11.9032V11.394C9.16897 10.8675 9.05872 10.497 8.83447 10.2818C8.61097 10.0673 8.22622 9.96075 7.67947 9.96075C7.42972 9.96075 7.17472 9.99 6.91372 10.0507C6.65347 10.1115 6.39772 10.1903 6.14947 10.287C6.03322 10.3358 5.94997 10.3665 5.90122 10.3785C5.85172 10.3905 5.81422 10.3965 5.78947 10.3965C5.69047 10.3965 5.63947 10.3245 5.63947 10.1775V9.8385C5.63947 9.7245 5.65747 9.6435 5.69047 9.59625C5.72347 9.54675 5.78947 9.498 5.88922 9.45C6.13747 9.32775 6.43597 9.22275 6.78322 9.13425C7.13197 9.045 7.50022 9 7.89022 9C8.73472 9 9.35422 9.18975 9.74797 9.56475C10.141 9.94125 10.339 10.5097 10.339 11.271V13.5307Z" fill="white"/>
</g>
<defs>
<clipPath id="clip0_1083_4238">
<rect width="30" height="30" fill="white"/>
</clipPath>
</defs>
</svg>
