<svg width="72" height="78" viewBox="0 0 72 78" fill="none" xmlns="http://www.w3.org/2000/svg">
<path d="M0.983439 5.19954L6.45636 65.3459C6.68344 67.8451 8.47719 69.9523 10.9647 70.6413L33.1376 76.7852C35.0084 77.3045 36.9897 77.3045 38.8605 76.7852L61.0334 70.6413C63.5209 69.9523 65.3147 67.8471 65.5418 65.3459L71.0147 5.19954C71.2314 2.83571 69.3126 0.803223 66.8668 0.803223H5.13344C2.68761 0.803223 0.768856 2.83571 0.983439 5.19954Z" fill="url(#paint0_linear_280_3075)"/>
<path d="M36 6.86426V71.314L56.575 65.6125C58.2354 65.1519 59.4312 63.7457 59.5812 62.0789L64.3437 9.0604C64.45 7.87848 63.4917 6.86426 62.2688 6.86426H36Z" fill="#35C1F1"/>
<path d="M54.9583 16.9658H36V25.0473H46.2083L45.5833 33.1288H36V41.2102H45.1667L44.5417 50.3019L36 53.1304V61.6159L52.4583 56.363L53.9167 33.1288L54.9583 16.9658Z" fill="white"/>
<path d="M35.9999 16.9658V25.0473H17.4583L16.8333 16.9658H35.9999ZM26.4166 33.1288L26.8333 41.2102H35.9999V33.1288H26.4166ZM27.2499 45.251H18.9166L19.5416 56.363L35.9999 61.6159V53.1304L27.4583 50.3019L27.2499 45.251Z" fill="#D6E0E9"/>
<path opacity="0.05" d="M54.9582 16.9662L53.9166 33.1291L52.4582 56.3633L35.9999 61.6163L19.5416 56.3633L18.9166 45.2513H27.2499L27.4582 50.3022L35.9999 53.1308L44.5416 50.3022L45.1666 41.2106H35.9999H26.8332L26.4166 33.1291H35.9999H45.5832L46.2082 25.0476H35.9999H17.4582L16.8332 16.9662H35.9999H54.9582ZM57.1749 14.9458H54.9582H35.9999H16.8332H14.5874L14.7562 17.1177L15.3812 25.1992L15.5249 27.068H17.4582H35.9999H43.9624L43.6499 31.1087H35.9999H26.4166H24.227L24.3353 33.2301L24.752 41.3116L24.852 43.231H18.9166H16.7166L16.8374 45.3604L17.4624 56.4724L17.5395 57.8503L18.8916 58.2827L35.3499 63.5356L35.9999 63.7437L36.652 63.5356L53.1103 58.2827L54.452 57.8544L54.5374 56.4866L55.9957 33.2524L57.0374 17.0935L57.1749 14.9458ZM29.252 43.231H35.9999H42.9395L42.5541 48.8253L35.9999 50.9952L29.4832 48.8375L29.3312 45.1705L29.252 43.231Z" fill="black"/>
<path opacity="0.07" d="M54.9584 16.9658L53.9167 33.1287L52.4584 56.3629L36 61.6159L19.5417 56.3629L18.9167 45.2509H27.25L27.4584 50.3018L36 53.1303L44.5417 50.3018L45.1667 41.2102H36H26.8334L26.4167 33.1287H36H45.5834L46.2084 25.0472H36H17.4584L16.8334 16.9658H36H54.9584ZM56.0667 15.9556H54.9584H36H16.8334H15.7104L15.7938 17.0405L16.4188 25.122L16.4917 26.0574H17.4584H36H45.0854L44.6167 32.1185H36H26.4167H25.3209L25.375 33.1792L25.7917 41.2607L25.8417 42.2203H26.8334H36H44.0542L43.55 49.5624L36 52.0636L28.4709 49.5704L28.2917 45.2105L28.25 44.2407H27.25H18.9167H17.8167L17.8771 45.3055L18.5021 56.4175L18.5417 57.1064L19.2167 57.3226L35.675 62.5756L36 62.6786L36.325 62.5756L52.7834 57.3226L53.4542 57.1084L53.4979 56.4235L54.9563 33.1893L55.9979 17.0284L56.0667 15.9556Z" fill="black"/>
<defs>
<linearGradient id="paint0_linear_280_3075" x1="20.0209" y1="-14.8506" x2="51.5167" y2="74.3781" gradientUnits="userSpaceOnUse">
<stop stop-color="#2AA4F4"/>
<stop offset="1" stop-color="#007AD9"/>
</linearGradient>
</defs>
</svg>
