<svg width="90" height="69" viewBox="0 0 90 69" fill="none" xmlns="http://www.w3.org/2000/svg">
<g clip-path="url(#clip0_110_900)">
<path d="M88.5359 28.1702C86.3295 26.7508 80.5315 26.1447 76.3163 27.2296C76.089 23.2173 73.9242 19.8362 69.9637 16.886L68.4975 15.9455L67.5205 17.3557C65.5997 20.1421 64.7905 23.8542 65.0773 27.2285C65.3034 29.3074 66.0603 31.6446 67.5205 33.3402C62.0343 36.3813 56.9777 35.691 34.583 35.691H0.00678588C-0.0943698 40.5233 0.718446 49.8195 6.90441 57.3869C7.58751 58.2228 8.33725 59.0314 9.15007 59.8105C14.1793 64.6235 21.7779 68.1525 33.1406 68.1627C50.4751 68.1775 65.3272 59.2236 74.361 37.5732C77.3338 37.6198 85.1811 38.0827 89.0214 30.9906C89.1154 30.8712 89.9985 29.1096 89.9985 29.1096L88.5347 28.169L88.5359 28.1702ZM22.5716 23.7507H12.8488V33.0423H22.5716V23.7507ZM35.1328 23.7507H25.41V33.0423H35.1328V23.7507ZM47.694 23.7507H37.9711V33.0423H47.694V23.7507ZM60.2551 23.7507H50.5323V33.0423H60.2551V23.7507ZM10.0105 23.7507H0.287642V33.0423H10.0105V23.7507ZM22.5716 12.0151H12.8488V21.3067H22.5716V12.0151ZM35.1328 12.0151H25.41V21.3067H35.1328V12.0151ZM47.694 12.0151H37.9711V21.3067H47.694V12.0151ZM47.694 0.27832H37.9711V9.56991H47.694V0.27832Z" fill="#1D63ED"/>
</g>
<defs>
<clipPath id="clip0_110_900">
<rect width="90" height="67.8844" fill="white" transform="translate(0 0.27832)"/>
</clipPath>
</defs>
</svg>
