<svg width="80" height="78" viewBox="0 0 80 78" fill="none" xmlns="http://www.w3.org/2000/svg">
<path d="M77.9167 35.3515L43.9584 2.41952C42.9167 1.40933 41.4584 0.803223 40.0001 0.803223C38.5417 0.803223 37.0834 1.40933 36.0417 2.41952L28.7501 9.4908L37.2917 17.7743C38.1251 17.3702 38.9584 17.1682 40.0001 17.1682C43.5417 17.1682 46.2501 19.7947 46.2501 23.2293C46.2501 24.2395 46.0417 25.0476 45.6251 25.8558L53.9584 33.9373C54.7917 33.5332 55.6251 33.3311 56.6667 33.3311C60.2084 33.3311 62.9167 35.9576 62.9167 39.3923C62.9167 42.8269 60.2084 45.4534 56.6667 45.4534C53.1251 45.4534 50.4167 42.8269 50.4167 39.3923C50.4167 38.3821 50.6251 37.5739 51.0417 36.7658L42.7084 28.6843C42.5001 28.6843 42.2917 28.8863 42.0834 28.8863V49.8982C44.5834 50.7063 46.2501 52.9287 46.2501 55.5552C46.2501 58.9898 43.5417 61.6163 40.0001 61.6163C36.4584 61.6163 33.7501 58.9898 33.7501 55.5552C33.7501 52.9287 35.4167 50.7063 37.9167 49.8982V28.6843C35.4167 27.8762 33.7501 25.6537 33.7501 23.0273C33.7501 22.0171 33.9584 21.2089 34.3751 20.4008L25.8334 12.1173L2.08342 35.3515C1.04175 36.3617 0.416748 37.776 0.416748 39.1902C0.416748 40.6045 1.04175 42.0187 2.08342 43.0289L36.0417 75.9609C37.0834 76.9711 38.5417 77.5772 40.0001 77.5772C41.4584 77.5772 42.9167 76.9711 43.9584 75.9609L77.9167 43.0289C78.9584 42.0187 79.5834 40.6045 79.5834 39.1902C79.5834 37.776 78.9584 36.3617 77.9167 35.3515Z" fill="#F4511E"/>
</svg>
