<svg width="79" height="82" viewBox="0 0 79 82" fill="none" xmlns="http://www.w3.org/2000/svg">
<path d="M78.2897 36.1615C78.1397 34.7836 77.9168 33.1896 77.4668 31.452C77.0168 29.7145 76.2709 27.8295 75.3001 25.7991C74.2543 23.8433 72.9834 21.7401 71.2647 19.7844C70.5918 18.9864 69.8438 18.2631 69.098 17.465C70.2938 12.899 67.6772 8.91282 67.6772 8.91282C63.1188 8.62391 60.2793 10.2907 59.2334 11.014C59.0834 10.9413 58.8605 10.8685 58.7105 10.7958C57.9647 10.5089 57.1418 10.218 56.3209 9.92907C55.498 9.71087 54.6772 9.42195 53.8543 9.27649C53.0313 9.05829 52.1355 8.91484 51.2397 8.76937C51.0897 8.76937 50.9418 8.69664 50.7918 8.69664C48.848 2.60927 43.1688 0.000976562 43.1688 0.000976562C36.6668 4.0599 35.398 9.49469 35.398 9.49469C35.398 9.49469 35.398 9.64015 35.323 9.7836C34.9501 9.85633 34.6501 10.0018 34.2772 10.0725C33.8293 10.218 33.3063 10.3614 32.8563 10.5796C32.4084 10.7978 31.8855 10.9413 31.4355 11.1595C30.4647 11.5938 29.5668 12.0282 28.5959 12.5374C27.7001 13.0445 26.8022 13.5516 25.9813 14.1314C25.8313 14.0587 25.7563 13.986 25.7563 13.986C17.0126 10.7251 9.24176 14.6385 9.24176 14.6385C8.56885 23.6979 12.7543 29.3488 13.5751 30.3651C13.3501 30.9449 13.2022 31.452 12.9772 32.0319C12.3043 34.0603 11.8563 36.1635 11.5563 38.3375C11.4813 38.6264 11.4813 38.99 11.4063 39.2789C3.33551 43.1197 0.943848 51.092 0.943848 51.092C7.66885 58.628 15.5897 59.0644 15.5897 59.0644C16.5605 60.804 17.7563 62.4708 19.0272 63.9921C19.5501 64.6447 20.148 65.2245 20.7459 65.8771C18.2793 72.6898 21.1188 78.4135 21.1188 78.4135C28.6668 78.7024 33.598 75.2253 34.6438 74.4273C35.3918 74.6455 36.1376 74.8617 36.8855 75.0799C39.2022 75.6597 41.5938 76.0214 43.9105 76.0941C44.5084 76.0941 45.1063 76.0941 45.7043 76.0941H46.0022H46.2272H46.6001H46.973C50.4855 81.0218 56.7626 81.6743 56.7626 81.6743C61.1709 77.1083 61.4709 72.6878 61.4709 71.6735C61.4709 71.6735 61.4709 71.6735 61.4709 71.6008C61.4709 71.5281 61.4709 71.4553 61.4709 71.4553C61.4709 71.3826 61.4709 71.3099 61.4709 71.2371C62.3668 70.5845 63.2647 69.932 64.1605 69.2087C65.9543 67.6873 67.448 65.8751 68.7938 63.9901C68.9438 63.8446 69.0189 63.6284 69.1668 63.483C74.173 63.7719 77.6855 60.4403 77.6855 60.4403C76.8626 55.3671 73.8751 52.9043 73.2772 52.4679C73.2772 52.4679 73.2772 52.4679 73.2022 52.3952L73.1272 52.3224L73.0522 52.2497C73.0522 51.9608 73.1272 51.6699 73.1272 51.3082C73.2022 50.7284 73.2022 50.2213 73.2022 49.6414V49.207V48.9888V48.9161C73.2022 48.7706 73.2022 48.8434 73.2022 48.7706V48.409V47.9746C73.2022 47.8291 73.2022 47.6857 73.2022 47.5402C73.2022 47.3948 73.2022 47.2513 73.1272 47.1059L73.0522 46.6715L72.9772 46.2371C72.9022 45.6572 72.7522 45.1501 72.6793 44.5703C72.1563 42.3964 71.2584 40.2952 70.1376 38.4829C68.9418 36.5979 67.523 35.0038 65.8772 33.5552C64.2334 32.1774 62.4397 31.0197 60.4959 30.2216C58.5522 29.3529 56.6105 28.8438 54.5918 28.6276C53.6209 28.4821 52.5751 28.4821 51.6022 28.4821H51.2293H51.1543H51.0043H50.8543H50.4813C50.3313 28.4821 50.1834 28.4821 50.1084 28.4821C49.5855 28.5548 49.0626 28.6276 48.6147 28.7003C46.598 29.0619 44.7293 29.7873 43.0855 30.7288C41.4418 31.6702 40.0209 32.9027 38.8251 34.2806C37.6293 35.6585 36.7334 37.1071 36.1355 38.7011C35.5376 40.2225 35.1647 41.8893 35.0897 43.4106C35.0897 43.7722 35.0897 44.2086 35.0897 44.5703C35.0897 44.643 35.0897 44.7885 35.0897 44.8592V45.1481C35.0897 45.3663 35.0897 45.5098 35.1647 45.728C35.2397 46.526 35.3897 47.2493 35.6126 47.9746C36.0605 49.4232 36.7334 50.7284 37.6293 51.8881C38.5251 53.0478 39.498 53.9165 40.6188 54.6418C41.7397 55.3671 42.8397 55.947 44.0563 56.2359C48.0959 57.1996 52.6501 55.3671 52.948 55.1489C53.023 55.0762 53.173 55.0035 53.2459 54.9307C53.6188 54.6418 53.6939 54.1327 53.3959 53.771C53.098 53.4821 52.648 53.4094 52.2751 53.5528C51.6209 53.8761 50.9355 54.3085 49.2855 54.4216C44.9397 54.7247 43.2334 52.7548 42.5605 52.1022C41.8126 51.4496 41.2147 50.7243 40.6918 49.8556C40.1688 48.9868 39.8688 48.0433 39.7209 47.1018C39.6459 46.5947 39.5709 46.0876 39.6459 45.5805C39.6459 45.435 39.6459 45.2916 39.6459 45.1461V45.0734V45.0006C39.6459 44.9279 39.6459 44.8552 39.6459 44.7824C39.6459 44.4935 39.7209 44.2753 39.7959 43.9844C40.1688 41.8105 41.2897 39.7093 43.0084 38.1152C43.4563 37.6808 43.9043 37.3172 44.4293 37.0283C44.9522 36.6666 45.4751 36.3757 45.998 36.1595C46.5209 35.9413 47.1188 35.7251 47.7168 35.5797C48.3147 35.4342 48.9126 35.2907 49.5105 35.2907C49.8084 35.2907 50.1084 35.218 50.4063 35.218C50.4813 35.218 50.5563 35.218 50.6313 35.218H50.8563H51.0063H51.0813H51.3063C51.9793 35.2907 52.6522 35.3635 53.2501 35.5069C54.5209 35.7958 55.7918 36.2322 56.9855 36.8848C59.3772 38.19 61.3938 40.1457 62.5897 42.5378C63.1876 43.6975 63.6355 45.0027 63.8605 46.3785C63.9355 46.7402 63.9355 47.0311 64.0105 47.3927V47.6109V47.8291C64.0105 47.9019 64.0105 47.9746 64.0105 48.0473C64.0105 48.1201 64.0105 48.1928 64.0105 48.2655V48.4837V48.7019C64.0105 48.8474 64.0105 49.1363 64.0105 49.2818C64.0105 49.6434 63.9355 50.0071 63.9355 50.3687C63.8605 50.7304 63.8605 51.0941 63.7855 51.4557C63.7105 51.8174 63.6355 52.181 63.5605 52.5427C63.4105 53.268 63.1126 53.9206 62.8876 54.6438C62.3647 56.0217 61.6168 57.3249 60.7209 58.4846C58.9272 60.8767 56.4605 62.8324 53.6959 64.0648C52.2751 64.6447 50.8563 65.1518 49.3626 65.37C48.6147 65.5154 47.8688 65.5882 47.1209 65.5882H46.9793H46.8293H46.6043H46.2313H46.0063H45.9314C45.5584 65.5882 45.1084 65.5882 44.7355 65.5154C43.0918 65.37 41.523 65.0811 39.9522 64.6467C38.3834 64.2123 36.8876 63.6325 35.4688 62.9072C32.6293 61.4585 30.0876 59.3553 28.0709 56.9652C27.1001 55.7328 26.2022 54.4297 25.4563 53.0518C24.7105 51.6739 24.1855 50.2253 23.7376 48.7767C23.2897 47.3281 23.0647 45.8047 22.9897 44.2834V43.9945V43.9218V43.849V43.7036V43.4813V43.4086V43.3358V43.1904V42.8287V42.756V42.6126C22.9897 42.3944 22.9897 42.2509 22.9897 42.0327C22.9897 41.3074 23.0647 40.5114 23.2147 39.7133C23.2897 38.9153 23.4397 38.192 23.5876 37.3939C23.7355 36.5959 23.9605 35.8726 24.1855 35.0746C24.6334 33.5532 25.1563 32.1026 25.8293 30.7267C27.1751 27.973 28.8938 25.5081 30.9105 23.5524C31.4334 23.0453 31.9563 22.6109 32.5543 22.1745C32.7793 21.9563 33.3022 21.5219 33.9001 21.1603C34.498 20.7986 35.0959 20.435 35.7688 20.1461C36.0668 20.0006 36.3668 19.8572 36.7397 19.7117C36.8897 19.639 37.0376 19.5662 37.2626 19.4935C37.4126 19.4208 37.5605 19.348 37.7855 19.2753C38.4584 18.9864 39.1313 18.7682 39.8022 18.55C39.9522 18.4772 40.1751 18.4772 40.3251 18.4045C40.4751 18.3318 40.698 18.3318 40.848 18.259C41.2209 18.1863 41.5209 18.1136 41.8939 17.9701C42.0438 17.8974 42.2668 17.8974 42.4168 17.8247C42.5668 17.8247 42.7897 17.7519 42.9397 17.7519C43.0897 17.7519 43.3126 17.6792 43.4626 17.6792L43.7605 17.6065L44.0584 17.5337C44.2084 17.5337 44.4313 17.461 44.5813 17.461C44.8063 17.461 44.9543 17.3883 45.1793 17.3883C45.3293 17.3883 45.6272 17.3155 45.7772 17.3155C45.9272 17.3155 46.0022 17.3155 46.1501 17.2428H46.3751H46.5251H46.6751C46.9001 17.2428 47.048 17.2428 47.273 17.1701H47.5709H47.6459H47.7959C47.9459 17.1701 48.1688 17.1701 48.3188 17.1701C48.9918 17.1701 49.6647 17.1701 50.3355 17.1701C51.6813 17.2428 53.0251 17.3883 54.2959 17.6044C56.8376 18.0388 59.3022 18.8369 61.4688 19.9238C63.6355 20.938 65.6543 22.2432 67.298 23.6191C67.373 23.6918 67.523 23.7645 67.5959 23.908C67.6709 23.9807 67.8209 24.0535 67.8938 24.1969C68.1189 24.3424 68.2668 24.5585 68.4918 24.704C68.7168 24.8495 68.8647 25.0657 69.0897 25.2111C69.2397 25.4293 69.4626 25.5728 69.6126 25.791C70.3605 26.5163 71.0334 27.3123 71.6293 28.0376C72.8251 29.559 73.7959 31.0803 74.5439 32.5309C74.6189 32.6037 74.6189 32.6764 74.6938 32.8198C74.7688 32.8926 74.7688 32.9653 74.8438 33.1087C74.9188 33.2542 74.9939 33.4704 75.1418 33.6159C75.2168 33.7613 75.2918 33.9775 75.3668 34.123C75.4418 34.2684 75.5168 34.4846 75.5918 34.6301C75.8897 35.2827 76.1147 35.9352 76.3397 36.5858C76.7126 37.6 76.9376 38.4708 77.1626 39.1941C77.2376 39.483 77.5355 39.7012 77.8355 39.7012C78.2084 39.7012 78.4334 39.4123 78.4334 39.0486C78.3647 38.192 78.3647 37.2485 78.2897 36.1615Z" fill="url(#paint0_linear_113_105)"/>
<defs>
<linearGradient id="paint0_linear_113_105" x1="39.6938" y1="-17.5035" x2="39.6938" y2="129.454" gradientUnits="userSpaceOnUse">
<stop stop-color="#FED100"/>
<stop offset="0.033" stop-color="#FCCA00"/>
<stop offset="0.221" stop-color="#F3A400"/>
<stop offset="0.408" stop-color="#EC8601"/>
<stop offset="0.592" stop-color="#E77101"/>
<stop offset="0.771" stop-color="#E46401"/>
<stop offset="0.941" stop-color="#E36001"/>
</linearGradient>
</defs>
</svg>
