<svg width="72" height="78" viewBox="0 0 72 78" fill="none" xmlns="http://www.w3.org/2000/svg">
<path d="M71.4166 0.803223H0.583252L6.83325 69.4957L35.9999 77.5772L65.1666 69.4957L71.4166 0.803223Z" fill="#E65100"/>
<path d="M36 6.86426V71.314L59.3333 64.8488L64.5417 6.86426H36Z" fill="#FF6D00"/>
<path d="M36 41.2102V33.1288H53.9167L52.4583 56.363L36 61.6159V53.1304L44.5417 50.3019L45.1667 41.2102H36ZM54.5417 25.0473L55.1667 16.9658H36V25.0473H54.5417Z" fill="white"/>
<path d="M36.0001 53.1304V61.6159L19.5417 56.363L18.7084 45.251H27.0417L27.4584 50.3019L36.0001 53.1304ZM25.7917 25.0473H36.0001V16.9658H17.0417L18.5001 41.2102H36.0001V33.1288H26.4167L25.7917 25.0473Z" fill="#EEEEEE"/>
</svg>
