<svg width="76" height="74" viewBox="0 0 76 74" fill="none" xmlns="http://www.w3.org/2000/svg">
<path d="M0.5 73.1805V0.447266H75.5V73.1805H0.5Z" fill="#F7DF1E"/>
<path d="M49.5376 54.8904C50.9793 57.1613 52.5459 59.3372 55.8647 59.3372C58.6522 59.3372 60.1147 57.9937 60.1147 56.135C60.1147 53.9105 58.6022 53.1206 55.5355 51.8255L53.8543 51.1305C49.0022 49.1344 45.7751 46.6332 45.7751 41.3499C45.7751 36.4808 49.6188 32.7755 55.6251 32.7755C59.9022 32.7755 62.9751 34.2119 65.1918 37.9739L59.9543 41.2206C58.8022 39.2245 57.5563 38.4386 55.6251 38.4386C53.6543 38.4386 52.4063 39.6447 52.4063 41.2206C52.4063 43.1682 53.6563 43.9562 56.5418 45.1623L58.223 45.8573C63.9418 48.2191 67.1668 50.6315 67.1668 56.0541C67.1668 61.897 62.4084 65.0993 56.0209 65.0993C49.773 65.0993 46.2251 62.0587 44.2501 58.2947L49.5376 54.8904ZM25.4001 55.0561C26.4543 56.8865 28.0563 58.2947 30.3605 58.2947C32.5647 58.2947 33.8334 57.4502 33.8334 54.1671V32.7734H40.7772V55.2015C40.7772 62.0041 36.7084 65.0993 30.7668 65.0993C25.398 65.0993 21.523 61.5718 19.9438 58.2947L25.4001 55.0561Z" fill="#000001"/>
</svg>
