<svg width="41" height="41" viewBox="0 0 41 41" fill="none" xmlns="http://www.w3.org/2000/svg">
<path d="M0.5 40.5V0.5H40.5V40.5H0.5Z" fill="#F7DF1E"/>
<path d="M26.6525 30.4412C27.4214 31.6901 28.2569 32.8867 30.0269 32.8867C31.5136 32.8867 32.2936 32.1478 32.2936 31.1256C32.2936 29.9023 31.4869 29.4678 29.8514 28.7556L28.9547 28.3734C26.3669 27.2756 24.6458 25.9001 24.6458 22.9945C24.6458 20.3167 26.6958 18.2789 29.8991 18.2789C32.1802 18.2789 33.8191 19.0689 35.0014 21.1378L32.208 22.9234C31.5936 21.8256 30.9291 21.3934 29.8991 21.3934C28.848 21.3934 28.1825 22.0567 28.1825 22.9234C28.1825 23.9945 28.8491 24.4278 30.388 25.0912L31.2847 25.4734C34.3347 26.7723 36.0547 28.0989 36.0547 31.0812C36.0547 34.2945 33.5169 36.0556 30.1103 36.0556C26.778 36.0556 24.8858 34.3834 23.8325 32.3134L26.6525 30.4412ZM13.7791 30.5323C14.3414 31.5389 15.1958 32.3134 16.4247 32.3134C17.6003 32.3134 18.2769 31.8489 18.2769 30.0434V18.2778H21.9803V30.6123C21.9803 34.3534 19.8103 36.0556 16.6414 36.0556C13.778 36.0556 11.7114 34.1156 10.8691 32.3134L13.7791 30.5323Z" fill="#000001"/>
</svg>
