<svg width="88" height="84" viewBox="0 0 88 84" fill="none" xmlns="http://www.w3.org/2000/svg">
<path d="M47.9063 43.2345C48.1188 43.4992 48.2084 43.8811 48.1479 44.2346L47.5729 46.6752C47.5125 47.0571 47.2396 47.3521 46.9084 47.5278L44.5792 48.5865C44.2459 48.7623 43.8229 48.7623 43.4896 48.5865L41.1604 47.5278C40.8271 47.3521 40.5563 47.0571 40.4959 46.6752L39.9209 44.2346C39.8604 43.8811 39.9521 43.4992 40.1625 43.2345L41.7959 41.2647C42.0063 40.9697 42.3709 40.7939 42.7625 40.7939H45.3042C45.6979 40.7939 46.0604 40.9697 46.2729 41.2647L47.9063 43.2345Z" fill="#0277BD"/>
<path d="M46.7334 25.2974L46.8334 26.055C47.1126 28.1501 47.3126 30.2675 47.5126 32.3626C47.5917 33.197 47.673 34.0132 47.7313 34.8477C47.7709 35.4881 48.5105 35.8174 49.0501 35.4497C49.7292 34.9648 50.4292 34.4799 51.148 34.0132C52.9459 32.8293 54.723 31.6454 56.5605 30.4998L57.2397 30.0917C54.3834 27.5683 50.748 25.8409 46.7334 25.2974ZM46.7334 25.2974L46.8334 26.055C47.1126 28.1501 47.3126 30.2675 47.5126 32.3626C47.5917 33.197 47.673 34.0132 47.7313 34.8477C47.7709 35.4881 48.5105 35.8174 49.0501 35.4497C49.7292 34.9648 50.4292 34.4799 51.148 34.0132C52.9459 32.8293 54.723 31.6454 56.5605 30.4998L57.2397 30.0917C54.3834 27.5683 50.748 25.8409 46.7334 25.2974ZM46.7334 25.2974L46.8334 26.055C47.1126 28.1501 47.3126 30.2675 47.5126 32.3626C47.5917 33.197 47.673 34.0132 47.7313 34.8477C47.7709 35.4881 48.5105 35.8174 49.0501 35.4497C49.7292 34.9648 50.4292 34.4799 51.148 34.0132C52.9459 32.8293 54.723 31.6454 56.5605 30.4998L57.2397 30.0917C54.3834 27.5683 50.748 25.8409 46.7334 25.2974ZM46.7334 25.2974L46.8334 26.055C47.1126 28.1501 47.3126 30.2675 47.5126 32.3626C47.5917 33.197 47.673 34.0132 47.7313 34.8477C47.7709 35.4881 48.5105 35.8174 49.0501 35.4497C49.7292 34.9648 50.4292 34.4799 51.148 34.0132C52.9459 32.8293 54.723 31.6454 56.5605 30.4998L57.2397 30.0917C54.3834 27.5683 50.748 25.8409 46.7334 25.2974ZM46.7334 25.2974L46.8334 26.055C47.1126 28.1501 47.3126 30.2675 47.5126 32.3626C47.5917 33.197 47.673 34.0132 47.7313 34.8477C47.7709 35.4881 48.5105 35.8174 49.0501 35.4497C49.7292 34.9648 50.4292 34.4799 51.148 34.0132C52.9459 32.8293 54.723 31.6454 56.5605 30.4998L57.2397 30.0917C54.3834 27.5683 50.748 25.8409 46.7334 25.2974ZM60.9147 34.3991L60.3751 34.9628C58.8772 36.5165 57.3397 38.0095 55.8001 39.5046C54.8209 40.4744 53.7626 41.4058 52.7438 42.3574C54.1022 42.6867 55.4605 43.0362 56.8188 43.4241C58.9167 44.006 60.9938 44.5697 63.0709 45.2283L63.8105 45.4606C63.8313 45.1495 63.8313 44.8202 63.8313 44.4909C63.8313 40.7855 62.773 37.3307 60.9147 34.3991ZM60.9147 34.3991L60.3751 34.9628C58.8772 36.5165 57.3397 38.0095 55.8001 39.5046C54.8209 40.4744 53.7626 41.4058 52.7438 42.3574C54.1022 42.6867 55.4605 43.0362 56.8188 43.4241C58.9167 44.006 60.9938 44.5697 63.0709 45.2283L63.8105 45.4606C63.8313 45.1495 63.8313 44.8202 63.8313 44.4909C63.8313 40.7855 62.773 37.3307 60.9147 34.3991ZM46.7334 25.2974L46.8334 26.055C47.1126 28.1501 47.3126 30.2675 47.5126 32.3626C47.5917 33.197 47.673 34.0132 47.7313 34.8477C47.7709 35.4881 48.5105 35.8174 49.0501 35.4497C49.7292 34.9648 50.4292 34.4799 51.148 34.0132C52.9459 32.8293 54.723 31.6454 56.5605 30.4998L57.2397 30.0917C54.3834 27.5683 50.748 25.8409 46.7334 25.2974ZM46.7334 25.2974L46.8334 26.055C47.1126 28.1501 47.3126 30.2675 47.5126 32.3626C47.5917 33.197 47.673 34.0132 47.7313 34.8477C47.7709 35.4881 48.5105 35.8174 49.0501 35.4497C49.7292 34.9648 50.4292 34.4799 51.148 34.0132C52.9459 32.8293 54.723 31.6454 56.5605 30.4998L57.2397 30.0917C54.3834 27.5683 50.748 25.8409 46.7334 25.2974ZM61.973 50.9358C59.7959 50.8005 57.6376 50.6065 55.4605 50.4126C54.5209 50.3358 53.6022 50.2388 52.6647 50.1398C52.0647 50.063 51.5855 50.6449 51.8063 51.2066C52.1459 52.0794 52.4647 52.9542 52.7855 53.8472C53.4855 55.8272 54.2042 57.8253 54.8626 59.8436L55.0813 60.5427C58.5563 58.2334 61.2542 54.8958 62.6709 50.9742L61.973 50.9358ZM60.9147 34.3991L60.3751 34.9628C58.8772 36.5165 57.3397 38.0095 55.8001 39.5046C54.8209 40.4744 53.7626 41.4058 52.7438 42.3574C54.1022 42.6867 55.4605 43.0362 56.8188 43.4241C58.9167 44.006 60.9938 44.5697 63.0709 45.2283L63.8105 45.4606C63.8313 45.1495 63.8313 44.8202 63.8313 44.4909C63.8313 40.7855 62.773 37.3307 60.9147 34.3991ZM60.9147 34.3991L60.3751 34.9628C58.8772 36.5165 57.3397 38.0095 55.8001 39.5046C54.8209 40.4744 53.7626 41.4058 52.7438 42.3574C54.1022 42.6867 55.4605 43.0362 56.8188 43.4241C58.9167 44.006 60.9938 44.5697 63.0709 45.2283L63.8105 45.4606C63.8313 45.1495 63.8313 44.8202 63.8313 44.4909C63.8313 40.7855 62.773 37.3307 60.9147 34.3991ZM61.973 50.9358C59.7959 50.8005 57.6376 50.6065 55.4605 50.4126C54.5209 50.3358 53.6022 50.2388 52.6647 50.1398C52.0647 50.063 51.5855 50.6449 51.8063 51.2066C52.1459 52.0794 52.4647 52.9542 52.7855 53.8472C53.4855 55.8272 54.2042 57.8253 54.8626 59.8436L55.0813 60.5427C58.5563 58.2334 61.2542 54.8958 62.6709 50.9742L61.973 50.9358ZM46.7334 25.2974L46.8334 26.055C47.1126 28.1501 47.3126 30.2675 47.5126 32.3626C47.5917 33.197 47.673 34.0132 47.7313 34.8477C47.7709 35.4881 48.5105 35.8174 49.0501 35.4497C49.7292 34.9648 50.4292 34.4799 51.148 34.0132C52.9459 32.8293 54.723 31.6454 56.5605 30.4998L57.2397 30.0917C54.3834 27.5683 50.748 25.8409 46.7334 25.2974ZM46.7334 25.2974L46.8334 26.055C47.1126 28.1501 47.3126 30.2675 47.5126 32.3626C47.5917 33.197 47.673 34.0132 47.7313 34.8477C47.7709 35.4881 48.5105 35.8174 49.0501 35.4497C49.7292 34.9648 50.4292 34.4799 51.148 34.0132C52.9459 32.8293 54.723 31.6454 56.5605 30.4998L57.2397 30.0917C54.3834 27.5683 50.748 25.8409 46.7334 25.2974ZM61.973 50.9358C59.7959 50.8005 57.6376 50.6065 55.4605 50.4126C54.5209 50.3358 53.6022 50.2388 52.6647 50.1398C52.0647 50.063 51.5855 50.6449 51.8063 51.2066C52.1459 52.0794 52.4647 52.9542 52.7855 53.8472C53.4855 55.8272 54.2042 57.8253 54.8626 59.8436L55.0813 60.5427C58.5563 58.2334 61.2542 54.8958 62.6709 50.9742L61.973 50.9358ZM60.9147 34.3991L60.3751 34.9628C58.8772 36.5165 57.3397 38.0095 55.8001 39.5046C54.8209 40.4744 53.7626 41.4058 52.7438 42.3574C54.1022 42.6867 55.4605 43.0362 56.8188 43.4241C58.9167 44.006 60.9938 44.5697 63.0709 45.2283L63.8105 45.4606C63.8313 45.1495 63.8313 44.8202 63.8313 44.4909C63.8313 40.7855 62.773 37.3307 60.9147 34.3991ZM60.9147 34.3991L60.3751 34.9628C58.8772 36.5165 57.3397 38.0095 55.8001 39.5046C54.8209 40.4744 53.7626 41.4058 52.7438 42.3574C54.1022 42.6867 55.4605 43.0362 56.8188 43.4241C58.9167 44.006 60.9938 44.5697 63.0709 45.2283L63.8105 45.4606C63.8313 45.1495 63.8313 44.8202 63.8313 44.4909C63.8313 40.7855 62.773 37.3307 60.9147 34.3991ZM61.973 50.9358C59.7959 50.8005 57.6376 50.6065 55.4605 50.4126C54.5209 50.3358 53.6022 50.2388 52.6647 50.1398C52.0647 50.063 51.5855 50.6449 51.8063 51.2066C52.1459 52.0794 52.4647 52.9542 52.7855 53.8472C53.4855 55.8272 54.2042 57.8253 54.8626 59.8436L55.0813 60.5427C58.5563 58.2334 61.2542 54.8958 62.6709 50.9742L61.973 50.9358ZM46.7334 25.2974L46.8334 26.055C47.1126 28.1501 47.3126 30.2675 47.5126 32.3626C47.5917 33.197 47.673 34.0132 47.7313 34.8477C47.7709 35.4881 48.5105 35.8174 49.0501 35.4497C49.7292 34.9648 50.4292 34.4799 51.148 34.0132C52.9459 32.8293 54.723 31.6454 56.5605 30.4998L57.2397 30.0917C54.3834 27.5683 50.748 25.8409 46.7334 25.2974ZM49.4292 62.2499C48.2709 60.4639 47.1917 58.6213 46.1126 56.7969C45.6334 56.0009 45.173 55.2049 44.7334 54.3907C44.4147 53.827 43.5938 53.827 43.2751 54.3907C42.8147 55.2251 42.3355 56.0413 41.8376 56.8353C40.7397 58.6597 39.6397 60.4841 38.4813 62.2701L37.9813 63.0459C39.8397 63.6096 41.8167 63.9005 43.8542 63.9005C45.9522 63.9005 47.9897 63.5894 49.8876 62.9873L49.4292 62.2499ZM46.7334 25.2974L46.8334 26.055C47.1126 28.1501 47.3126 30.2675 47.5126 32.3626C47.5917 33.197 47.673 34.0132 47.7313 34.8477C47.7709 35.4881 48.5105 35.8174 49.0501 35.4497C49.7292 34.9648 50.4292 34.4799 51.148 34.0132C52.9459 32.8293 54.723 31.6454 56.5605 30.4998L57.2397 30.0917C54.3834 27.5683 50.748 25.8409 46.7334 25.2974ZM61.973 50.9358C59.7959 50.8005 57.6376 50.6065 55.4605 50.4126C54.5209 50.3358 53.6022 50.2388 52.6647 50.1398C52.0647 50.063 51.5855 50.6449 51.8063 51.2066C52.1459 52.0794 52.4647 52.9542 52.7855 53.8472C53.4855 55.8272 54.2042 57.8253 54.8626 59.8436L55.0813 60.5427C58.5563 58.2334 61.2542 54.8958 62.6709 50.9742L61.973 50.9358ZM60.9147 34.3991L60.3751 34.9628C58.8772 36.5165 57.3397 38.0095 55.8001 39.5046C54.8209 40.4744 53.7626 41.4058 52.7438 42.3574C54.1022 42.6867 55.4605 43.0362 56.8188 43.4241C58.9167 44.006 60.9938 44.5697 63.0709 45.2283L63.8105 45.4606C63.8313 45.1495 63.8313 44.8202 63.8313 44.4909C63.8313 40.7855 62.773 37.3307 60.9147 34.3991ZM60.9147 34.3991L60.3751 34.9628C58.8772 36.5165 57.3397 38.0095 55.8001 39.5046C54.8209 40.4744 53.7626 41.4058 52.7438 42.3574C54.1022 42.6867 55.4605 43.0362 56.8188 43.4241C58.9167 44.006 60.9938 44.5697 63.0709 45.2283L63.8105 45.4606C63.8313 45.1495 63.8313 44.8202 63.8313 44.4909C63.8313 40.7855 62.773 37.3307 60.9147 34.3991ZM61.973 50.9358C59.7959 50.8005 57.6376 50.6065 55.4605 50.4126C54.5209 50.3358 53.6022 50.2388 52.6647 50.1398C52.0647 50.063 51.5855 50.6449 51.8063 51.2066C52.1459 52.0794 52.4647 52.9542 52.7855 53.8472C53.4855 55.8272 54.2042 57.8253 54.8626 59.8436L55.0813 60.5427C58.5563 58.2334 61.2542 54.8958 62.6709 50.9742L61.973 50.9358ZM46.7334 25.2974L46.8334 26.055C47.1126 28.1501 47.3126 30.2675 47.5126 32.3626C47.5917 33.197 47.673 34.0132 47.7313 34.8477C47.7709 35.4881 48.5105 35.8174 49.0501 35.4497C49.7292 34.9648 50.4292 34.4799 51.148 34.0132C52.9459 32.8293 54.723 31.6454 56.5605 30.4998L57.2397 30.0917C54.3834 27.5683 50.748 25.8409 46.7334 25.2974ZM49.4292 62.2499C48.2709 60.4639 47.1917 58.6213 46.1126 56.7969C45.6334 56.0009 45.173 55.2049 44.7334 54.3907C44.4147 53.827 43.5938 53.827 43.2751 54.3907C42.8147 55.2251 42.3355 56.0413 41.8376 56.8353C40.7397 58.6597 39.6397 60.4841 38.4813 62.2701L37.9813 63.0459C39.8397 63.6096 41.8167 63.9005 43.8542 63.9005C45.9522 63.9005 47.9897 63.5894 49.8876 62.9873L49.4292 62.2499ZM35.4063 49.8691C34.4667 49.9863 33.548 50.1216 32.6105 50.2186C30.4334 50.4712 28.2959 50.7237 26.1188 50.9177L25.0397 51.0146C26.498 54.9746 29.2542 58.3506 32.7897 60.6417L33.0688 59.8255C33.748 57.8071 34.4667 55.8272 35.2063 53.829C35.5459 52.8592 35.9063 51.9076 36.2855 50.9379C36.5251 50.3722 36.0251 49.7721 35.4063 49.8691ZM49.4292 62.2499C48.2709 60.4639 47.1917 58.6213 46.1126 56.7969C45.6334 56.0009 45.173 55.2049 44.7334 54.3907C44.4147 53.827 43.5938 53.827 43.2751 54.3907C42.8147 55.2251 42.3355 56.0413 41.8376 56.8353C40.7397 58.6597 39.6397 60.4841 38.4813 62.2701L37.9813 63.0459C39.8397 63.6096 41.8167 63.9005 43.8542 63.9005C45.9522 63.9005 47.9897 63.5894 49.8876 62.9873L49.4292 62.2499ZM46.7334 25.2974L46.8334 26.055C47.1126 28.1501 47.3126 30.2675 47.5126 32.3626C47.5917 33.197 47.673 34.0132 47.7313 34.8477C47.7709 35.4881 48.5105 35.8174 49.0501 35.4497C49.7292 34.9648 50.4292 34.4799 51.148 34.0132C52.9459 32.8293 54.723 31.6454 56.5605 30.4998L57.2397 30.0917C54.3834 27.5683 50.748 25.8409 46.7334 25.2974ZM61.973 50.9358C59.7959 50.8005 57.6376 50.6065 55.4605 50.4126C54.5209 50.3358 53.6022 50.2388 52.6647 50.1398C52.0647 50.063 51.5855 50.6449 51.8063 51.2066C52.1459 52.0794 52.4647 52.9542 52.7855 53.8472C53.4855 55.8272 54.2042 57.8253 54.8626 59.8436L55.0813 60.5427C58.5563 58.2334 61.2542 54.8958 62.6709 50.9742L61.973 50.9358ZM60.9147 34.3991L60.3751 34.9628C58.8772 36.5165 57.3397 38.0095 55.8001 39.5046C54.8209 40.4744 53.7626 41.4058 52.7438 42.3574C54.1022 42.6867 55.4605 43.0362 56.8188 43.4241C58.9167 44.006 60.9938 44.5697 63.0709 45.2283L63.8105 45.4606C63.8313 45.1495 63.8313 44.8202 63.8313 44.4909C63.8313 40.7855 62.773 37.3307 60.9147 34.3991ZM60.9147 34.3991L60.3751 34.9628C58.8772 36.5165 57.3397 38.0095 55.8001 39.5046C54.8209 40.4744 53.7626 41.4058 52.7438 42.3574C54.1022 42.6867 55.4605 43.0362 56.8188 43.4241C58.9167 44.006 60.9938 44.5697 63.0709 45.2283L63.8105 45.4606C63.8313 45.1495 63.8313 44.8202 63.8313 44.4909C63.8313 40.7855 62.773 37.3307 60.9147 34.3991ZM61.973 50.9358C59.7959 50.8005 57.6376 50.6065 55.4605 50.4126C54.5209 50.3358 53.6022 50.2388 52.6647 50.1398C52.0647 50.063 51.5855 50.6449 51.8063 51.2066C52.1459 52.0794 52.4647 52.9542 52.7855 53.8472C53.4855 55.8272 54.2042 57.8253 54.8626 59.8436L55.0813 60.5427C58.5563 58.2334 61.2542 54.8958 62.6709 50.9742L61.973 50.9358ZM46.7334 25.2974L46.8334 26.055C47.1126 28.1501 47.3126 30.2675 47.5126 32.3626C47.5917 33.197 47.673 34.0132 47.7313 34.8477C47.7709 35.4881 48.5105 35.8174 49.0501 35.4497C49.7292 34.9648 50.4292 34.4799 51.148 34.0132C52.9459 32.8293 54.723 31.6454 56.5605 30.4998L57.2397 30.0917C54.3834 27.5683 50.748 25.8409 46.7334 25.2974ZM49.4292 62.2499C48.2709 60.4639 47.1917 58.6213 46.1126 56.7969C45.6334 56.0009 45.173 55.2049 44.7334 54.3907C44.4147 53.827 43.5938 53.827 43.2751 54.3907C42.8147 55.2251 42.3355 56.0413 41.8376 56.8353C40.7397 58.6597 39.6397 60.4841 38.4813 62.2701L37.9813 63.0459C39.8397 63.6096 41.8167 63.9005 43.8542 63.9005C45.9522 63.9005 47.9897 63.5894 49.8876 62.9873L49.4292 62.2499ZM35.4063 49.8691C34.4667 49.9863 33.548 50.1216 32.6105 50.2186C30.4334 50.4712 28.2959 50.7237 26.1188 50.9177L25.0397 51.0146C26.498 54.9746 29.2542 58.3506 32.7897 60.6417L33.0688 59.8255C33.748 57.8071 34.4667 55.8272 35.2063 53.829C35.5459 52.8592 35.9063 51.9076 36.2855 50.9379C36.5251 50.3722 36.0251 49.7721 35.4063 49.8691ZM35.4063 49.8691C34.4667 49.9863 33.548 50.1216 32.6105 50.2186C30.4334 50.4712 28.2959 50.7237 26.1188 50.9177L25.0397 51.0146C26.498 54.9746 29.2542 58.3506 32.7897 60.6417L33.0688 59.8255C33.748 57.8071 34.4667 55.8272 35.2063 53.829C35.5459 52.8592 35.9063 51.9076 36.2855 50.9379C36.5251 50.3722 36.0251 49.7721 35.4063 49.8691ZM49.4292 62.2499C48.2709 60.4639 47.1917 58.6213 46.1126 56.7969C45.6334 56.0009 45.173 55.2049 44.7334 54.3907C44.4147 53.827 43.5938 53.827 43.2751 54.3907C42.8147 55.2251 42.3355 56.0413 41.8376 56.8353C40.7397 58.6597 39.6397 60.4841 38.4813 62.2701L37.9813 63.0459C39.8397 63.6096 41.8167 63.9005 43.8542 63.9005C45.9522 63.9005 47.9897 63.5894 49.8876 62.9873L49.4292 62.2499ZM46.7334 25.2974L46.8334 26.055C47.1126 28.1501 47.3126 30.2675 47.5126 32.3626C47.5917 33.197 47.673 34.0132 47.7313 34.8477C47.7709 35.4881 48.5105 35.8174 49.0501 35.4497C49.7292 34.9648 50.4292 34.4799 51.148 34.0132C52.9459 32.8293 54.723 31.6454 56.5605 30.4998L57.2397 30.0917C54.3834 27.5683 50.748 25.8409 46.7334 25.2974ZM61.973 50.9358C59.7959 50.8005 57.6376 50.6065 55.4605 50.4126C54.5209 50.3358 53.6022 50.2388 52.6647 50.1398C52.0647 50.063 51.5855 50.6449 51.8063 51.2066C52.1459 52.0794 52.4647 52.9542 52.7855 53.8472C53.4855 55.8272 54.2042 57.8253 54.8626 59.8436L55.0813 60.5427C58.5563 58.2334 61.2542 54.8958 62.6709 50.9742L61.973 50.9358ZM60.9147 34.3991L60.3751 34.9628C58.8772 36.5165 57.3397 38.0095 55.8001 39.5046C54.8209 40.4744 53.7626 41.4058 52.7438 42.3574C54.1022 42.6867 55.4605 43.0362 56.8188 43.4241C58.9167 44.006 60.9938 44.5697 63.0709 45.2283L63.8105 45.4606C63.8313 45.1495 63.8313 44.8202 63.8313 44.4909C63.8313 40.7855 62.773 37.3307 60.9147 34.3991ZM60.9147 34.3991L60.3751 34.9628C58.8772 36.5165 57.3397 38.0095 55.8001 39.5046C54.8209 40.4744 53.7626 41.4058 52.7438 42.3574C54.1022 42.6867 55.4605 43.0362 56.8188 43.4241C58.9167 44.006 60.9938 44.5697 63.0709 45.2283L63.8105 45.4606C63.8313 45.1495 63.8313 44.8202 63.8313 44.4909C63.8313 40.7855 62.773 37.3307 60.9147 34.3991ZM61.973 50.9358C59.7959 50.8005 57.6376 50.6065 55.4605 50.4126C54.5209 50.3358 53.6022 50.2388 52.6647 50.1398C52.0647 50.063 51.5855 50.6449 51.8063 51.2066C52.1459 52.0794 52.4647 52.9542 52.7855 53.8472C53.4855 55.8272 54.2042 57.8253 54.8626 59.8436L55.0813 60.5427C58.5563 58.2334 61.2542 54.8958 62.6709 50.9742L61.973 50.9358ZM46.7334 25.2974L46.8334 26.055C47.1126 28.1501 47.3126 30.2675 47.5126 32.3626C47.5917 33.197 47.673 34.0132 47.7313 34.8477C47.7709 35.4881 48.5105 35.8174 49.0501 35.4497C49.7292 34.9648 50.4292 34.4799 51.148 34.0132C52.9459 32.8293 54.723 31.6454 56.5605 30.4998L57.2397 30.0917C54.3834 27.5683 50.748 25.8409 46.7334 25.2974ZM49.4292 62.2499C48.2709 60.4639 47.1917 58.6213 46.1126 56.7969C45.6334 56.0009 45.173 55.2049 44.7334 54.3907C44.4147 53.827 43.5938 53.827 43.2751 54.3907C42.8147 55.2251 42.3355 56.0413 41.8376 56.8353C40.7397 58.6597 39.6397 60.4841 38.4813 62.2701L37.9813 63.0459C39.8397 63.6096 41.8167 63.9005 43.8542 63.9005C45.9522 63.9005 47.9897 63.5894 49.8876 62.9873L49.4292 62.2499ZM35.4063 49.8691C34.4667 49.9863 33.548 50.1216 32.6105 50.2186C30.4334 50.4712 28.2959 50.7237 26.1188 50.9177L25.0397 51.0146C26.498 54.9746 29.2542 58.3506 32.7897 60.6417L33.0688 59.8255C33.748 57.8071 34.4667 55.8272 35.2063 53.829C35.5459 52.8592 35.9063 51.9076 36.2855 50.9379C36.5251 50.3722 36.0251 49.7721 35.4063 49.8691ZM34.2876 41.0179C33.6084 40.4158 32.9501 39.8137 32.2897 39.1733C30.7313 37.6782 29.1938 36.2033 27.6751 34.6699L27.0355 34.0294C25.0376 37.0377 23.8792 40.6279 23.8792 44.4909C23.8792 44.8606 23.9001 45.2081 23.9001 45.5576L24.8397 45.2465C26.898 44.5293 28.9751 43.907 31.0313 43.2483C32.0105 42.9372 32.9897 42.6665 33.9667 42.3755C34.5876 42.2018 34.7667 41.4442 34.2876 41.0179ZM35.4063 49.8691C34.4667 49.9863 33.548 50.1216 32.6105 50.2186C30.4334 50.4712 28.2959 50.7237 26.1188 50.9177L25.0397 51.0146C26.498 54.9746 29.2542 58.3506 32.7897 60.6417L33.0688 59.8255C33.748 57.8071 34.4667 55.8272 35.2063 53.829C35.5459 52.8592 35.9063 51.9076 36.2855 50.9379C36.5251 50.3722 36.0251 49.7721 35.4063 49.8691ZM49.4292 62.2499C48.2709 60.4639 47.1917 58.6213 46.1126 56.7969C45.6334 56.0009 45.173 55.2049 44.7334 54.3907C44.4147 53.827 43.5938 53.827 43.2751 54.3907C42.8147 55.2251 42.3355 56.0413 41.8376 56.8353C40.7397 58.6597 39.6397 60.4841 38.4813 62.2701L37.9813 63.0459C39.8397 63.6096 41.8167 63.9005 43.8542 63.9005C45.9522 63.9005 47.9897 63.5894 49.8876 62.9873L49.4292 62.2499ZM46.7334 25.2974L46.8334 26.055C47.1126 28.1501 47.3126 30.2675 47.5126 32.3626C47.5917 33.197 47.673 34.0132 47.7313 34.8477C47.7709 35.4881 48.5105 35.8174 49.0501 35.4497C49.7292 34.9648 50.4292 34.4799 51.148 34.0132C52.9459 32.8293 54.723 31.6454 56.5605 30.4998L57.2397 30.0917C54.3834 27.5683 50.748 25.8409 46.7334 25.2974ZM61.973 50.9358C59.7959 50.8005 57.6376 50.6065 55.4605 50.4126C54.5209 50.3358 53.6022 50.2388 52.6647 50.1398C52.0647 50.063 51.5855 50.6449 51.8063 51.2066C52.1459 52.0794 52.4647 52.9542 52.7855 53.8472C53.4855 55.8272 54.2042 57.8253 54.8626 59.8436L55.0813 60.5427C58.5563 58.2334 61.2542 54.8958 62.6709 50.9742L61.973 50.9358ZM60.9147 34.3991L60.3751 34.9628C58.8772 36.5165 57.3397 38.0095 55.8001 39.5046C54.8209 40.4744 53.7626 41.4058 52.7438 42.3574C54.1022 42.6867 55.4605 43.0362 56.8188 43.4241C58.9167 44.006 60.9938 44.5697 63.0709 45.2283L63.8105 45.4606C63.8313 45.1495 63.8313 44.8202 63.8313 44.4909C63.8313 40.7855 62.773 37.3307 60.9147 34.3991ZM60.9147 34.3991L60.3751 34.9628C58.8772 36.5165 57.3397 38.0095 55.8001 39.5046C54.8209 40.4744 53.7626 41.4058 52.7438 42.3574C54.1022 42.6867 55.4605 43.0362 56.8188 43.4241C58.9167 44.006 60.9938 44.5697 63.0709 45.2283L63.8105 45.4606C63.8313 45.1495 63.8313 44.8202 63.8313 44.4909C63.8313 40.7855 62.773 37.3307 60.9147 34.3991ZM55.4605 50.4126C54.5209 50.3358 53.6022 50.2388 52.6647 50.1398C52.0647 50.063 51.5855 50.6449 51.8063 51.2066C52.1459 52.0794 52.4647 52.9542 52.7855 53.8472C53.4855 55.8272 54.2042 57.8253 54.8626 59.8436L55.0813 60.5427C58.5563 58.2334 61.2542 54.8958 62.6709 50.9742L61.973 50.9358C59.798 50.8005 57.6397 50.6065 55.4605 50.4126ZM57.2397 30.0917C54.3834 27.5683 50.748 25.8409 46.7334 25.2974L46.8334 26.055C47.1126 28.1501 47.3126 30.2675 47.5126 32.3626C47.5917 33.197 47.673 34.0132 47.7313 34.8477C47.7709 35.4881 48.5105 35.8174 49.0501 35.4497C49.7292 34.9648 50.4292 34.4799 51.148 34.0132C52.9459 32.8293 54.723 31.6454 56.5605 30.4998L57.2397 30.0917ZM46.1126 56.7969C45.6334 56.0009 45.173 55.2049 44.7334 54.3907C44.4147 53.827 43.5938 53.827 43.2751 54.3907C42.8147 55.2251 42.3355 56.0413 41.8376 56.8353C40.7397 58.6597 39.6397 60.4841 38.4813 62.2701L37.9813 63.0459C39.8397 63.6096 41.8167 63.9005 43.8542 63.9005C45.9522 63.9005 47.9897 63.5894 49.8876 62.9873L49.4272 62.2499C48.2709 60.4659 47.1917 58.6213 46.1126 56.7969ZM35.4063 49.8691C34.4667 49.9863 33.548 50.1216 32.6105 50.2186C30.4334 50.4712 28.2959 50.7237 26.1188 50.9177L25.0397 51.0146C26.498 54.9746 29.2542 58.3506 32.7897 60.6417L33.0688 59.8255C33.748 57.8071 34.4667 55.8272 35.2063 53.829C35.5459 52.8592 35.9063 51.9076 36.2855 50.9379C36.5251 50.3722 36.0251 49.7721 35.4063 49.8691ZM33.9667 42.3755C34.5855 42.2018 34.7688 41.4442 34.2876 41.0179C33.6084 40.4158 32.9501 39.8137 32.2897 39.1733C30.7313 37.6782 29.1938 36.2033 27.6751 34.6699L27.0355 34.0294C25.0376 37.0377 23.8792 40.6279 23.8792 44.4909C23.8792 44.8606 23.9001 45.2081 23.9001 45.5576L24.8397 45.2465C26.898 44.5293 28.9751 43.907 31.0313 43.2483C32.0105 42.9392 32.9876 42.6685 33.9667 42.3755ZM87.2626 51.247L79.6313 18.6787C79.2917 17.224 78.2938 16.0199 76.9147 15.3592L46.0334 0.881237C44.6542 0.220577 43.0563 0.220577 41.6792 0.881237L10.798 15.3592C9.41882 16.0199 8.42091 17.222 8.08132 18.6787L0.450073 51.247C0.11049 52.7016 0.470907 54.2169 1.40841 55.3625L22.7813 81.4858C23.7397 82.6496 25.198 83.3304 26.7167 83.3304H60.9938C62.5126 83.3304 63.9709 82.6516 64.9292 81.4858L86.3022 55.3625C87.2417 54.2149 87.6021 52.7016 87.2626 51.247ZM76.5959 52.6047C75.9959 52.74 75.398 52.6047 74.9188 52.3137C73.9397 51.6733 72.9022 51.3238 71.8626 51.0328C71.3438 50.8975 70.8042 50.7803 70.2855 50.7035C69.7667 50.5479 69.1667 50.7035 68.5667 50.9742C67.9667 51.3036 67.4272 51.247 66.8688 51.2066H66.8084C65.0897 56.7383 61.3147 61.4155 56.3209 64.3854V64.4056C56.4813 64.9107 56.6605 65.3956 56.5001 66.0563C56.3605 66.6967 56.3397 67.2786 56.6209 67.7453C56.8397 68.212 57.0813 68.6969 57.3397 69.1434C57.8792 70.0546 58.4792 70.9678 59.3563 71.7254C60.2355 72.5215 60.2959 73.8408 59.4959 74.7136C58.6772 75.5682 57.3188 75.6247 56.4188 74.8489C55.9584 74.4408 55.7188 73.8973 55.7188 73.3357C55.6792 72.1901 55.3792 71.182 55.0188 70.1718C54.8397 69.6869 54.6397 69.202 54.4001 68.7171C54.2209 68.212 53.7417 67.8625 53.1605 67.5332C52.6022 67.2422 52.3209 66.8341 52.0417 66.3876C49.4855 67.3008 46.7292 67.7857 43.8522 67.7857C41.0167 67.7857 38.3001 67.3008 35.7813 66.428C35.5417 66.8543 35.2626 67.2422 34.7022 67.5352C34.123 67.8463 33.6438 68.214 33.4647 68.7191C33.2251 69.1858 33.0042 69.6707 32.8251 70.1556C32.4647 71.1658 32.1459 72.174 32.1251 73.3195C32.0855 74.4832 31.0667 75.3964 29.8688 75.3581C28.6709 75.3197 27.7313 74.3499 27.7709 73.1841C27.7917 72.5821 28.0709 72.0588 28.4897 71.6891C29.3688 70.9132 29.9688 70.0202 30.5272 69.1272C30.7876 68.6605 31.0272 68.1959 31.2459 67.711C31.5251 67.2645 31.5063 66.6624 31.3855 66.0219C31.2459 65.4199 31.3855 64.935 31.5459 64.4885C26.5313 61.5569 22.6959 56.9 20.9397 51.3682C20.4792 51.4066 20.0417 51.4066 19.5209 51.154C18.9022 50.9015 18.323 50.7459 17.8022 50.9217C17.2626 51.0187 16.7438 51.154 16.2251 51.3096C15.1855 51.6389 14.1667 52.0087 13.2084 52.6673C12.2292 53.3461 10.8709 53.1138 10.173 52.1622C9.49382 51.2106 9.71257 49.8913 10.6917 49.2307C11.1917 48.8811 11.8105 48.764 12.3688 48.8609C13.5084 49.0933 14.6063 49.0165 15.6855 48.8811C16.2251 48.8225 16.7647 48.7256 17.2834 48.5902C17.823 48.5518 18.3022 48.1639 18.7417 47.679C19.1209 47.2527 19.5605 47.0769 20.0001 46.9214C19.9209 46.1254 19.8792 45.3111 19.8792 44.4949C19.8792 39.5268 21.4772 34.9265 24.2147 31.1423C23.8542 30.7928 23.5147 30.4433 23.3751 29.823C23.1959 29.2027 22.9563 28.6593 22.4959 28.3683C22.0772 28.0188 21.6563 27.7077 21.2167 27.4167C20.298 26.8349 19.3584 26.2914 18.2397 25.9621C17.0813 25.6509 16.4022 24.467 16.7417 23.3619C17.0813 22.2365 18.2792 21.5961 19.4376 21.9072C20.0167 22.081 20.4959 22.4709 20.7563 22.9558C21.2959 23.966 22.0355 24.76 22.8147 25.4974C23.1938 25.8671 23.6147 26.2146 24.0334 26.5258C24.4126 26.9137 25.0126 27.0309 25.6709 27.0692C26.3709 27.0894 26.8084 27.3804 27.2688 27.6713L27.2897 27.6915C31.0459 24.1599 35.998 21.8304 41.4917 21.3253C41.5522 20.8021 41.5917 20.2768 42.0105 19.7535C42.4105 19.2302 42.6897 18.7049 42.6292 18.1816C42.6501 17.6584 42.6292 17.1331 42.5897 16.5896C42.4688 15.541 42.3105 14.4925 41.8501 13.4459C41.3709 12.3791 41.8897 11.1366 42.9897 10.6699C44.0876 10.2234 45.3667 10.7083 45.8459 11.7771C46.0855 12.3408 46.0647 12.9408 45.8459 13.4459C45.3855 14.4945 45.2272 15.541 45.1063 16.5896C45.0667 17.1331 45.0459 17.6563 45.0667 18.1816C45.0063 18.7049 45.2855 19.2302 45.6855 19.7535C46.1042 20.2768 46.1459 20.8021 46.2042 21.3253C51.8376 21.8486 56.9105 24.2751 60.7063 27.9622C61.1667 27.6713 61.6042 27.3602 62.3042 27.342C62.9626 27.3036 63.5626 27.1864 63.9417 26.7985C64.3605 26.4692 64.7605 26.1197 65.1605 25.7499C65.9188 25.0125 66.6584 24.2165 67.198 23.2083C67.7376 22.1597 69.0563 21.7537 70.1147 22.2971C71.1938 22.8204 71.6126 24.1013 71.0542 25.1317C70.7751 25.6752 70.2959 26.0449 69.7355 26.1985C68.6167 26.5096 67.6772 27.0713 66.7792 27.6531C66.3397 27.9643 65.9001 28.2734 65.5001 28.6229C65.0397 28.9138 64.8001 29.4573 64.6209 30.0776C64.4813 30.7382 64.1022 31.1059 63.723 31.4938C66.3188 35.2012 67.8188 39.6844 67.8188 44.4969C67.8188 45.2344 67.7792 45.9718 67.7188 46.6911H67.7397C68.2584 46.8466 68.7792 46.982 69.2376 47.5053C69.698 47.972 70.1772 48.3195 70.7167 48.3599C71.2563 48.4771 71.7751 48.5538 72.3147 48.6124C73.4126 48.7094 74.4917 48.7478 75.6501 48.4952C76.8292 48.2427 77.9876 48.9619 78.2459 50.1055C78.5126 51.2268 77.773 52.3521 76.5959 52.6047ZM60.3751 34.9628C58.8772 36.5165 57.3397 38.0095 55.8001 39.5046C54.8209 40.4744 53.7626 41.4058 52.7438 42.3574C54.1022 42.6867 55.4605 43.0362 56.8188 43.4241C58.9167 44.006 60.9938 44.5697 63.0709 45.2283L63.8105 45.4606C63.8313 45.1495 63.8313 44.8202 63.8313 44.4909C63.8313 40.7835 62.773 37.3287 60.9147 34.3991L60.3751 34.9628ZM55.4605 50.4126C54.5209 50.3358 53.6022 50.2388 52.6647 50.1398C52.0647 50.063 51.5855 50.6449 51.8063 51.2066C52.1459 52.0794 52.4647 52.9542 52.7855 53.8472C53.4855 55.8272 54.2042 57.8253 54.8626 59.8436L55.0813 60.5427C58.5563 58.2334 61.2542 54.8958 62.6709 50.9742L61.973 50.9358C59.798 50.8005 57.6397 50.6065 55.4605 50.4126ZM57.2397 30.0917C54.3834 27.5683 50.748 25.8409 46.7334 25.2974L46.8334 26.055C47.1126 28.1501 47.3126 30.2675 47.5126 32.3626C47.5917 33.197 47.673 34.0132 47.7313 34.8477C47.7709 35.4881 48.5105 35.8174 49.0501 35.4497C49.7292 34.9648 50.4292 34.4799 51.148 34.0132C52.9459 32.8293 54.723 31.6454 56.5605 30.4998L57.2397 30.0917ZM46.1126 56.7969C45.6334 56.0009 45.173 55.2049 44.7334 54.3907C44.4147 53.827 43.5938 53.827 43.2751 54.3907C42.8147 55.2251 42.3355 56.0413 41.8376 56.8353C40.7397 58.6597 39.6397 60.4841 38.4813 62.2701L37.9813 63.0459C39.8397 63.6096 41.8167 63.9005 43.8542 63.9005C45.9522 63.9005 47.9897 63.5894 49.8876 62.9873L49.4272 62.2499C48.2709 60.4659 47.1917 58.6213 46.1126 56.7969ZM40.2001 32.3626C40.4001 30.2655 40.6001 28.1501 40.8792 26.055L40.9792 25.2974C37.1251 25.8207 33.6292 27.4329 30.8313 29.8008L31.4501 30.1705C33.3084 31.2959 35.1063 32.4798 36.9042 33.6637C37.9438 34.3042 38.9209 35.0214 39.9001 35.7023C39.9813 34.5931 40.0813 33.4677 40.2001 32.3626ZM35.4063 49.8691C34.4667 49.9863 33.548 50.1216 32.6105 50.2186C30.4334 50.4712 28.2959 50.7237 26.1188 50.9177L25.0397 51.0146C26.498 54.9746 29.2542 58.3506 32.7897 60.6417L33.0688 59.8255C33.748 57.8071 34.4667 55.8272 35.2063 53.829C35.5459 52.8592 35.9063 51.9076 36.2855 50.9379C36.5251 50.3722 36.0251 49.7721 35.4063 49.8691ZM33.9667 42.3755C34.5855 42.2018 34.7688 41.4442 34.2876 41.0179C33.6084 40.4158 32.9501 39.8137 32.2897 39.1733C30.7313 37.6782 29.1938 36.2033 27.6751 34.6699L27.0355 34.0294C25.0376 37.0377 23.8792 40.6279 23.8792 44.4909C23.8792 44.8606 23.9001 45.2081 23.9001 45.5576L24.8397 45.2465C26.898 44.5293 28.9751 43.907 31.0313 43.2483C32.0105 42.9392 32.9876 42.6685 33.9667 42.3755ZM34.2876 41.0179C33.6084 40.4158 32.9501 39.8137 32.2897 39.1733C30.7313 37.6782 29.1938 36.2033 27.6751 34.6699L27.0355 34.0294C25.0376 37.0377 23.8792 40.6279 23.8792 44.4909C23.8792 44.8606 23.9001 45.2081 23.9001 45.5576L24.8397 45.2465C26.898 44.5293 28.9751 43.907 31.0313 43.2483C32.0105 42.9372 32.9897 42.6665 33.9667 42.3755C34.5876 42.2018 34.7667 41.4442 34.2876 41.0179ZM35.4063 49.8691C34.4667 49.9863 33.548 50.1216 32.6105 50.2186C30.4334 50.4712 28.2959 50.7237 26.1188 50.9177L25.0397 51.0146C26.498 54.9746 29.2542 58.3506 32.7897 60.6417L33.0688 59.8255C33.748 57.8071 34.4667 55.8272 35.2063 53.829C35.5459 52.8592 35.9063 51.9076 36.2855 50.9379C36.5251 50.3722 36.0251 49.7721 35.4063 49.8691ZM49.4292 62.2499C48.2709 60.4639 47.1917 58.6213 46.1126 56.7969C45.6334 56.0009 45.173 55.2049 44.7334 54.3907C44.4147 53.827 43.5938 53.827 43.2751 54.3907C42.8147 55.2251 42.3355 56.0413 41.8376 56.8353C40.7397 58.6597 39.6397 60.4841 38.4813 62.2701L37.9813 63.0459C39.8397 63.6096 41.8167 63.9005 43.8542 63.9005C45.9522 63.9005 47.9897 63.5894 49.8876 62.9873L49.4292 62.2499ZM46.7334 25.2974L46.8334 26.055C47.1126 28.1501 47.3126 30.2675 47.5126 32.3626C47.5917 33.197 47.673 34.0132 47.7313 34.8477C47.7709 35.4881 48.5105 35.8174 49.0501 35.4497C49.7292 34.9648 50.4292 34.4799 51.148 34.0132C52.9459 32.8293 54.723 31.6454 56.5605 30.4998L57.2397 30.0917C54.3834 27.5683 50.748 25.8409 46.7334 25.2974ZM61.973 50.9358C59.7959 50.8005 57.6376 50.6065 55.4605 50.4126C54.5209 50.3358 53.6022 50.2388 52.6647 50.1398C52.0647 50.063 51.5855 50.6449 51.8063 51.2066C52.1459 52.0794 52.4647 52.9542 52.7855 53.8472C53.4855 55.8272 54.2042 57.8253 54.8626 59.8436L55.0813 60.5427C58.5563 58.2334 61.2542 54.8958 62.6709 50.9742L61.973 50.9358ZM60.9147 34.3991L60.3751 34.9628C58.8772 36.5165 57.3397 38.0095 55.8001 39.5046C54.8209 40.4744 53.7626 41.4058 52.7438 42.3574C54.1022 42.6867 55.4605 43.0362 56.8188 43.4241C58.9167 44.006 60.9938 44.5697 63.0709 45.2283L63.8105 45.4606C63.8313 45.1495 63.8313 44.8202 63.8313 44.4909C63.8313 40.7855 62.773 37.3307 60.9147 34.3991ZM60.9147 34.3991L60.3751 34.9628C58.8772 36.5165 57.3397 38.0095 55.8001 39.5046C54.8209 40.4744 53.7626 41.4058 52.7438 42.3574C54.1022 42.6867 55.4605 43.0362 56.8188 43.4241C58.9167 44.006 60.9938 44.5697 63.0709 45.2283L63.8105 45.4606C63.8313 45.1495 63.8313 44.8202 63.8313 44.4909C63.8313 40.7855 62.773 37.3307 60.9147 34.3991ZM61.973 50.9358C59.7959 50.8005 57.6376 50.6065 55.4605 50.4126C54.5209 50.3358 53.6022 50.2388 52.6647 50.1398C52.0647 50.063 51.5855 50.6449 51.8063 51.2066C52.1459 52.0794 52.4647 52.9542 52.7855 53.8472C53.4855 55.8272 54.2042 57.8253 54.8626 59.8436L55.0813 60.5427C58.5563 58.2334 61.2542 54.8958 62.6709 50.9742L61.973 50.9358ZM46.7334 25.2974L46.8334 26.055C47.1126 28.1501 47.3126 30.2675 47.5126 32.3626C47.5917 33.197 47.673 34.0132 47.7313 34.8477C47.7709 35.4881 48.5105 35.8174 49.0501 35.4497C49.7292 34.9648 50.4292 34.4799 51.148 34.0132C52.9459 32.8293 54.723 31.6454 56.5605 30.4998L57.2397 30.0917C54.3834 27.5683 50.748 25.8409 46.7334 25.2974ZM49.4292 62.2499C48.2709 60.4639 47.1917 58.6213 46.1126 56.7969C45.6334 56.0009 45.173 55.2049 44.7334 54.3907C44.4147 53.827 43.5938 53.827 43.2751 54.3907C42.8147 55.2251 42.3355 56.0413 41.8376 56.8353C40.7397 58.6597 39.6397 60.4841 38.4813 62.2701L37.9813 63.0459C39.8397 63.6096 41.8167 63.9005 43.8542 63.9005C45.9522 63.9005 47.9897 63.5894 49.8876 62.9873L49.4292 62.2499ZM35.4063 49.8691C34.4667 49.9863 33.548 50.1216 32.6105 50.2186C30.4334 50.4712 28.2959 50.7237 26.1188 50.9177L25.0397 51.0146C26.498 54.9746 29.2542 58.3506 32.7897 60.6417L33.0688 59.8255C33.748 57.8071 34.4667 55.8272 35.2063 53.829C35.5459 52.8592 35.9063 51.9076 36.2855 50.9379C36.5251 50.3722 36.0251 49.7721 35.4063 49.8691ZM34.2876 41.0179C33.6084 40.4158 32.9501 39.8137 32.2897 39.1733C30.7313 37.6782 29.1938 36.2033 27.6751 34.6699L27.0355 34.0294C25.0376 37.0377 23.8792 40.6279 23.8792 44.4909C23.8792 44.8606 23.9001 45.2081 23.9001 45.5576L24.8397 45.2465C26.898 44.5293 28.9751 43.907 31.0313 43.2483C32.0105 42.9372 32.9897 42.6665 33.9667 42.3755C34.5876 42.2018 34.7667 41.4442 34.2876 41.0179ZM35.4063 49.8691C34.4667 49.9863 33.548 50.1216 32.6105 50.2186C30.4334 50.4712 28.2959 50.7237 26.1188 50.9177L25.0397 51.0146C26.498 54.9746 29.2542 58.3506 32.7897 60.6417L33.0688 59.8255C33.748 57.8071 34.4667 55.8272 35.2063 53.829C35.5459 52.8592 35.9063 51.9076 36.2855 50.9379C36.5251 50.3722 36.0251 49.7721 35.4063 49.8691ZM49.4292 62.2499C48.2709 60.4639 47.1917 58.6213 46.1126 56.7969C45.6334 56.0009 45.173 55.2049 44.7334 54.3907C44.4147 53.827 43.5938 53.827 43.2751 54.3907C42.8147 55.2251 42.3355 56.0413 41.8376 56.8353C40.7397 58.6597 39.6397 60.4841 38.4813 62.2701L37.9813 63.0459C39.8397 63.6096 41.8167 63.9005 43.8542 63.9005C45.9522 63.9005 47.9897 63.5894 49.8876 62.9873L49.4292 62.2499ZM46.7334 25.2974L46.8334 26.055C47.1126 28.1501 47.3126 30.2675 47.5126 32.3626C47.5917 33.197 47.673 34.0132 47.7313 34.8477C47.7709 35.4881 48.5105 35.8174 49.0501 35.4497C49.7292 34.9648 50.4292 34.4799 51.148 34.0132C52.9459 32.8293 54.723 31.6454 56.5605 30.4998L57.2397 30.0917C54.3834 27.5683 50.748 25.8409 46.7334 25.2974ZM61.973 50.9358C59.7959 50.8005 57.6376 50.6065 55.4605 50.4126C54.5209 50.3358 53.6022 50.2388 52.6647 50.1398C52.0647 50.063 51.5855 50.6449 51.8063 51.2066C52.1459 52.0794 52.4647 52.9542 52.7855 53.8472C53.4855 55.8272 54.2042 57.8253 54.8626 59.8436L55.0813 60.5427C58.5563 58.2334 61.2542 54.8958 62.6709 50.9742L61.973 50.9358ZM60.9147 34.3991L60.3751 34.9628C58.8772 36.5165 57.3397 38.0095 55.8001 39.5046C54.8209 40.4744 53.7626 41.4058 52.7438 42.3574C54.1022 42.6867 55.4605 43.0362 56.8188 43.4241C58.9167 44.006 60.9938 44.5697 63.0709 45.2283L63.8105 45.4606C63.8313 45.1495 63.8313 44.8202 63.8313 44.4909C63.8313 40.7855 62.773 37.3307 60.9147 34.3991ZM60.9147 34.3991L60.3751 34.9628C58.8772 36.5165 57.3397 38.0095 55.8001 39.5046C54.8209 40.4744 53.7626 41.4058 52.7438 42.3574C54.1022 42.6867 55.4605 43.0362 56.8188 43.4241C58.9167 44.006 60.9938 44.5697 63.0709 45.2283L63.8105 45.4606C63.8313 45.1495 63.8313 44.8202 63.8313 44.4909C63.8313 40.7855 62.773 37.3307 60.9147 34.3991ZM61.973 50.9358C59.7959 50.8005 57.6376 50.6065 55.4605 50.4126C54.5209 50.3358 53.6022 50.2388 52.6647 50.1398C52.0647 50.063 51.5855 50.6449 51.8063 51.2066C52.1459 52.0794 52.4647 52.9542 52.7855 53.8472C53.4855 55.8272 54.2042 57.8253 54.8626 59.8436L55.0813 60.5427C58.5563 58.2334 61.2542 54.8958 62.6709 50.9742L61.973 50.9358ZM46.7334 25.2974L46.8334 26.055C47.1126 28.1501 47.3126 30.2675 47.5126 32.3626C47.5917 33.197 47.673 34.0132 47.7313 34.8477C47.7709 35.4881 48.5105 35.8174 49.0501 35.4497C49.7292 34.9648 50.4292 34.4799 51.148 34.0132C52.9459 32.8293 54.723 31.6454 56.5605 30.4998L57.2397 30.0917C54.3834 27.5683 50.748 25.8409 46.7334 25.2974ZM49.4292 62.2499C48.2709 60.4639 47.1917 58.6213 46.1126 56.7969C45.6334 56.0009 45.173 55.2049 44.7334 54.3907C44.4147 53.827 43.5938 53.827 43.2751 54.3907C42.8147 55.2251 42.3355 56.0413 41.8376 56.8353C40.7397 58.6597 39.6397 60.4841 38.4813 62.2701L37.9813 63.0459C39.8397 63.6096 41.8167 63.9005 43.8542 63.9005C45.9522 63.9005 47.9897 63.5894 49.8876 62.9873L49.4292 62.2499ZM35.4063 49.8691C34.4667 49.9863 33.548 50.1216 32.6105 50.2186C30.4334 50.4712 28.2959 50.7237 26.1188 50.9177L25.0397 51.0146C26.498 54.9746 29.2542 58.3506 32.7897 60.6417L33.0688 59.8255C33.748 57.8071 34.4667 55.8272 35.2063 53.829C35.5459 52.8592 35.9063 51.9076 36.2855 50.9379C36.5251 50.3722 36.0251 49.7721 35.4063 49.8691ZM49.4292 62.2499C48.2709 60.4639 47.1917 58.6213 46.1126 56.7969C45.6334 56.0009 45.173 55.2049 44.7334 54.3907C44.4147 53.827 43.5938 53.827 43.2751 54.3907C42.8147 55.2251 42.3355 56.0413 41.8376 56.8353C40.7397 58.6597 39.6397 60.4841 38.4813 62.2701L37.9813 63.0459C39.8397 63.6096 41.8167 63.9005 43.8542 63.9005C45.9522 63.9005 47.9897 63.5894 49.8876 62.9873L49.4292 62.2499ZM46.7334 25.2974L46.8334 26.055C47.1126 28.1501 47.3126 30.2675 47.5126 32.3626C47.5917 33.197 47.673 34.0132 47.7313 34.8477C47.7709 35.4881 48.5105 35.8174 49.0501 35.4497C49.7292 34.9648 50.4292 34.4799 51.148 34.0132C52.9459 32.8293 54.723 31.6454 56.5605 30.4998L57.2397 30.0917C54.3834 27.5683 50.748 25.8409 46.7334 25.2974ZM61.973 50.9358C59.7959 50.8005 57.6376 50.6065 55.4605 50.4126C54.5209 50.3358 53.6022 50.2388 52.6647 50.1398C52.0647 50.063 51.5855 50.6449 51.8063 51.2066C52.1459 52.0794 52.4647 52.9542 52.7855 53.8472C53.4855 55.8272 54.2042 57.8253 54.8626 59.8436L55.0813 60.5427C58.5563 58.2334 61.2542 54.8958 62.6709 50.9742L61.973 50.9358ZM60.9147 34.3991L60.3751 34.9628C58.8772 36.5165 57.3397 38.0095 55.8001 39.5046C54.8209 40.4744 53.7626 41.4058 52.7438 42.3574C54.1022 42.6867 55.4605 43.0362 56.8188 43.4241C58.9167 44.006 60.9938 44.5697 63.0709 45.2283L63.8105 45.4606C63.8313 45.1495 63.8313 44.8202 63.8313 44.4909C63.8313 40.7855 62.773 37.3307 60.9147 34.3991ZM60.9147 34.3991L60.3751 34.9628C58.8772 36.5165 57.3397 38.0095 55.8001 39.5046C54.8209 40.4744 53.7626 41.4058 52.7438 42.3574C54.1022 42.6867 55.4605 43.0362 56.8188 43.4241C58.9167 44.006 60.9938 44.5697 63.0709 45.2283L63.8105 45.4606C63.8313 45.1495 63.8313 44.8202 63.8313 44.4909C63.8313 40.7855 62.773 37.3307 60.9147 34.3991ZM61.973 50.9358C59.7959 50.8005 57.6376 50.6065 55.4605 50.4126C54.5209 50.3358 53.6022 50.2388 52.6647 50.1398C52.0647 50.063 51.5855 50.6449 51.8063 51.2066C52.1459 52.0794 52.4647 52.9542 52.7855 53.8472C53.4855 55.8272 54.2042 57.8253 54.8626 59.8436L55.0813 60.5427C58.5563 58.2334 61.2542 54.8958 62.6709 50.9742L61.973 50.9358ZM46.7334 25.2974L46.8334 26.055C47.1126 28.1501 47.3126 30.2675 47.5126 32.3626C47.5917 33.197 47.673 34.0132 47.7313 34.8477C47.7709 35.4881 48.5105 35.8174 49.0501 35.4497C49.7292 34.9648 50.4292 34.4799 51.148 34.0132C52.9459 32.8293 54.723 31.6454 56.5605 30.4998L57.2397 30.0917C54.3834 27.5683 50.748 25.8409 46.7334 25.2974ZM49.4292 62.2499C48.2709 60.4639 47.1917 58.6213 46.1126 56.7969C45.6334 56.0009 45.173 55.2049 44.7334 54.3907C44.4147 53.827 43.5938 53.827 43.2751 54.3907C42.8147 55.2251 42.3355 56.0413 41.8376 56.8353C40.7397 58.6597 39.6397 60.4841 38.4813 62.2701L37.9813 63.0459C39.8397 63.6096 41.8167 63.9005 43.8542 63.9005C45.9522 63.9005 47.9897 63.5894 49.8876 62.9873L49.4292 62.2499ZM49.4292 62.2499C48.2709 60.4639 47.1917 58.6213 46.1126 56.7969C45.6334 56.0009 45.173 55.2049 44.7334 54.3907C44.4147 53.827 43.5938 53.827 43.2751 54.3907C42.8147 55.2251 42.3355 56.0413 41.8376 56.8353C40.7397 58.6597 39.6397 60.4841 38.4813 62.2701L37.9813 63.0459C39.8397 63.6096 41.8167 63.9005 43.8542 63.9005C45.9522 63.9005 47.9897 63.5894 49.8876 62.9873L49.4292 62.2499ZM46.7334 25.2974L46.8334 26.055C47.1126 28.1501 47.3126 30.2675 47.5126 32.3626C47.5917 33.197 47.673 34.0132 47.7313 34.8477C47.7709 35.4881 48.5105 35.8174 49.0501 35.4497C49.7292 34.9648 50.4292 34.4799 51.148 34.0132C52.9459 32.8293 54.723 31.6454 56.5605 30.4998L57.2397 30.0917C54.3834 27.5683 50.748 25.8409 46.7334 25.2974ZM61.973 50.9358C59.7959 50.8005 57.6376 50.6065 55.4605 50.4126C54.5209 50.3358 53.6022 50.2388 52.6647 50.1398C52.0647 50.063 51.5855 50.6449 51.8063 51.2066C52.1459 52.0794 52.4647 52.9542 52.7855 53.8472C53.4855 55.8272 54.2042 57.8253 54.8626 59.8436L55.0813 60.5427C58.5563 58.2334 61.2542 54.8958 62.6709 50.9742L61.973 50.9358ZM60.9147 34.3991L60.3751 34.9628C58.8772 36.5165 57.3397 38.0095 55.8001 39.5046C54.8209 40.4744 53.7626 41.4058 52.7438 42.3574C54.1022 42.6867 55.4605 43.0362 56.8188 43.4241C58.9167 44.006 60.9938 44.5697 63.0709 45.2283L63.8105 45.4606C63.8313 45.1495 63.8313 44.8202 63.8313 44.4909C63.8313 40.7855 62.773 37.3307 60.9147 34.3991ZM60.9147 34.3991L60.3751 34.9628C58.8772 36.5165 57.3397 38.0095 55.8001 39.5046C54.8209 40.4744 53.7626 41.4058 52.7438 42.3574C54.1022 42.6867 55.4605 43.0362 56.8188 43.4241C58.9167 44.006 60.9938 44.5697 63.0709 45.2283L63.8105 45.4606C63.8313 45.1495 63.8313 44.8202 63.8313 44.4909C63.8313 40.7855 62.773 37.3307 60.9147 34.3991ZM61.973 50.9358C59.7959 50.8005 57.6376 50.6065 55.4605 50.4126C54.5209 50.3358 53.6022 50.2388 52.6647 50.1398C52.0647 50.063 51.5855 50.6449 51.8063 51.2066C52.1459 52.0794 52.4647 52.9542 52.7855 53.8472C53.4855 55.8272 54.2042 57.8253 54.8626 59.8436L55.0813 60.5427C58.5563 58.2334 61.2542 54.8958 62.6709 50.9742L61.973 50.9358ZM46.7334 25.2974L46.8334 26.055C47.1126 28.1501 47.3126 30.2675 47.5126 32.3626C47.5917 33.197 47.673 34.0132 47.7313 34.8477C47.7709 35.4881 48.5105 35.8174 49.0501 35.4497C49.7292 34.9648 50.4292 34.4799 51.148 34.0132C52.9459 32.8293 54.723 31.6454 56.5605 30.4998L57.2397 30.0917C54.3834 27.5683 50.748 25.8409 46.7334 25.2974ZM49.4292 62.2499C48.2709 60.4639 47.1917 58.6213 46.1126 56.7969C45.6334 56.0009 45.173 55.2049 44.7334 54.3907C44.4147 53.827 43.5938 53.827 43.2751 54.3907C42.8147 55.2251 42.3355 56.0413 41.8376 56.8353C40.7397 58.6597 39.6397 60.4841 38.4813 62.2701L37.9813 63.0459C39.8397 63.6096 41.8167 63.9005 43.8542 63.9005C45.9522 63.9005 47.9897 63.5894 49.8876 62.9873L49.4292 62.2499ZM46.7334 25.2974L46.8334 26.055C47.1126 28.1501 47.3126 30.2675 47.5126 32.3626C47.5917 33.197 47.673 34.0132 47.7313 34.8477C47.7709 35.4881 48.5105 35.8174 49.0501 35.4497C49.7292 34.9648 50.4292 34.4799 51.148 34.0132C52.9459 32.8293 54.723 31.6454 56.5605 30.4998L57.2397 30.0917C54.3834 27.5683 50.748 25.8409 46.7334 25.2974ZM61.973 50.9358C59.7959 50.8005 57.6376 50.6065 55.4605 50.4126C54.5209 50.3358 53.6022 50.2388 52.6647 50.1398C52.0647 50.063 51.5855 50.6449 51.8063 51.2066C52.1459 52.0794 52.4647 52.9542 52.7855 53.8472C53.4855 55.8272 54.2042 57.8253 54.8626 59.8436L55.0813 60.5427C58.5563 58.2334 61.2542 54.8958 62.6709 50.9742L61.973 50.9358ZM60.9147 34.3991L60.3751 34.9628C58.8772 36.5165 57.3397 38.0095 55.8001 39.5046C54.8209 40.4744 53.7626 41.4058 52.7438 42.3574C54.1022 42.6867 55.4605 43.0362 56.8188 43.4241C58.9167 44.006 60.9938 44.5697 63.0709 45.2283L63.8105 45.4606C63.8313 45.1495 63.8313 44.8202 63.8313 44.4909C63.8313 40.7855 62.773 37.3307 60.9147 34.3991ZM60.9147 34.3991L60.3751 34.9628C58.8772 36.5165 57.3397 38.0095 55.8001 39.5046C54.8209 40.4744 53.7626 41.4058 52.7438 42.3574C54.1022 42.6867 55.4605 43.0362 56.8188 43.4241C58.9167 44.006 60.9938 44.5697 63.0709 45.2283L63.8105 45.4606C63.8313 45.1495 63.8313 44.8202 63.8313 44.4909C63.8313 40.7855 62.773 37.3307 60.9147 34.3991ZM61.973 50.9358C59.7959 50.8005 57.6376 50.6065 55.4605 50.4126C54.5209 50.3358 53.6022 50.2388 52.6647 50.1398C52.0647 50.063 51.5855 50.6449 51.8063 51.2066C52.1459 52.0794 52.4647 52.9542 52.7855 53.8472C53.4855 55.8272 54.2042 57.8253 54.8626 59.8436L55.0813 60.5427C58.5563 58.2334 61.2542 54.8958 62.6709 50.9742L61.973 50.9358ZM46.7334 25.2974L46.8334 26.055C47.1126 28.1501 47.3126 30.2675 47.5126 32.3626C47.5917 33.197 47.673 34.0132 47.7313 34.8477C47.7709 35.4881 48.5105 35.8174 49.0501 35.4497C49.7292 34.9648 50.4292 34.4799 51.148 34.0132C52.9459 32.8293 54.723 31.6454 56.5605 30.4998L57.2397 30.0917C54.3834 27.5683 50.748 25.8409 46.7334 25.2974ZM46.7334 25.2974L46.8334 26.055C47.1126 28.1501 47.3126 30.2675 47.5126 32.3626C47.5917 33.197 47.673 34.0132 47.7313 34.8477C47.7709 35.4881 48.5105 35.8174 49.0501 35.4497C49.7292 34.9648 50.4292 34.4799 51.148 34.0132C52.9459 32.8293 54.723 31.6454 56.5605 30.4998L57.2397 30.0917C54.3834 27.5683 50.748 25.8409 46.7334 25.2974ZM60.9147 34.3991L60.3751 34.9628C58.8772 36.5165 57.3397 38.0095 55.8001 39.5046C54.8209 40.4744 53.7626 41.4058 52.7438 42.3574C54.1022 42.6867 55.4605 43.0362 56.8188 43.4241C58.9167 44.006 60.9938 44.5697 63.0709 45.2283L63.8105 45.4606C63.8313 45.1495 63.8313 44.8202 63.8313 44.4909C63.8313 40.7855 62.773 37.3307 60.9147 34.3991ZM60.9147 34.3991L60.3751 34.9628C58.8772 36.5165 57.3397 38.0095 55.8001 39.5046C54.8209 40.4744 53.7626 41.4058 52.7438 42.3574C54.1022 42.6867 55.4605 43.0362 56.8188 43.4241C58.9167 44.006 60.9938 44.5697 63.0709 45.2283L63.8105 45.4606C63.8313 45.1495 63.8313 44.8202 63.8313 44.4909C63.8313 40.7855 62.773 37.3307 60.9147 34.3991ZM46.7334 25.2974L46.8334 26.055C47.1126 28.1501 47.3126 30.2675 47.5126 32.3626C47.5917 33.197 47.673 34.0132 47.7313 34.8477C47.7709 35.4881 48.5105 35.8174 49.0501 35.4497C49.7292 34.9648 50.4292 34.4799 51.148 34.0132C52.9459 32.8293 54.723 31.6454 56.5605 30.4998L57.2397 30.0917C54.3834 27.5683 50.748 25.8409 46.7334 25.2974ZM46.7334 25.2974L46.8334 26.055C47.1126 28.1501 47.3126 30.2675 47.5126 32.3626C47.5917 33.197 47.673 34.0132 47.7313 34.8477C47.7709 35.4881 48.5105 35.8174 49.0501 35.4497C49.7292 34.9648 50.4292 34.4799 51.148 34.0132C52.9459 32.8293 54.723 31.6454 56.5605 30.4998L57.2397 30.0917C54.3834 27.5683 50.748 25.8409 46.7334 25.2974ZM60.9147 34.3991L60.3751 34.9628C58.8772 36.5165 57.3397 38.0095 55.8001 39.5046C54.8209 40.4744 53.7626 41.4058 52.7438 42.3574C54.1022 42.6867 55.4605 43.0362 56.8188 43.4241C58.9167 44.006 60.9938 44.5697 63.0709 45.2283L63.8105 45.4606C63.8313 45.1495 63.8313 44.8202 63.8313 44.4909C63.8313 40.7855 62.773 37.3307 60.9147 34.3991ZM60.9147 34.3991L60.3751 34.9628C58.8772 36.5165 57.3397 38.0095 55.8001 39.5046C54.8209 40.4744 53.7626 41.4058 52.7438 42.3574C54.1022 42.6867 55.4605 43.0362 56.8188 43.4241C58.9167 44.006 60.9938 44.5697 63.0709 45.2283L63.8105 45.4606C63.8313 45.1495 63.8313 44.8202 63.8313 44.4909C63.8313 40.7855 62.773 37.3307 60.9147 34.3991ZM46.7334 25.2974L46.8334 26.055C47.1126 28.1501 47.3126 30.2675 47.5126 32.3626C47.5917 33.197 47.673 34.0132 47.7313 34.8477C47.7709 35.4881 48.5105 35.8174 49.0501 35.4497C49.7292 34.9648 50.4292 34.4799 51.148 34.0132C52.9459 32.8293 54.723 31.6454 56.5605 30.4998L57.2397 30.0917C54.3834 27.5683 50.748 25.8409 46.7334 25.2974ZM46.7334 25.2974L46.8334 26.055C47.1126 28.1501 47.3126 30.2675 47.5126 32.3626C47.5917 33.197 47.673 34.0132 47.7313 34.8477C47.7709 35.4881 48.5105 35.8174 49.0501 35.4497C49.7292 34.9648 50.4292 34.4799 51.148 34.0132C52.9459 32.8293 54.723 31.6454 56.5605 30.4998L57.2397 30.0917C54.3834 27.5683 50.748 25.8409 46.7334 25.2974ZM46.7334 25.2974L46.8334 26.055C47.1126 28.1501 47.3126 30.2675 47.5126 32.3626C47.5917 33.197 47.673 34.0132 47.7313 34.8477C47.7709 35.4881 48.5105 35.8174 49.0501 35.4497C49.7292 34.9648 50.4292 34.4799 51.148 34.0132C52.9459 32.8293 54.723 31.6454 56.5605 30.4998L57.2397 30.0917C54.3834 27.5683 50.748 25.8409 46.7334 25.2974Z" fill="#0277BD"/>
</svg>
