<svg width="90" height="48" viewBox="0 0 90 48" fill="none" xmlns="http://www.w3.org/2000/svg">
<path d="M0.00375 44.3266H3.60375V31.4437L8.60438 42.4573C9.22125 43.8302 10.065 44.3157 11.7206 44.3157C13.3763 44.3157 14.1863 43.8302 14.8031 42.4573L19.8038 31.7255V44.3266H23.4038V31.1291C23.4038 29.8618 22.8844 29.2472 21.8119 28.9308C19.2488 28.1489 17.5275 28.8235 16.7494 30.5164L11.6213 41.7173L6.65438 30.5164C5.90813 28.8253 4.15688 28.1489 1.59188 28.9308C0.519375 29.2472 0 29.8599 0 31.1273V44.3248L0.00375 44.3266ZM25.2019 33.853H28.8019V41.2263C28.7738 41.59 28.9219 42.5555 30.6581 42.581C31.5431 42.5955 35.9475 42.581 36.0019 42.581V33.853H39.6019C39.6169 33.853 39.6019 44.7048 39.6019 44.7502C39.6206 47.4268 36.1744 47.7723 34.59 47.8178H25.2038V46.0722C25.2225 46.0722 34.1794 46.074 34.2056 46.0722C36.2456 45.8631 36.0037 44.7739 36.0037 44.443V44.3266H30.3563C27.225 44.2993 25.2281 42.961 25.2056 41.4354C25.2019 41.2936 25.2731 33.9185 25.2019 33.853Z" fill="url(#paint0_linear_280_3081)"/>
<path d="M41.4019 44.3265H50.415C51.5962 44.3265 52.7437 44.0864 53.655 43.6719C55.1737 42.9954 55.8 42.0808 55.8 40.8789V38.3914C55.8 35.7076 52.3687 35.5985 50.4 35.5985H46.8C45.3844 35.5985 45.1687 34.7693 45 33.8529V32.1073C45.1687 31.409 45.4837 30.4708 46.7306 30.3617C48.18 30.3617 55.7981 30.3617 55.7981 30.3617V28.6161H47.2369C45.8212 28.6161 41.3981 28.7797 41.3981 32.1073V34.2656C41.3981 35.793 42.7819 37.0368 45.7856 37.3422C46.1231 37.3641 46.4606 37.3859 46.7962 37.3859C46.7962 37.3859 50.295 37.3204 50.3962 37.3422C52.4212 37.3422 52.1962 38.8696 52.1962 39.0878V40.8334C52.1962 41.0735 52.14 42.579 50.3756 42.579C50.2406 42.579 41.3962 42.579 41.3962 42.579V44.3265H41.4019ZM75.6 40.7607C75.6 42.8682 76.8281 44.0501 80.085 44.2865C80.3887 44.3065 80.6944 44.3246 81 44.3246H90V42.579H81.6844C79.8262 42.579 79.2 41.8226 79.2 40.7407V28.6143H75.6V40.7607ZM57.57 40.8353V32.1073C57.57 30.2526 58.5075 28.9725 61.1625 28.6161H62.4225H68.8856H69.87C72.525 28.9725 73.77 30.2508 73.77 32.1073V40.8025C73.77 42.3063 73.3669 43.1136 72.0525 43.6373L74.8425 46.0702H70.7925L68.7862 44.3246H66.4294L62.4244 44.3465C61.845 44.3465 61.2337 44.2683 60.5625 44.0901C58.5487 43.5573 57.57 42.5318 57.57 40.8353ZM61.17 40.8353C61.3537 41.6844 62.0569 42.5809 63.3075 42.5809H66.8025L64.8 40.8353H68.8781L69.8512 41.7117C69.8512 41.7117 70.2 41.4353 70.2 40.8353C70.2 40.2352 70.17 32.1073 70.17 32.1073C69.9862 31.3181 69.1612 30.3617 67.9425 30.3617H63.3094C61.905 30.3617 61.1719 31.3581 61.1719 32.2855L61.17 40.8353Z" fill="url(#paint1_linear_280_3081)"/>
<path d="M86.6231 26.7762C84.69 26.7253 83.2144 26.8998 81.9525 27.4144C81.5944 27.5617 81.0225 27.5653 80.9625 28.0017C81.1594 28.2017 81.1894 28.5018 81.3469 28.7472C81.6469 29.22 82.1569 29.8546 82.6106 30.1855C83.1075 30.5492 83.6194 30.9383 84.15 31.2529C85.095 31.8111 86.1506 32.1311 87.0619 32.6912C87.5981 33.0203 88.1306 33.4385 88.6557 33.8095C88.9144 33.9949 89.0869 34.2804 89.4244 34.3968C89.4244 34.3786 89.4244 34.3622 89.4244 34.3441C89.2481 34.1259 89.2013 33.8258 89.04 33.5967C88.8019 33.3658 88.5638 33.1349 88.3256 32.9039C87.6281 32.0057 86.7394 31.2147 85.7981 30.5601C85.0463 30.0364 83.3644 29.3291 83.0494 28.4818C83.0306 28.4636 83.0138 28.4472 82.9931 28.4272C83.5257 28.369 84.15 28.1817 84.6413 28.0544C85.4681 27.8399 86.205 27.8963 87.0581 27.6817C87.4425 27.5744 87.8269 27.4689 88.2113 27.3617C88.2113 27.2908 88.2113 27.2198 88.2113 27.1489C87.78 26.7198 87.4706 26.1525 87.0019 25.7634C85.77 24.7469 84.4275 23.7323 83.0456 22.8849C82.2788 22.4158 81.33 22.1103 80.5182 21.7121C80.2444 21.5776 79.7644 21.5085 79.5844 21.2866C79.1569 20.7593 78.9263 20.0883 78.5963 19.4756C77.9063 18.1882 77.2275 16.7808 76.6181 15.4261C76.2 14.5024 75.9281 13.5896 75.4088 12.7605C72.9131 8.78196 70.2263 6.37994 66.0675 4.01975C65.1825 3.51789 64.1157 3.31969 62.9888 3.05967C62.3832 3.02512 61.7794 2.98875 61.1738 2.95239C60.8044 2.80147 60.4219 2.36507 60.0731 2.15232C58.695 1.3068 55.1588 -0.529717 54.1388 1.88503C53.4938 3.40879 55.1025 4.89618 55.6781 5.66898C56.0813 6.21084 56.5988 6.81816 56.8875 7.42912C57.0769 7.82915 57.1106 8.231 57.2719 8.65468C57.6713 9.6984 58.3031 10.8876 58.8206 11.8531C59.0813 12.3422 59.37 12.855 59.7 13.2914C59.9025 13.5587 60.2494 13.6769 60.3056 14.0915C59.9663 14.5515 59.9475 15.2661 59.7563 15.8516C58.8975 18.4791 59.2219 21.743 60.4706 23.685C60.8531 24.2814 61.7569 25.5615 62.9981 25.0706C64.0838 24.6414 63.8419 23.3122 64.1513 22.1394C64.2206 21.8739 64.1775 21.6794 64.3163 21.5012C64.3163 21.5194 64.3163 21.5357 64.3163 21.5557C64.6463 22.194 64.9744 22.8358 65.3063 23.4741C66.0394 24.6178 67.3388 25.8124 68.4375 26.6198C69.0075 27.038 69.4575 27.7617 70.1963 28.0054C70.1963 27.9872 70.1963 27.9708 70.1963 27.9508C70.1775 27.9508 70.1607 27.9508 70.14 27.9508C69.9975 27.7344 69.7725 27.6453 69.5907 27.4708C69.1613 27.0616 68.6813 26.5543 68.3269 26.0852C67.3257 24.7669 66.4406 23.3232 65.6344 21.8212C65.25 21.103 64.9144 20.3138 64.59 19.5828C64.4644 19.301 64.4663 18.8755 64.2056 18.73C63.8494 19.2646 63.3281 19.6974 63.0525 20.3284C62.6138 21.3375 62.5556 22.5704 62.3944 23.845C62.2969 23.8777 62.34 23.8559 62.2838 23.8977C61.5188 23.7177 61.2488 22.9559 60.9638 22.2994C60.2438 20.6411 60.1106 17.9718 60.7444 16.0644C60.9075 15.5698 61.6481 14.0151 61.35 13.5587C61.2075 13.1023 60.735 12.8387 60.4725 12.4914C60.1444 12.0622 59.82 11.4949 59.5931 10.9985C59.0044 9.70567 58.4456 8.20191 57.825 6.89453C57.5288 6.26902 57.0281 5.63806 56.6156 5.08347C56.16 4.46888 55.6481 4.01611 55.2956 3.27241C55.17 3.00876 54.9994 2.58509 55.185 2.31234C55.245 2.12868 55.3275 2.05231 55.515 1.99231C55.8338 1.75229 56.7206 2.0705 57.0544 2.20505C57.9356 2.55963 58.6706 2.89784 59.4169 3.37788C59.775 3.60881 60.1369 4.0543 60.57 4.17794C60.735 4.17794 60.9 4.17794 61.065 4.17794C61.8394 4.35069 62.7056 4.23249 63.4275 4.44524C64.7063 4.82163 65.85 5.40714 66.8888 6.04355C70.0575 7.98371 72.6469 10.7439 74.4188 14.0388C74.7038 14.5697 74.8275 15.0752 75.0769 15.6371C75.5831 16.7717 76.2225 17.9391 76.725 19.0483C77.2275 20.1556 77.7188 21.2721 78.4294 22.194C78.8044 22.6776 80.2481 22.9377 80.9025 23.2068C81.3619 23.3959 82.1157 23.5904 82.5506 23.845C83.3832 24.3323 84.1894 24.9124 84.9675 25.4433C85.365 25.7106 86.5632 26.2943 86.6231 26.7762Z" fill="url(#paint2_linear_280_3081)"/>
<path d="M62.0588 6.47239C61.6557 6.46512 61.3707 6.51422 61.0688 6.57968C61.0688 6.59786 61.0688 6.61423 61.0688 6.63423C61.0876 6.63423 61.1045 6.63423 61.1251 6.63423C61.3182 7.01608 61.6557 7.26519 61.8938 7.59431C62.0776 7.96706 62.2595 8.33982 62.4432 8.71258C62.462 8.6944 62.4788 8.67803 62.4976 8.65985C62.837 8.4271 62.9945 8.05616 62.9926 7.48702C62.8557 7.34701 62.8351 7.17245 62.717 7.00699C62.5595 6.78333 62.2557 6.65786 62.0588 6.47239Z" fill="#00796B"/>
<defs>
<linearGradient id="paint0_linear_280_3081" x1="18.375" y1="26.4978" x2="20.6355" y2="47.7201" gradientUnits="userSpaceOnUse">
<stop stop-color="#058F92"/>
<stop offset="0.5" stop-color="#038489"/>
<stop offset="1" stop-color="#026D71"/>
</linearGradient>
<linearGradient id="paint1_linear_280_3081" x1="64.17" y1="27.2396" x2="65.7172" y2="44.6551" gradientUnits="userSpaceOnUse">
<stop stop-color="#FF9C0F"/>
<stop offset="0.813" stop-color="#D67E00"/>
</linearGradient>
<linearGradient id="paint2_linear_280_3081" x1="65.6794" y1="1.91412" x2="75.1339" y2="29.4336" gradientUnits="userSpaceOnUse">
<stop stop-color="#058F92"/>
<stop offset="0.5" stop-color="#038489"/>
<stop offset="1" stop-color="#026D71"/>
</linearGradient>
</defs>
</svg>
