<svg width="83" height="43" viewBox="0 0 83 43" fill="none" xmlns="http://www.w3.org/2000/svg">
<g clip-path="url(#clip0_1083_4230)">
<path d="M0.00344811 39.9755H3.31364V28.1199L7.9117 38.2553C8.47891 39.5187 9.25474 39.9655 10.7771 39.9655C12.2994 39.9655 13.0442 39.5187 13.6114 38.2553L18.2095 28.3792V39.9755H21.5197V27.8304C21.5197 26.6641 21.0421 26.0985 20.056 25.8073C17.6992 25.0878 16.1165 25.7086 15.401 27.2665L10.6857 37.5743L6.11868 27.2665C5.4325 25.7102 3.82223 25.0878 1.46372 25.8073C0.477564 26.0985 0 26.6624 0 27.8287V39.9739L0.00344811 39.9755ZM23.173 30.3371H26.4832V37.1225C26.4574 37.4571 26.5936 38.3457 28.1901 38.3691C29.0038 38.3825 33.0536 38.3691 33.1036 38.3691V30.3371H36.4138C36.4276 30.3371 36.4138 40.3236 36.4138 40.3654C36.431 42.8286 33.2622 43.1465 31.8054 43.1884H23.1748V41.582C23.192 41.582 31.4278 41.5836 31.452 41.582C33.3277 41.3895 33.1053 40.3872 33.1053 40.0826V39.9755H27.9125C25.0333 39.9504 23.1972 38.7189 23.1765 37.3149C23.173 37.1844 23.2386 30.3973 23.173 30.3371Z" fill="url(#paint0_linear_1083_4230)"/>
<path d="M38.0696 39.9755H46.3572C47.4433 39.9755 48.4984 39.7546 49.3363 39.3731C50.7328 38.7506 51.3087 37.9089 51.3087 36.8029V34.5137C51.3087 32.0438 48.1536 31.9434 46.3434 31.9434H43.0332C41.7315 31.9434 41.5333 31.1804 41.3781 30.337V28.7306C41.5333 28.088 41.8229 27.2246 42.9694 27.1242C44.3021 27.1242 51.3069 27.1242 51.3069 27.1242V25.5178H43.4349C42.1332 25.5178 38.0662 25.6684 38.0662 28.7306V30.7169C38.0662 32.1225 39.3385 33.2671 42.1005 33.5482C42.4108 33.5683 42.7211 33.5884 43.0297 33.5884C43.0297 33.5884 46.2468 33.5281 46.3399 33.5482C48.2019 33.5482 47.995 34.9538 47.995 35.1546V36.761C47.995 36.9819 47.9433 38.3674 46.321 38.3674C46.1968 38.3674 38.0645 38.3674 38.0645 38.3674V39.9755H38.0696ZM69.5147 36.6941C69.5147 38.6335 70.644 39.7212 73.6386 39.9387C73.9179 39.9571 74.199 39.9739 74.48 39.9739H82.7554V38.3674H75.1093C73.4007 38.3674 72.8249 37.6713 72.8249 36.6757V25.5161H69.5147V36.6941ZM52.9362 36.7627V28.7306C52.9362 27.0238 53.7982 25.8458 56.2395 25.5178H57.398H63.3408H64.246C66.6872 25.8458 67.832 27.0221 67.832 28.7306V36.7326C67.832 38.1164 67.4613 38.8594 66.2528 39.3413L68.8182 41.5803H65.0942L63.2495 39.9739H61.0823L57.3997 39.9939C56.867 39.9939 56.305 39.922 55.6878 39.758C53.8361 39.2677 52.9362 38.3239 52.9362 36.7627ZM56.2464 36.7627C56.4153 37.5441 57.0618 38.3691 58.2118 38.3691H61.4254L59.5841 36.7627H63.3339L64.2287 37.5692C64.2287 37.5692 64.5494 37.3149 64.5494 36.7627C64.5494 36.2105 64.5218 28.7306 64.5218 28.7306C64.3529 28.0044 63.5943 27.1242 62.4736 27.1242H58.2135C56.9222 27.1242 56.2481 28.0412 56.2481 28.8946L56.2464 36.7627Z" fill="url(#paint1_linear_1083_4230)"/>
<path d="M79.6498 23.8242C77.8723 23.7774 76.5155 23.938 75.3552 24.4116C75.0259 24.5471 74.5 24.5505 74.4449 24.9521C74.6259 25.1362 74.6535 25.4123 74.7983 25.6382C75.0741 26.0732 75.5431 26.6572 75.9603 26.9618C76.4172 27.2964 76.8879 27.6545 77.3758 27.944C78.2447 28.4577 79.2153 28.7523 80.0532 29.2677C80.5463 29.5705 81.0359 29.9554 81.5187 30.2968C81.7566 30.4674 81.9152 30.7302 82.2255 30.8373C82.2255 30.8205 82.2255 30.8055 82.2255 30.7887C82.0635 30.5879 82.0204 30.3118 81.8721 30.101C81.6531 29.8885 81.4342 29.6759 81.2152 29.4634C80.5739 28.6368 79.7567 27.9089 78.8912 27.3065C78.1999 26.8246 76.6534 26.1736 76.3637 25.3938C76.3465 25.3771 76.331 25.3621 76.312 25.3436C76.8016 25.2901 77.3758 25.1177 77.8275 25.0006C78.5878 24.8032 79.2653 24.855 80.0498 24.6576C80.4032 24.5588 80.7566 24.4618 81.1101 24.3631C81.1101 24.2978 81.1101 24.2325 81.1101 24.1673C80.7135 23.7724 80.4291 23.2503 79.998 22.8922C78.8653 21.9568 77.6309 21.0231 76.3603 20.2433C75.6551 19.8116 74.7828 19.5304 74.0363 19.164C73.7845 19.0401 73.3432 18.9766 73.1777 18.7724C72.7846 18.2871 72.5725 17.6697 72.2691 17.1057C71.6346 15.921 71.0105 14.6258 70.4502 13.3792C70.0658 12.5291 69.8158 11.6891 69.3382 10.9261C67.0435 7.26478 64.5729 5.05429 60.749 2.88228C59.9352 2.42043 58.9542 2.23804 57.9181 1.99875C57.3612 1.96696 56.806 1.93349 56.2492 1.90002C55.9095 1.76114 55.5578 1.35953 55.2371 1.16375C53.97 0.385643 50.7184 -1.30444 49.7805 0.917767C49.1874 2.32003 50.6667 3.68883 51.196 4.40001C51.5666 4.89867 52.0425 5.45756 52.308 6.01981C52.4821 6.38795 52.5131 6.75776 52.6614 7.14765C53.0286 8.10815 53.6096 9.20252 54.0855 10.0911C54.3251 10.5412 54.5906 11.0131 54.8941 11.4147C55.0803 11.6607 55.3992 11.7694 55.4509 12.151C55.1389 12.5743 55.1216 13.2319 54.9458 13.7708C54.1562 16.1888 54.4544 19.1924 55.6026 20.9796C55.9544 21.5284 56.7853 22.7064 57.9267 22.2546C58.9249 21.8597 58.7025 20.6365 58.987 19.5572C59.0508 19.3129 59.0111 19.1338 59.1387 18.9699C59.1387 18.9866 59.1387 19.0017 59.1387 19.0201C59.4421 19.6074 59.7438 20.1981 60.049 20.7854C60.7231 21.838 61.9179 22.9374 62.9282 23.6803C63.4523 24.0652 63.866 24.7312 64.5453 24.9554C64.5453 24.9387 64.5453 24.9236 64.5453 24.9052C64.5281 24.9052 64.5126 24.9052 64.4936 24.9052C64.3626 24.7061 64.1557 24.6241 63.9885 24.4635C63.5937 24.087 63.1523 23.6201 62.8264 23.1884C61.9058 21.9752 61.092 20.6466 60.3507 19.2644C59.9973 18.6034 59.6887 17.8772 59.3904 17.2045C59.2749 16.9451 59.2766 16.5535 59.037 16.4197C58.7094 16.9116 58.2301 17.3099 57.9767 17.8905C57.5732 18.8193 57.5198 19.9538 57.3715 21.1268C57.2819 21.1569 57.3215 21.1368 57.2698 21.1753C56.5664 21.0097 56.3181 20.3085 56.0561 19.7045C55.394 18.1784 55.2716 15.7219 55.8544 13.9665C56.0043 13.5114 56.6854 12.0807 56.4112 11.6607C56.2802 11.2407 55.8457 10.998 55.6044 10.6784C55.3027 10.2835 55.0044 9.76142 54.7958 9.30459C54.2544 8.11484 53.7407 6.73098 53.17 5.52784C52.8976 4.95221 52.4373 4.37156 52.058 3.86119C51.639 3.2956 51.1684 2.87893 50.8442 2.19453C50.7287 1.9519 50.5718 1.56201 50.7425 1.31101C50.7977 1.142 50.8736 1.07172 51.046 1.01649C51.3391 0.795613 52.1545 1.08845 52.4614 1.21228C53.2717 1.53858 53.9475 1.84982 54.6337 2.29159C54.963 2.5041 55.2958 2.91407 55.694 3.02786C55.8457 3.02786 55.9975 3.02786 56.1492 3.02786C56.8612 3.18683 57.6577 3.07806 58.3215 3.27384C59.4973 3.62023 60.549 4.15905 61.5041 4.74472C64.4177 6.53018 66.7987 9.07033 68.4279 12.1024C68.69 12.5911 68.8037 13.0562 69.033 13.5733C69.4985 14.6175 70.0864 15.6918 70.5485 16.7125C71.0105 17.7316 71.4622 18.759 72.1157 19.6074C72.4605 20.0525 73.788 20.2918 74.3897 20.5395C74.8121 20.7135 75.5052 20.8925 75.9051 21.1268C76.6706 21.5753 77.412 22.1091 78.1274 22.5977C78.4929 22.8437 79.5946 23.3808 79.6498 23.8242Z" fill="url(#paint2_linear_1083_4230)"/>
<path d="M57.0626 5.13933C56.692 5.13264 56.4299 5.17782 56.1523 5.23806C56.1523 5.25479 56.1523 5.26985 56.1523 5.28826C56.1696 5.28826 56.1851 5.28826 56.2041 5.28826C56.3816 5.63966 56.692 5.86891 56.9109 6.17179C57.0799 6.51482 57.2471 6.85786 57.4161 7.2009C57.4333 7.18416 57.4488 7.1691 57.4661 7.15237C57.7781 6.93818 57.923 6.59682 57.9212 6.07306C57.7954 5.94421 57.7764 5.78357 57.6678 5.6313C57.523 5.42547 57.2437 5.31001 57.0626 5.13933Z" fill="#00796B"/>
</g>
<defs>
<linearGradient id="paint0_linear_1083_4230" x1="16.8958" y1="23.5684" x2="18.9777" y2="43.0981" gradientUnits="userSpaceOnUse">
<stop stop-color="#058F92"/>
<stop offset="0.5" stop-color="#038489"/>
<stop offset="1" stop-color="#026D71"/>
</linearGradient>
<linearGradient id="paint1_linear_1083_4230" x1="59.0048" y1="24.2511" x2="60.4299" y2="40.2778" gradientUnits="userSpaceOnUse">
<stop stop-color="#FF9C0F"/>
<stop offset="0.813" stop-color="#D67E00"/>
</linearGradient>
<linearGradient id="paint2_linear_1083_4230" x1="60.3921" y1="0.944541" x2="69.0985" y2="26.2653" gradientUnits="userSpaceOnUse">
<stop stop-color="#058F92"/>
<stop offset="0.5" stop-color="#038489"/>
<stop offset="1" stop-color="#026D71"/>
</linearGradient>
<clipPath id="clip0_1083_4230">
<rect width="82.7547" height="43" fill="white"/>
</clipPath>
</defs>
</svg>
