<svg width="76" height="74" viewBox="0 0 76 74" fill="none" xmlns="http://www.w3.org/2000/svg">
<path d="M75.5 0.386719H0.5V73.12H75.5V0.386719Z" fill="#1976D2"/>
<path d="M45.2709 32.7129H17.6396V39.3074H27.5501V69.0795H35.4021V39.3074H45.2709V32.7129Z" fill="white"/>
<path d="M69.6543 40.9644C69.6543 40.9644 65.9314 38.5561 61.723 38.5561C57.5147 38.5561 56.0001 40.4956 56.0001 42.5685C56.0001 47.9185 71.3772 47.3831 71.3772 58.1496C71.3772 74.7348 47.9313 67.3787 47.9313 67.3787V59.4224C47.9313 59.4224 52.4147 62.6995 57.7918 62.6995C63.1688 62.6995 62.9647 59.2891 62.9647 58.8204C62.9647 53.8725 47.7251 53.8725 47.7251 42.9039C47.7251 27.9916 69.9293 33.8749 69.9293 33.8749L69.6543 40.9644Z" fill="white"/>
</svg>
