<svg width="41" height="41" viewBox="0 0 41 41" fill="none" xmlns="http://www.w3.org/2000/svg">
<path d="M40.5 0.5H0.5V40.5H40.5V0.5Z" fill="#1976D2"/>
<path d="M24.3773 18.2778H9.64062V21.9045H14.9262V38.2778H19.114V21.9045H24.3773V18.2778Z" fill="white"/>
<path d="M37.3831 22.8154C37.3831 22.8154 35.3975 21.4909 33.1531 21.4909C30.9086 21.4909 30.1008 22.5576 30.1008 23.6976C30.1008 26.6398 38.3019 26.3454 38.3019 32.2665C38.3019 41.3876 25.7975 37.342 25.7975 37.342V32.9665C25.7975 32.9665 28.1886 34.7687 31.0564 34.7687C33.9242 34.7687 33.8153 32.8932 33.8153 32.6354C33.8153 29.9143 25.6875 29.9143 25.6875 23.882C25.6875 15.6809 37.5297 18.9165 37.5297 18.9165L37.3831 22.8154Z" fill="white"/>
</svg>
